<svg width="1487" height="1385" viewBox="0 0 1487 1385" fill="none" xmlns="http://www.w3.org/2000/svg">
<path fill-rule="evenodd" clip-rule="evenodd" d="M295.861 147.827C55.0306 182.839 10.8347 331.431 40.4458 461.568C70.0569 591.704 312.519 622.924 406.744 752.146C468.382 836.676 481.422 1195.61 681.631 1242.99C1011.27 1321.01 1481.89 1163.74 1481.89 1163.74L1386.52 507.718L1312.71 9.7063e-05C1312.71 9.7063e-05 536.691 112.816 295.861 147.827Z" fill="#DCFF02"/>
<path fill-rule="evenodd" clip-rule="evenodd" d="M500.163 191C277.809 191 218.316 319.547 227.984 441.107C237.651 562.668 452.775 622.767 520.985 751.994C565.605 836.528 530.215 1162.79 705.009 1231.95C992.805 1345.82 1439 1265.48 1439 1265.48V659.776V191C1439 191 722.516 191 500.163 191Z" fill="#9C5BF5"/>
<path fill-rule="evenodd" clip-rule="evenodd" d="M469.629 161C230.845 161 192.181 288.25 202.563 412.072C212.945 535.893 322.463 566.002 444.567 684.149C592.397 827.19 499.062 1150.86 686.772 1221.31C995.834 1337.31 1475 1245.31 1475 1245.31V638.496V161C1475 161 708.414 161 469.629 161Z" stroke="#9C5BF5" stroke-width="4" stroke-linecap="round" stroke-dasharray="190"/>
</svg>
