<svg width="66" height="54" viewBox="0 0 66 54" fill="none" xmlns="http://www.w3.org/2000/svg">
<path fill-rule="evenodd" clip-rule="evenodd" d="M10.6536 45.9945C8.79822 46.4197 7.99037 46.6192 6.73514 47.2875C6.76704 48.4033 6.86313 49.5737 6.99671 50.8193C7.06569 51.4856 8.03145 52.7432 10.4295 51.6266C11.7661 51.0055 11.0962 47.0877 13.4065 45.3827C13.4312 45.3635 13.4456 45.3409 13.4703 45.3214C12.3394 45.6062 11.4092 45.8218 10.6536 45.9945" fill="#FFDA47"/>
<path fill-rule="evenodd" clip-rule="evenodd" d="M60.1502 26.4871C57.9353 26.7661 51.1204 26.8194 47.146 24.1072C47.2426 24.2829 47.3364 24.458 47.4473 24.6313C49.7627 28.2113 53.3272 29.9819 56.1825 30.8572C57.449 30.665 58.7174 30.3659 59.9932 29.8992C62.5539 28.9645 61.5649 26.3107 60.1502 26.4871" fill="#7C58D3"/>
<path fill-rule="evenodd" clip-rule="evenodd" d="M25.3898 6.23301C28.6065 5.07239 32.8364 7.28403 36.5996 11.5714C37.2243 11.3132 37.8513 11.0551 38.4865 10.8001C34.453 6.23301 29.8314 3.88667 26.2746 5.16987C24.93 5.65433 23.8712 6.61732 23.0919 7.93242C23.7126 7.14962 24.4741 6.56267 25.3898 6.23301" fill="#7C58D3"/>
<path fill-rule="evenodd" clip-rule="evenodd" d="M43.8744 34.7142C43.3599 37.7249 42.3534 39.8919 40.8627 40.7449C40.1302 41.1608 39.3259 41.2256 38.4865 40.9896C39.7412 41.5903 40.9449 41.6415 42.0251 41.0242C43.5386 40.1596 44.6026 38.0968 45.2216 35.2612C44.7755 35.0775 44.3274 34.8942 43.8744 34.7142" fill="#8D6EC8"/>
<path fill-rule="evenodd" clip-rule="evenodd" d="M37.1452 7.54971C33.0867 3.14475 28.4944 1.03991 24.8071 2.50733C18.7065 4.94273 17.4281 16.2276 21.9544 27.7105C26.4798 39.1985 35.0988 46.5353 41.2034 44.1005C43.538 43.1688 45.1598 40.9392 46.0252 37.9009C46.3192 36.8639 46.8691 44.456 40.6283 46.7897C33.8915 49.3085 24.4474 41.2517 19.4136 28.4712C14.3725 15.688 15.7057 3.16665 22.3859 0.503279C26.7762 -1.2509 32.3875 1.69563 37.1452 7.54971" fill="#7C58D3"/>
<path fill-rule="evenodd" clip-rule="evenodd" d="M18.411 28.3951C15.0496 19.973 14.8046 11.6771 17.2712 6.75C14.1645 8.44159 11.9113 15.2581 14.2627 24.4747C14.2589 24.4777 14.2552 24.4793 14.2514 24.4823C10.6757 26.4491 8.96027 27.0702 5.28294 26.1938C2.34064 25.4893 1.34779 22.4648 1.1384 22.8773C-1.44607 27.9438 4.32884 31.7853 7.70647 31.5343C7.47365 36.9448 4.12008 39.6017 2.62159 41.6627C0.656822 44.3652 0.281494 48.0215 0.00273347 52.4654C-0.0447684 53.187 0.515879 54.6349 2.54565 53.6894C3.67757 53.1604 3.74819 48.8926 5.79702 47.3056C7.65772 45.8645 8.40306 45.9645 11.9498 44.715C15.9768 43.2977 19.4682 40.7509 19.9588 37.4915C20.2388 37.9227 20.5079 38.3621 20.8089 38.7752C25.7772 45.7519 29.827 44.4126 29.827 44.4126C24.754 41.39 21.0039 34.8942 18.411 28.3951" fill="#FFDA47"/>
<path fill-rule="evenodd" clip-rule="evenodd" d="M59.9712 7.71423C60.4853 6.08715 61.437 2.26163 59.1845 1.04076C58.1924 0.504731 56.8593 2.90186 53.8811 4.57398C55.2652 4.94311 58.2259 5.91627 59.9712 7.71423" fill="#7C58D3"/>
<path fill-rule="evenodd" clip-rule="evenodd" d="M55.894 9.64653C56.4203 9.69435 56.8098 10.1628 56.7639 10.6934C56.7145 11.2236 56.2457 11.6146 55.7173 11.5675C55.1925 11.5189 54.8016 11.0498 54.8468 10.5209C54.8983 9.99071 55.3629 9.59975 55.894 9.64653ZM61.6183 35.2021C58.9437 35.1139 51.6491 33.9675 47.7457 28.1395C43.9987 22.546 48.0763 16.4188 54.6545 18.2609C65.1807 21.2073 65.5366 15.5344 65.411 13.7811C62.2939 12.604 60.1095 12.4014 59.7126 10.3642C58.8559 5.93626 54.8174 5.57578 53.6242 5.14746C53.4409 4.4759 52.4677 1.00026 50.6804 0.964307C49.7391 0.945548 50.5684 4.52687 47.8149 6.92296C39.0983 10.2754 30.5504 14.6746 23.0919 19.1151C23.5412 21.609 24.239 24.1993 25.2321 26.8061C26.2334 29.4363 27.4424 31.8434 28.7704 33.9937C30.6303 33.9212 32.8308 33.9884 35.7046 34.1363C45.3941 34.5937 52.5058 39.8783 61.0199 38.2666C63.541 37.7901 62.9649 35.2462 61.6183 35.2021V35.2021Z" fill="#7C58D3"/>
</svg>
