<svg width="66" height="54" viewBox="0 0 66 54" fill="none" xmlns="http://www.w3.org/2000/svg">
<path fill-rule="evenodd" clip-rule="evenodd" d="M10.7469 45.9944C8.87527 46.4196 8.06035 46.6191 6.79412 47.2874C6.8263 48.4032 6.92324 49.5736 7.05799 50.8191C7.12757 51.4854 8.10178 52.7431 10.5208 51.6264C11.8691 51.0054 11.1933 47.0876 13.5239 45.3826C13.5488 45.3634 13.5633 45.3408 13.5882 45.3213C12.4475 45.6061 11.5091 45.8217 10.7469 45.9944" fill="#FFDA47"/>
<path fill-rule="evenodd" clip-rule="evenodd" d="M60.6769 26.4869C58.4426 26.7658 51.5681 26.8192 47.5588 24.1069C47.6563 24.2827 47.7509 24.4577 47.8628 24.6311C50.1985 28.211 53.7943 29.9817 56.6745 30.8569C57.9521 30.6648 59.2316 30.3656 60.5186 29.8989C63.1017 28.9642 62.104 26.3104 60.6769 26.4869" fill="#7C58D3"/>
<path fill-rule="evenodd" clip-rule="evenodd" d="M25.6122 6.23288C28.857 5.07227 33.124 7.28391 36.9201 11.5713C37.5503 11.3131 38.1827 11.0549 38.8235 10.8C34.7547 6.23288 30.0927 3.88655 26.5047 5.16975C25.1483 5.6542 24.0802 6.6172 23.2941 7.9323C23.9203 7.1495 24.6884 6.56255 25.6122 6.23288" fill="#7C58D3"/>
<path fill-rule="evenodd" clip-rule="evenodd" d="M44.2586 34.7144C43.7396 37.725 42.7243 39.892 41.2206 40.745C40.4817 41.161 39.6703 41.2257 38.8235 40.9897C40.0892 41.5905 41.3035 41.6416 42.3931 41.0243C43.9199 40.1597 44.9932 38.0969 45.6176 35.2613C45.1677 35.0776 44.7155 34.8943 44.2586 34.7144" fill="#8D6EC8"/>
<path fill-rule="evenodd" clip-rule="evenodd" d="M37.4705 7.54971C33.3764 3.14475 28.7439 1.03991 25.0244 2.50733C18.8703 4.94273 17.5807 16.2276 22.1466 27.7105C26.7117 39.1985 35.4062 46.5353 41.5642 44.1005C43.9193 43.1688 45.5553 40.9392 46.4283 37.9009C46.7249 36.8639 47.2796 44.456 40.9841 46.7897C34.1883 49.3085 24.6615 41.2517 19.5836 28.4712C14.4983 15.688 15.8433 3.16665 22.5819 0.503279C27.0107 -1.2509 32.6711 1.69563 37.4705 7.54971" fill="#7C58D3"/>
<path fill-rule="evenodd" clip-rule="evenodd" d="M18.5722 28.3951C15.1814 19.973 14.9342 11.6771 17.4225 6.75C14.2886 8.44159 12.0156 15.2581 14.3876 24.4747C14.3838 24.4777 14.38 24.4793 14.3762 24.4823C10.7691 26.4491 9.03874 27.0702 5.32921 26.1938C2.36114 25.4893 1.35959 22.4648 1.14837 22.8773C-1.45874 27.9438 4.36675 31.7853 7.77396 31.5343C7.5391 36.9448 4.15616 39.6017 2.64454 41.6627C0.662574 44.3652 0.28396 48.0215 0.00275741 52.4654C-0.0451604 53.187 0.520396 54.6349 2.56794 53.6894C3.70977 53.1604 3.78102 48.8926 5.84779 47.3056C7.72478 45.8645 8.47665 45.9645 12.0544 44.715C16.1167 43.2977 19.6387 40.7509 20.1336 37.4915C20.4161 37.9227 20.6875 38.3621 20.9911 38.7752C26.0029 45.7519 30.0882 44.4126 30.0882 44.4126C24.9708 41.39 21.1878 34.8942 18.5722 28.3951" fill="#FFDA47"/>
<path fill-rule="evenodd" clip-rule="evenodd" d="M60.4964 7.71436C61.015 6.08727 61.975 2.26175 59.7028 1.04089C58.7021 0.504853 57.3572 2.90199 54.3529 4.57411C55.7491 4.94324 58.7358 5.9164 60.4964 7.71436" fill="#7C58D3"/>
<path fill-rule="evenodd" clip-rule="evenodd" d="M56.3835 9.64665C56.9144 9.69447 57.3073 10.1629 57.261 10.6935C57.2112 11.2237 56.7382 11.6147 56.2053 11.5676C55.6759 11.5191 55.2815 11.0499 55.3271 10.5211C55.379 9.99083 55.8478 9.59987 56.3835 9.64665ZM62.1579 35.2022C59.4599 35.114 52.1014 33.9676 48.1638 28.1396C44.384 22.5461 48.4973 16.419 55.1332 18.2611C65.7515 21.2074 66.1106 15.5345 65.9838 13.7812C62.8394 12.6041 60.6359 12.4015 60.2356 10.3643C59.3713 5.93638 55.2975 5.5759 54.0938 5.14758C53.9089 4.47603 52.9272 1.00038 51.1242 0.964429C50.1747 0.94567 51.0113 4.52699 48.2336 6.92308C39.4407 10.2755 30.8179 14.6747 23.2941 19.1152C23.7473 21.6091 24.4513 24.1994 25.453 26.8062C26.4631 29.4365 27.6827 31.8435 29.0223 33.9938C30.8985 33.9213 33.1184 33.9885 36.0172 34.1364C45.7916 34.5938 52.9656 39.8784 61.5543 38.2667C64.0975 37.7903 63.5163 35.2463 62.1579 35.2022V35.2022Z" fill="#7C58D3"/>
</svg>
