<svg width="78" height="63" viewBox="0 0 78 63" fill="none" xmlns="http://www.w3.org/2000/svg">
<path fill-rule="evenodd" clip-rule="evenodd" d="M12.548 53.6602C10.3627 54.1564 9.41124 54.3891 7.9328 55.1688C7.97037 56.4706 8.08355 57.836 8.24088 59.2892C8.32213 60.0665 9.45962 61.5338 12.2841 60.231C13.8583 59.5064 13.0693 54.9357 15.7904 52.9465C15.8196 52.9241 15.8365 52.8977 15.8656 52.875C14.5337 53.2073 13.438 53.4588 12.548 53.6602Z" fill="#FFDA47"/>
<path fill-rule="evenodd" clip-rule="evenodd" d="M70.8462 30.9016C68.2375 31.2271 60.2108 31.2893 55.5296 28.125C55.6434 28.33 55.7539 28.5342 55.8845 28.7365C58.6117 32.9131 62.81 34.9789 66.173 36C67.6647 35.7758 69.1587 35.4268 70.6614 34.8824C73.6774 33.7918 72.5125 30.6958 70.8462 30.9016Z" fill="#7C58D3"/>
<path fill-rule="evenodd" clip-rule="evenodd" d="M29.9047 7.27186C33.6934 5.91781 38.6755 8.49805 43.1079 13.5C43.8436 13.1988 44.5821 12.8976 45.3303 12.6002C40.5795 7.27186 35.1361 4.53447 30.9468 6.03154C29.3631 6.59673 28.116 7.72022 27.1982 9.25451C27.9293 8.34125 28.8261 7.65647 29.9047 7.27186Z" fill="#7C58D3"/>
<path fill-rule="evenodd" clip-rule="evenodd" d="M51.6763 40.5C51.0703 44.0124 49.8848 46.5406 48.129 47.5358C47.2663 48.021 46.3189 48.0966 45.3303 47.8212C46.8081 48.5221 48.2259 48.5818 49.4981 47.8616C51.2808 46.8529 52.534 44.4463 53.2631 41.1381C52.7377 40.9238 52.2098 40.7099 51.6763 40.5Z" fill="#8D6EC8"/>
<path fill-rule="evenodd" clip-rule="evenodd" d="M43.7504 8.80799C38.9703 3.66888 33.5613 1.21323 29.2184 2.92522C22.0329 5.76652 20.5272 18.9322 25.8584 32.3289C31.1885 45.7316 41.3402 54.2912 48.5303 51.4506C51.28 50.3636 53.1903 47.7624 54.2096 44.2177C54.5559 43.0079 55.2035 51.8653 47.853 54.5879C39.9182 57.5265 28.7947 48.127 22.8657 33.2164C16.9282 18.3027 18.4985 3.69443 26.3666 0.587159C31.5377 -1.45939 38.1468 1.97824 43.7504 8.80799Z" fill="#7C58D3"/>
<path fill-rule="evenodd" clip-rule="evenodd" d="M21.6848 33.1276C17.7257 23.3018 17.4372 13.6233 20.3424 7.875C16.6833 9.84852 14.0294 17.8011 16.7989 28.5538C16.7945 28.5574 16.7901 28.5591 16.7856 28.5627C12.574 30.8573 10.5536 31.5819 6.22237 30.5594C2.75686 29.7375 1.58745 26.2089 1.34084 26.6902C-1.70322 32.6011 5.09861 37.0829 9.07686 36.79C8.80264 43.1023 4.85273 46.202 3.08776 48.6065C0.773619 51.7594 0.331551 56.025 0.00321954 61.2096C-0.0527292 62.0516 0.607614 63.7407 2.99832 62.6377C4.33152 62.0205 4.41471 57.0414 6.82787 55.1899C9.01944 53.5085 9.89732 53.6252 14.0747 52.1675C18.8178 50.514 22.9301 47.5427 23.508 43.7401C23.8378 44.2431 24.1547 44.7558 24.5092 45.2377C30.361 53.3773 35.131 51.8147 35.131 51.8147C29.1558 48.2883 24.7388 40.7099 21.6848 33.1276Z" fill="#FFDA47"/>
<path fill-rule="evenodd" clip-rule="evenodd" d="M70.6355 9C71.2409 7.10174 72.3619 2.63863 69.7088 1.21429C68.5404 0.588914 66.9702 3.38557 63.4624 5.33638C65.0926 5.76703 68.5798 6.90238 70.6355 9Z" fill="#7C58D3"/>
<path fill-rule="evenodd" clip-rule="evenodd" d="M65.8333 11.2544C66.4531 11.3101 66.9119 11.8567 66.8578 12.4757C66.7996 13.0943 66.2474 13.5504 65.6252 13.4954C65.007 13.4388 64.5466 12.8915 64.5998 12.2745C64.6604 11.6559 65.2077 11.1998 65.8333 11.2544ZM72.5754 41.0691C69.4253 40.9663 60.8334 39.6288 56.2359 32.8295C51.8227 26.3037 56.6253 19.1554 64.3734 21.3045C76.7713 24.7419 77.1905 18.1235 77.0425 16.078C73.3711 14.7047 70.7983 14.4683 70.3309 12.0916C69.3218 6.92569 64.5652 6.50514 63.1599 6.00543C62.944 5.22195 61.7976 1.16703 59.6925 1.12509C58.5839 1.1032 59.5607 5.2814 56.3175 8.07684C46.0509 11.9881 35.9829 17.1204 27.1982 22.301C27.7273 25.2106 28.5492 28.2325 29.7189 31.2738C30.8983 34.3424 32.3223 37.1506 33.8864 39.6594C36.077 39.5748 38.6689 39.6532 42.0537 39.8257C53.4662 40.3593 61.8425 46.5247 71.8706 44.6444C74.8401 44.0885 74.1615 41.1206 72.5754 41.0691Z" fill="#7C58D3"/>
</svg>
