<svg width="95" height="53" viewBox="0 0 95 53" fill="none" xmlns="http://www.w3.org/2000/svg">
<g clip-path="url(#clip0_16_4698)">
<path d="M28.8399 24.9764C28.6375 25.1656 28.2757 24.5057 28.3064 24.9825C28.3585 25.7747 27.8985 26.2992 27.6563 26.9376C27.0951 27.2099 26.7241 28.0836 25.8823 27.5068C25.8501 27.4837 25.6769 27.5852 25.6431 27.6606C25.3396 28.3651 24.6374 28.5758 24.0624 28.9158C22.0937 30.0772 20.0699 29.8018 18.1074 28.9312C17.5799 28.6974 17.0433 28.6358 16.3733 28.2713C16.6784 28.7743 16.8823 29.0635 17.031 29.3788C17.0985 29.5219 17.215 29.7126 17.0832 29.8818C16.936 30.0741 16.7612 29.9249 16.5956 29.891C15.714 29.7064 14.9152 29.3465 14.1348 28.8927C13.1198 28.302 12.462 27.3283 11.5498 26.6361C11.5283 26.6254 11.5068 26.6146 11.4838 26.6023C11.5053 26.6146 11.5268 26.6269 11.5482 26.6392C11.4731 27.133 11.8242 27.5514 11.8365 28.1405C10.2665 27.1991 9.46458 25.7086 8.49098 24.1626C8.48332 24.8671 8.80836 25.3409 8.7501 25.9393C8.28553 25.4178 7.86696 24.9487 7.44992 24.4795C7.45452 24.3688 7.46066 24.258 7.46526 24.1473C7.47906 24.1365 7.49132 24.1257 7.50205 24.115C7.52352 24.0934 7.53579 24.0734 7.54345 24.0534C7.55572 24.015 7.54345 23.978 7.50972 23.9427C7.50512 23.9365 7.49899 23.9304 7.49286 23.9257C7.48212 23.9165 7.46832 23.9057 7.45299 23.895C7.47139 23.8242 7.48979 23.7535 7.50819 23.6827C7.56338 23.4704 7.61705 23.2582 7.68297 23.0474C7.72284 22.9197 7.77037 22.7736 7.66611 22.6936C7.49745 22.5644 7.39013 22.7336 7.2966 22.8428C7.21994 22.9305 7.21228 23.092 7.02369 23.0459C7.19694 21.2061 7.68604 19.5264 9.40018 18.4065C8.95248 18.2804 8.91262 18.1051 9.24839 17.7805C10.0794 16.9806 11.1266 16.4884 12.0067 15.7515C12.7579 15.1239 13.6349 15.3331 14.3111 16.1007C14.4506 16.2607 14.4307 16.5591 14.7005 16.5868C14.9504 16.3222 14.5089 16.1315 14.6423 15.8777C14.7343 15.8408 14.8646 15.8315 14.9152 15.7639C15.5775 14.8532 15.6573 13.7918 15.668 12.7181C15.668 12.572 15.5837 12.369 15.392 12.4536C14.9213 12.6581 15.1099 12.2797 15.0746 12.1121C15.0256 11.8767 15.1544 11.6152 14.9918 11.3783C14.6714 11.4106 14.5579 11.9552 14.2375 11.7706C13.9293 11.5921 14.0137 11.1814 13.9999 10.8523C13.9907 10.6707 14.0796 10.4569 13.9063 10.3016C13.5537 10.4739 13.6319 10.9615 13.2302 11.1215V9.70627C13.1995 9.46169 13.3697 9.32479 13.5322 9.21404C14.3939 8.62181 15.044 7.84039 15.6235 6.97744C16.5189 5.64378 17.1092 4.15323 17.8605 2.74574C18.0736 2.34734 18.2055 1.7382 18.7298 1.70743C19.1867 1.67974 19.4121 1.45208 19.6774 1.18443C19.7816 1.07983 19.8736 0.949079 20.0545 0.959847C21.0205 1.01061 21.9542 0.724497 22.9063 0.667582C23.3862 0.638355 23.8707 0.569135 24.3706 0.87832C24.6113 1.02753 25.1203 1.31518 25.5236 0.955232C25.5696 0.955232 25.614 0.962924 25.6585 0.978306C25.6063 1.39209 25.7014 1.71974 26.0157 2.04584C26.4021 2.44732 26.7271 2.93187 26.5784 3.56255C26.2932 3.61331 25.9391 3.45795 25.7627 3.82712C25.4009 4.5947 25.2552 4.1763 25.0989 3.71483C25.0421 3.55024 24.9425 3.40103 24.8505 3.22106C24.5806 3.72355 24.2525 3.82969 23.8661 3.53947C23.6254 3.82097 23.5457 4.23014 23.1839 4.42857C22.9692 4.29013 23.0627 3.92711 22.7898 3.86558C22.5583 4.05478 22.658 4.39166 22.4157 4.53471C22.1781 4.52395 22.2501 4.16246 22.1045 4.17015C21.6614 4.34397 21.876 5.23 21.1861 4.85928C20.8702 4.69007 20.3597 4.687 20.3612 4.11016C20.0729 4.33013 20.1511 4.57778 20.1327 4.79929C20.0055 6.27908 20.4241 7.62811 21.1048 8.91715C21.2351 9.16327 21.505 9.5063 21.4268 9.66628C21.0925 10.3539 21.6384 10.7354 21.8576 11.2276C21.9849 11.5168 22.2287 11.7614 22.2164 12.0859C21.9496 12.2274 21.8132 11.7706 21.6062 11.9859C22.2563 14.4317 22.8557 16.8329 21.3685 19.1741C21.3333 19.231 21.3563 19.3249 21.3517 19.4018C21.2167 19.3987 21.1125 19.4464 21.0634 19.5818C19.8767 20.5924 17.399 19.9325 16.7413 18.4927C16.4392 17.8343 16.2491 17.1652 16.4561 16.4207C16.7612 15.3239 16.4653 14.1026 17.1598 13.0735C17.3162 12.8427 17.4619 12.4243 17.3576 12.2274C16.824 11.2137 17.4143 10.3631 17.6919 9.48476C17.8421 9.01099 17.8252 8.57259 17.7654 8.10343C17.123 9.27095 16.6063 10.4692 16.6002 11.8383C16.6002 12.3151 16.7167 12.8043 16.5067 13.2734C15.7845 14.8917 15.4702 16.5637 15.8505 18.3281C15.8106 19.1511 16.1372 19.874 16.5036 20.5739C17.7777 22.9982 20.7246 23.3166 22.4111 21.1646C23.0719 20.3201 23.6852 19.3556 23.0796 18.1758C23.0842 18.1512 23.0827 18.1235 23.0934 18.1004C23.1026 18.0835 23.1225 18.0635 23.1409 18.0589C23.4261 17.9851 23.3034 18.3342 23.4752 18.3804C23.8891 18.4927 23.3372 19.7171 24.3537 19.1541C24.3552 19.1541 24.4334 19.328 24.4978 19.3987C24.6174 19.5295 24.5668 19.8202 24.8597 19.7925C24.8827 19.5664 24.9041 19.3433 24.9241 19.1603C25.2491 18.9942 25.3518 19.5925 25.591 19.3356C25.8271 19.0834 25.5006 18.8942 25.3442 18.7111C24.8106 18.0881 25.5496 18.2496 25.8149 18.1097C25.3498 17.88 25.0605 17.5646 24.9471 17.1637C27.1273 17.5559 29.1052 21.946 28.8414 24.9764H28.8399Z" fill="#A683FE"/>
<path d="M51.711 47.5238C51.619 45.8225 51.0762 44.8135 49.3606 44.1197C48.9865 43.969 48.5388 44.0982 48.1677 43.7428C50.302 42.9676 51.1943 41.5078 51.1253 39.3004C51.0747 37.6837 50.4124 36.5316 49.1321 35.6425C47.8963 34.7857 46.4428 34.7549 45.0568 34.6688C43.0222 34.5426 40.9738 34.6057 38.9331 34.6519C37.6161 34.6826 36.6409 35.7778 36.6624 37.0992C36.7375 41.6308 36.6885 46.164 36.69 50.6972C36.69 51.9416 37.6467 52.9369 38.8718 52.943C41.2452 52.9538 43.6186 52.9261 45.9936 52.9523C46.7709 52.96 47.49 52.8031 48.2106 52.5293C50.6623 51.594 51.8459 49.9881 51.711 47.5238ZM41.7573 39.3742C42.2924 39.3866 42.8275 39.3773 43.5113 39.3773C44.0479 39.4035 44.7425 39.3066 45.414 39.5019C46.0733 39.6957 46.5456 40.0357 46.5348 40.8386C46.5226 41.6431 46.1009 42.0892 45.391 42.2554C44.1629 42.543 42.9072 42.4276 41.6607 42.4353C41.3387 42.4369 41.3019 42.2261 41.3035 41.9723C41.3065 41.2555 41.3127 40.5402 41.3004 39.8249C41.2958 39.4942 41.4384 39.3681 41.7573 39.3742ZM45.7437 48.1899C45.0691 48.3914 44.3822 48.296 43.7014 48.3176C43.6493 48.3176 43.5972 48.3222 43.545 48.3253H43.5359C43.5113 48.3253 43.4853 48.3283 43.4607 48.3299C43.3565 48.3206 43.2476 48.3206 43.1357 48.3268C43.0774 48.3299 43.0176 48.3345 42.9594 48.3391C42.8996 48.3437 42.8398 48.3499 42.7815 48.356C42.711 48.3637 42.6404 48.3714 42.5715 48.3776C42.1314 48.4222 41.7144 48.4422 41.4599 48.196C40.9938 47.7407 41.3326 46.8347 41.3111 46.1286C41.2805 45.1303 41.3035 45.1149 42.2817 45.1319C43.3764 45.1519 44.4757 45.0457 45.5689 45.2272C46.4704 45.3764 46.9365 45.7825 46.9687 46.4732C47.0147 47.5315 46.751 47.8884 45.7437 48.1899Z" fill="#9C5BF5"/>
<path d="M31.3268 6.91748C31.0846 6.67598 30.6476 6.67905 30.3563 6.94363C29.4041 7.80966 28.3355 7.37588 27.2883 7.26974C27.0231 7.24205 26.9495 7.059 27.0537 6.92363C27.6225 6.18989 27.388 5.32541 27.5167 4.51783C27.6547 3.65488 27.4784 2.97652 26.8529 2.37814C26.6888 2.22124 26.2733 1.97666 26.4726 1.82284C26.8989 1.49365 26.4558 1.44904 26.3791 1.3106C26.2273 1.0368 25.8777 1.13832 25.6585 0.978344C25.6064 1.39213 25.7014 1.71977 26.0157 2.04588C26.4021 2.44736 26.7271 2.93191 26.5784 3.56258C27.4278 4.65166 27.1196 5.79457 26.6535 6.89595C26.5125 7.22974 26.0909 7.31896 25.6615 7.20821C25.1111 7.06823 24.7125 6.76058 24.4978 6.27142C24.4534 6.17144 24.7907 5.90071 24.9486 5.7115C24.4948 5.50999 24.3736 5.80995 23.8155 5.58075C23.1486 5.30848 23.0827 5.78995 22.7362 5.92224C22.3452 6.07145 22.5246 5.57921 22.3038 5.41155C22.2609 6.13144 21.0557 5.973 21.3241 6.8698C21.0542 6.96517 21.0956 6.56061 20.858 6.66983C20.8411 6.70367 20.8012 6.74674 20.8074 6.78058C20.9668 7.61738 21.3992 8.32958 21.8392 9.03717C22.3406 9.84783 22.5936 10.6739 22.707 11.6722C22.842 12.8351 22.8021 14.0118 22.9876 15.1809C23.2452 16.8022 22.822 18.3558 21.3517 19.4018C21.3103 19.551 21.1769 19.5495 21.0634 19.5818C19.8767 20.5924 17.399 19.9325 16.7413 18.4927C16.4392 17.8344 16.2491 17.1652 16.4561 16.4207C16.7612 15.324 16.4653 14.1026 17.1598 13.0735C17.3162 12.8428 17.4619 12.4244 17.3576 12.2275C16.8241 11.2138 17.4143 10.3631 17.6919 9.4848C17.8421 9.01102 17.8252 8.57263 17.7655 8.10346C17.123 9.27099 16.6063 10.4693 16.6002 11.8383C16.6002 12.3152 16.7167 12.8043 16.5067 13.2735C15.7845 14.8917 15.4702 16.5638 15.8505 18.3281C16.499 19.7033 18.1074 20.7647 19.5118 20.6278C21.1017 20.4724 22.543 19.7602 23.0796 18.1758C23.0842 18.1512 23.0827 18.1235 23.0934 18.1005C23.1026 18.0836 23.1225 18.0636 23.1409 18.0589C23.4261 17.9851 23.3035 18.3343 23.4752 18.3804C23.8891 18.4927 23.3372 19.7172 24.3537 19.1542C24.3552 19.1542 24.4334 19.328 24.4978 19.3987C24.6174 19.5295 24.5668 19.8202 24.8597 19.7925C24.8827 19.5664 24.9041 19.3434 24.9241 19.1603C25.2491 18.9942 25.3518 19.5926 25.591 19.3357C25.8271 19.0834 25.5006 18.8942 25.3442 18.7112C24.8106 18.0882 25.5496 18.2497 25.8149 18.1097C25.3498 17.88 25.0605 17.5647 24.9471 17.1637C27.1273 17.5559 29.1052 21.9461 28.8415 24.9764C28.6391 25.1656 28.2772 24.5057 28.3079 24.9826C28.36 25.7747 27.9001 26.2993 27.6578 26.9377C28.0672 27.8406 27.6149 28.6389 27.3358 29.4465C26.744 31.1663 25.6278 32.403 23.9137 33.066C23.7374 33.1337 23.5825 33.166 23.469 33.0875C24.2142 31.7446 26.0096 31.1309 26.0173 29.2727C25.8409 30.1449 24.9961 30.5079 24.4595 30.9924C24.0057 31.4032 23.6653 31.9077 23.2207 32.3153C22.543 32.9352 21.7886 33.369 20.8794 33.4521C18.9568 33.6274 17.0356 33.7459 15.3338 32.5445C15.1912 32.443 15.0302 32.3553 14.9152 32.2277C14.5963 31.8723 14.3065 31.4831 13.6886 31.5985C14.0045 32.1661 14.4568 32.5861 14.9781 32.9445C15.1007 33.0291 15.2678 33.1137 15.1896 33.2983C15.1114 33.4767 14.9213 33.4075 14.7849 33.3983C11.2416 33.1737 8.40053 30.8678 7.59099 27.1976C7.39473 26.3085 7.06049 25.4071 7.45146 24.4795C7.45606 24.3688 7.4622 24.258 7.4668 24.1473C7.4622 24.0627 7.4576 23.9781 7.453 23.895C7.47293 23.8243 7.49133 23.7535 7.50973 23.6827C7.56492 23.4705 7.61858 23.2582 7.68451 23.0474C7.72438 22.9198 7.77191 22.7736 7.66765 22.6937C7.49899 22.5644 7.39167 22.7336 7.29814 22.8429C7.22148 22.9305 7.21381 23.0921 7.02523 23.0459C7.19848 21.2062 7.68758 19.5264 9.40172 18.4066C8.95402 18.2804 8.91416 18.1051 9.24993 17.7805C10.0809 16.9806 11.1281 16.4884 12.0082 15.7516C12.7595 15.124 13.6365 15.3332 14.3126 16.1008C14.4522 16.2607 14.4322 16.5592 14.7021 16.5868C14.952 16.3223 14.5104 16.1315 14.6438 15.8777C14.5196 15.5778 14.4062 15.2717 14.2697 14.9779C14.19 14.8056 13.1106 14.2057 12.8852 14.2287C12.7457 14.2441 12.7763 14.1395 12.7748 14.1134C12.7349 13.2889 11.7322 12.6505 12.3056 11.7014C12.3501 11.6276 12.324 11.4984 12.3056 11.3984C12.1263 10.3216 12.2351 10.1201 13.2302 9.70631C13.1995 9.46173 13.3697 9.32482 13.5322 9.21407C14.3939 8.62185 15.044 7.84042 15.6235 6.97747C16.5189 5.64382 17.1092 4.15327 17.8605 2.74578C18.0736 2.34738 18.2055 1.73823 18.7298 1.70747C19.1867 1.67978 19.4121 1.45212 19.6774 1.18447C19.7816 1.07987 19.8736 0.949117 20.0546 0.959885C21.0205 1.01065 21.9542 0.724535 22.9063 0.66762C23.3862 0.638393 23.8707 0.569172 24.3706 0.878358C24.6113 1.02757 25.1203 1.31522 25.5236 0.95527C25.3258 0.656852 24.9164 0.747608 24.6987 0.521487C24.3445 0.156925 24.3614 0.14308 23.7757 0.287675C23.6546 0.31844 23.4552 0.379969 23.4154 0.330746C22.9355 -0.28455 22.359 0.172307 21.8546 0.218454C21.4023 0.258448 20.9837 0.52764 20.5896 0.0554009C20.5191 -0.0292022 20.2171 -0.00920511 20.0776 0.0661686C19.2527 0.516872 18.391 0.932197 17.836 1.73977C17.2012 2.66118 16.7597 3.68718 16.3012 4.70088C15.5929 6.26988 14.5794 7.56969 13.2087 8.62339C12.5602 9.12331 12.0067 9.73246 11.677 10.5554C11.1496 11.8798 11.4992 13.0566 12.1063 14.198C12.3501 14.6548 12.2382 14.8379 11.8702 15.0978C10.1668 16.2961 8.51552 17.4929 7.41007 19.3926C6.50393 20.9478 6.0179 22.5629 6.20035 24.255C6.46867 26.73 7.4116 29.0158 8.95402 31.0124C9.07055 31.1632 9.2806 31.2539 9.2208 31.517C9.01688 32.4292 8.79763 33.3336 8.39899 34.1889C7.35027 36.447 5.30189 37.7745 3.58621 39.4081C2.56202 40.3834 1.67735 41.4509 1.13459 42.7523C0.418571 44.4643 0.605624 46.2933 1.04259 47.9731C1.39063 49.3144 1.26031 50.2558 0.34191 51.2218C-0.0183975 51.6002 -0.0935255 52.2109 0.111926 52.7108C0.29898 53.1646 0.795744 52.937 1.14992 52.9385C5.87071 52.9539 10.5915 52.9539 15.3123 52.9431C15.5346 52.9431 15.8735 53.12 15.9746 52.7862C16.0728 52.4632 15.7799 52.3078 15.5392 52.1678C15.4702 52.3063 15.5852 52.6801 15.3951 52.577C14.7235 52.2186 14.1041 52.9508 13.4586 52.5432C13.6855 52.2371 13.9431 51.891 13.8634 51.4372C14.4491 51.3772 14.6392 52.1525 15.2249 52.0079C14.8661 51.3664 14.1762 51.2387 13.6012 50.9172C13.1842 50.6834 12.3639 50.8003 12.3808 50.3143C12.4007 49.6913 11.7537 49.4698 11.8441 48.8775C12.0573 47.4962 12.4544 46.2379 13.4985 45.2258C15.1053 43.6721 16.8379 42.1693 16.7643 39.622C16.7581 39.3958 16.916 39.4081 17.0755 39.4005C17.3147 39.3897 17.4021 39.5081 17.3714 39.725C17.3285 40.0204 17.2166 40.3157 17.2304 40.608C17.2794 41.7817 17.0188 42.923 16.9053 44.0782C16.8317 44.8181 16.7505 45.5657 15.7508 45.7042C15.4227 45.7503 15.1605 46.061 15.0685 46.4302C15.0133 46.6533 14.8876 46.7471 14.6515 46.7902C13.5736 46.9809 13.1796 47.7562 13.7315 48.6837C13.9125 48.9852 13.8419 49.1421 13.7622 49.4328C13.6349 49.8974 13.4786 50.4835 14.1148 50.765C14.5901 50.9742 15.1666 50.9619 15.4733 51.5125C15.5331 51.6202 15.8551 51.6202 15.9685 51.4895C16.6569 50.6896 16.7106 51.3541 16.9329 51.8525C17.123 52.2786 17.189 52.9108 17.8283 52.9293C19.0917 52.9631 20.3566 52.9385 21.7733 52.9385C21.3532 52.4647 21.1968 51.9771 20.7614 51.7002C20.7338 51.2726 20.2569 51.0695 20.214 50.6942C21.0603 50.2604 21.5479 51.2972 22.3483 51.1634C22.4464 51.148 22.6641 51.814 22.8144 52.1694C22.914 52.4063 23.0566 52.6016 23.2651 52.7477C23.3019 52.7001 23.3387 52.6508 23.374 52.6032C23.1624 52.0817 22.9508 51.5587 22.7208 50.9895C23.2605 50.9142 23.8661 51.4679 24.2847 50.7942C24.2403 50.7511 24.1973 50.7096 24.1529 50.6681C23.7174 51.1141 23.2513 50.8296 22.9799 50.5511C22.7101 50.2743 22.6242 50.3081 22.4173 50.5373C22.1459 50.8357 21.8638 51.1049 21.6062 50.5142C21.482 50.2327 21.2167 50.3312 21.0006 50.3204C20.1389 50.2804 19.8997 49.8759 20.3643 49.1698C20.5575 48.8791 20.7108 48.6637 20.3244 48.4284C19.9656 48.2084 19.8905 47.8362 20.0239 47.4962C20.1879 47.0809 20.6249 46.9455 21.0128 47.027C21.3823 47.104 21.4268 46.9778 21.505 46.6825C21.7089 45.9087 22.382 45.5811 23.0719 45.9595C23.3356 46.1041 23.4292 46.1349 23.6852 45.941C24.2709 45.4965 24.8811 45.7118 25.4377 46.058C25.8609 46.3195 25.5803 46.6825 25.499 47.0255C25.8609 47.167 26.2518 47.0286 26.5999 47.2393C27.1948 47.5993 27.3052 48.1669 26.7317 48.5161C26.2426 48.8129 25.9406 49.0391 26.2288 49.6682C26.3224 49.8682 26.1506 50.1927 26.0985 50.4604C26.1307 50.5065 26.1629 50.5527 26.1936 50.5988C26.5033 50.3604 26.6428 49.9174 26.5386 49.6759C26.3147 49.1637 26.6704 49.0191 26.9219 48.8299C27.736 48.2223 27.6471 47.1332 26.5018 46.8163C26.2595 46.7486 25.9713 46.7625 25.9621 46.4087C25.9437 45.658 25.2874 45.4842 24.8213 45.4442C24.2265 45.3934 24.277 45.1289 24.2678 44.7289C24.2019 41.697 24.4273 38.6775 24.5592 35.6518C24.5898 34.9426 24.806 34.252 24.7324 33.5382C24.714 33.3598 24.8152 33.306 24.9624 33.2152C26.557 32.2323 27.6394 30.8602 28.1086 29.0189C28.3462 28.0883 28.6161 27.1699 29.0009 26.2793C29.2723 25.6486 29.3796 24.921 29.3168 24.2227C29.1772 22.6629 28.8767 21.1262 28.2374 19.6879C28.0794 19.3326 28.1806 19.1788 28.3631 18.8973C29.188 17.6236 29.907 15.2409 28.5103 13.7073C28.0902 13.2458 27.7329 12.6951 27.4539 12.0983C26.7501 10.5877 26.7501 10.5523 28.3171 10.1816C29.5759 9.88321 30.5541 9.151 31.2869 8.105C31.5353 7.75121 31.6718 7.26051 31.3268 6.91748ZM10.4688 51.834C10.4106 52.377 10.0518 52.6201 9.52745 52.6232C9.17327 52.6262 8.8191 52.6262 8.46492 52.6262C8.00342 52.6262 7.53886 52.6262 7.07582 52.6262C6.89184 52.6262 6.70785 52.6247 6.52386 52.6232C6.49473 52.6247 6.4656 52.6232 6.438 52.6232C6.33681 52.6216 6.23562 52.6201 6.13289 52.6201C5.97957 52.6185 5.82625 52.617 5.67292 52.617C5.37395 52.617 5.0765 52.6216 4.77752 52.6355C4.12897 52.6647 3.76713 52.2678 3.77326 51.7541C3.7794 51.311 4.06764 50.8203 4.72846 50.9326C5.0581 50.988 5.23442 50.9265 5.29729 50.4804C5.39388 49.8051 6.34754 49.4498 6.96696 49.8359C7.27821 50.0312 7.33647 50.0158 7.49439 49.7005C7.73664 49.2144 8.13221 49.4159 8.46492 49.6067C8.77617 49.7851 9.26987 49.9282 9.04142 50.4235C8.7639 51.0203 9.14108 50.9372 9.47685 50.9357C10.084 50.9326 10.5486 51.1034 10.4688 51.8356V51.834ZM11.8165 50.8434C12.1692 51.0019 12.4973 50.9111 12.8116 50.9372C13.3022 50.9772 13.4326 51.3849 13.4602 51.7325C13.4924 52.1278 13.1643 52.4678 12.8254 52.5785C12.462 52.6985 12.485 52.0802 12.1385 52.0248L12.1355 52.0279C12.1355 52.0279 12.1508 52.0386 12.1585 52.0448C12.1416 52.0694 12.1263 52.0909 12.1109 52.1078C12.0864 52.1386 12.0619 52.1601 12.0373 52.1725C12.0312 52.1771 12.0251 52.1801 12.0189 52.1817C12.0143 52.1863 12.0082 52.1878 12.0021 52.1894H12.0005C11.999 52.2032 11.999 52.2155 12.0005 52.2278C12.0021 52.2309 12.0021 52.2355 12.0036 52.2386C12.0067 52.2524 12.0143 52.2663 12.0235 52.2801C12.0281 52.2878 12.0327 52.294 12.0389 52.3001C12.0649 52.334 12.1033 52.3632 12.1339 52.394C12.1401 52.3986 12.1462 52.4032 12.1508 52.4109C12.1569 52.414 12.1615 52.4201 12.1661 52.4263C12.1784 52.4416 12.1891 52.4586 12.1937 52.4739C12.1953 52.4801 12.1968 52.4863 12.1968 52.4939C12.1968 52.5216 12.1799 52.5493 12.1385 52.5801C11.9254 52.7385 11.7981 52.457 11.6464 52.3417C11.6034 52.3955 11.5605 52.4509 11.5176 52.5047C11.2217 52.7308 10.9012 52.6032 10.5516 52.6001C10.7111 52.2524 10.8092 51.9294 10.8123 51.5541C11.1634 51.6095 11.3673 51.8387 11.6203 51.9756C11.7246 52.0309 11.8411 52.2186 11.9806 52.1955C11.9867 52.1924 11.9944 52.1909 12.0005 52.1894C12.0021 52.1848 12.0036 52.1801 12.0051 52.1755C12.0251 52.1186 12.0895 52.0771 12.1355 52.0279C11.8395 51.811 11.5513 51.5772 11.2523 51.3633C11.2033 51.3264 11.1527 51.2926 11.1021 51.2572C11.0515 51.2234 11.0009 51.1895 10.9503 51.1557C10.9242 51.1372 10.8981 51.1218 10.8705 51.1049C10.8445 51.088 10.8169 51.0711 10.7908 51.0557C10.7602 51.0357 10.728 51.0172 10.6958 51.0003C10.659 50.9788 10.6222 50.9588 10.5854 50.9403C10.5424 50.9172 10.4995 50.8942 10.455 50.8742C10.406 50.8511 10.3569 50.828 10.3079 50.808C10.2818 50.7973 10.2557 50.7865 10.2297 50.7757C10.1929 50.7603 10.1561 50.7465 10.1177 50.7342C10.1131 50.7327 10.1085 50.7311 10.1039 50.7296C9.99355 50.6911 9.88009 50.6588 9.76356 50.6342C9.2622 50.5281 9.51671 50.0851 9.3266 49.8559C9.2438 49.7574 9.23613 49.6436 9.33426 49.6021C9.60871 49.4882 9.80496 49.6959 10.015 49.822C10.0978 49.8728 10.1668 49.9451 10.2849 50.0435C10.5302 49.2498 11.0683 49.3329 11.6111 49.5897C12.1968 49.8651 12.0864 50.3419 11.8165 50.8434ZM16.3012 40.1988C16.1479 41.4478 15.5377 42.5077 14.6377 43.4291C13.612 44.4782 12.4421 45.415 11.8993 46.8532C11.7491 47.2501 11.6678 47.6946 11.5007 48.05C11.3443 48.3868 11.7828 49.1375 10.9135 49.0929C10.4903 49.0714 10.1346 49.6297 9.65317 49.2806C9.34499 49.0575 9.06441 49.5328 8.73784 49.2898C8.53545 49.139 8.33 49.1883 8.40513 48.7345C8.7961 46.3502 10.4642 45.0319 12.2826 43.8183C13.2363 43.1814 14.2927 42.6477 14.561 41.3786C14.6545 40.9387 14.7389 40.4895 14.7603 40.0419C14.8079 39.0605 15.5177 39.6912 15.8995 39.5758C16.4039 39.422 16.2844 39.8696 16.3012 40.1988ZM16.8133 50.8357C16.4285 50.305 16.3043 50.6911 16.1111 50.9003C15.8305 51.2003 15.5913 51.431 15.415 50.8265C15.3184 50.4973 15.0378 50.6419 14.8355 50.6311C13.9784 50.585 13.7131 50.1235 14.17 49.4021C14.3663 49.0914 14.6346 48.9022 14.1056 48.5899C13.7484 48.3776 13.8159 47.8915 13.9646 47.4685C14.121 47.0317 14.443 47.0778 14.768 47.0932C15.1268 47.1086 15.3399 47.0963 15.4043 46.5994C15.4963 45.8811 16.4055 45.5734 17.0341 45.9595C17.0663 45.9795 17.0954 45.998 17.1215 46.0133C17.1414 46.0241 17.1598 46.0349 17.1767 46.0441C17.192 46.0533 17.2074 46.061 17.2227 46.0672C17.2319 46.0718 17.2411 46.0749 17.2503 46.0779C17.258 46.081 17.2641 46.0826 17.2702 46.0841C17.2794 46.0856 17.2886 46.0872 17.2978 46.0872C17.3055 46.0872 17.3132 46.0856 17.3208 46.0841C17.3285 46.0826 17.3361 46.0795 17.3423 46.0749C17.3499 46.0703 17.3576 46.0641 17.3637 46.058C17.3699 46.0518 17.376 46.0456 17.3821 46.038C17.3837 46.0364 17.3852 46.0349 17.3852 46.0333C17.3913 46.0257 17.3975 46.0164 17.4021 46.0072C17.4358 45.9487 17.4726 45.8549 17.5247 45.7165H17.5155C17.5155 45.7165 17.5247 45.7042 17.5293 45.6995C16.8195 45.4534 17.2196 44.8551 17.2595 44.4997C17.4373 42.8938 17.7777 41.3063 17.9678 39.7004C18.0491 39.0021 18.5827 39.2389 18.9031 39.1251C19.1821 39.0267 19.5225 38.9882 19.7602 39.5174C20.2953 40.7018 19.9825 41.8016 19.7418 42.9399C19.6069 43.5722 19.4045 44.2075 19.3907 44.8458C19.3784 45.4719 19.0472 45.4657 18.6716 45.3442C18.5367 45.2996 18.4109 45.2781 18.2959 45.2781C18.2714 45.2781 18.2469 45.2796 18.2239 45.2811C18.1978 45.2827 18.1718 45.2873 18.1472 45.2919C18.1212 45.295 18.0966 45.3011 18.0721 45.3073C18.023 45.3211 17.9755 45.3396 17.928 45.3627C17.9203 45.3673 17.9096 45.3704 17.9019 45.375C17.8789 45.3873 17.8559 45.4011 17.8329 45.4165C17.8176 45.4257 17.8022 45.4365 17.7884 45.4473C17.7685 45.4611 17.7501 45.475 17.7317 45.4903C17.7271 45.4934 17.7225 45.498 17.7195 45.5011C17.698 45.5196 17.6765 45.5396 17.6551 45.5611C17.6428 45.5719 17.6321 45.5826 17.6213 45.5949C17.5907 45.6272 17.56 45.6626 17.5293 45.6995H17.5309C17.5309 45.6995 17.5263 45.7118 17.5247 45.7165C17.9387 45.7134 18.3527 45.7211 18.7666 45.7026C19.0764 45.6888 19.4382 45.7995 19.4597 46.0487C19.5057 46.5656 19.5946 47.0717 19.6743 47.5808C19.6866 47.6546 19.6437 47.7531 19.6774 47.8069C20.1312 48.5268 19.8123 49.3021 19.8874 50.0405C19.9518 50.6757 19.6145 50.645 19.2818 50.8265C18.8126 51.0849 18.6425 50.7865 18.4631 50.4681C18.4186 50.3881 18.4309 50.2773 18.4186 50.1912C18.1212 50.1297 18.1074 50.385 18.0476 50.5112C17.7547 51.1157 17.1736 51.3326 16.8133 50.8357ZM20.7537 51.6956C20.4685 52.0925 21.0772 52.1878 21.0144 52.5816C20.0193 52.5801 19.0166 52.8093 18 52.6585C17.3913 52.5678 17.4281 51.9786 17.2426 51.5664C17.6551 51.3956 18.0644 51.2157 18.4845 51.0634C18.5351 51.0449 18.6532 51.2326 18.7176 51.2203C19.4735 51.0649 20.168 51.1403 20.7537 51.6956ZM21.1769 46.5563C20.8104 46.6086 20.4026 46.9409 20.1067 46.7471C19.6314 46.4364 19.6099 45.7795 19.7126 45.3196C19.935 44.3197 20.1082 43.2907 20.6065 42.1877C20.9929 43.3168 21.2919 44.3074 21.6736 45.2658C21.9266 45.9026 21.0925 46.0349 21.1769 46.5563ZM24.1084 34.2381C23.7144 36.8208 23.8631 39.4251 23.7849 42.0185C23.7926 43.0661 23.8002 44.1136 23.8109 45.1612C23.8155 45.6057 23.7021 45.6995 23.1854 45.678C22.2256 45.6396 22.0646 45.0658 21.8699 44.329C21.4268 42.6584 20.9377 40.9972 20.4087 39.3512C20.2615 38.8928 20.3137 38.7667 20.7675 38.6067C21.6353 38.2975 22.4081 37.713 22.5844 36.3917C21.2275 38.4714 19.1239 38.6652 17.0556 38.9436C16.8363 38.9728 16.6232 39.0774 16.4039 39.0867C15.8949 39.1082 15.3506 39.2051 14.8845 39.062C14.3602 38.9005 14.5518 38.2222 14.3157 37.8145C14.0551 37.3654 13.8297 36.8947 13.4694 36.4809C13.2547 36.7824 13.6089 36.9962 13.5491 37.2531C13.6993 37.3069 13.6932 37.4269 13.6717 37.5515C13.6978 37.5961 13.7055 37.6438 13.6978 37.6946C14.1792 39.1036 14.4276 40.5034 13.7208 41.9324C13.2915 42.8 12.3992 43.0307 11.7077 43.5291C10.2496 44.5782 8.86509 45.6703 8.18588 47.4224C8.04329 47.7915 7.85777 48.1607 7.88843 48.5484C7.9191 48.9529 7.73204 49.1298 7.42233 49.2667C7.30427 49.5559 7.02523 49.4621 6.9087 49.3729C6.5484 49.0975 6.21875 49.2821 5.91211 49.4036C5.41074 49.6051 5.17923 50.0528 4.88332 50.4958C4.67786 50.8019 3.90359 50.6434 3.57854 51.1541C3.49268 51.288 3.38996 51.4018 3.42675 51.5602C3.61074 52.354 3.12624 52.357 2.56968 52.3232C2.13731 52.297 1.70035 52.2955 1.26798 52.3247C0.729815 52.3601 0.737481 52.0755 0.887737 51.7156C1.15912 51.0634 1.64515 50.5465 2.02385 49.962C2.10205 49.842 2.26764 49.7743 2.14805 49.5821C1.54089 48.6022 1.65741 47.4593 1.4167 46.3964C1.08552 44.9289 1.25418 43.5552 2.05759 42.3354C3.02965 40.8602 4.13357 39.4758 5.56407 38.3883C7.67225 36.787 9.07361 34.7211 9.57038 32.0815C9.58264 32.0154 9.61331 31.9508 9.65624 31.8277C10.7755 32.7014 11.9515 33.3844 13.339 33.6259C13.4816 33.6505 13.6257 33.7167 13.776 33.7105C16.3932 33.5998 18.9813 34.1551 21.6031 34.0397C22.3621 34.0074 23.0597 33.6582 23.8217 33.732C24.3108 33.6705 24.1345 34.0628 24.1084 34.2381ZM28.4106 14.3103C28.7065 14.581 28.8399 14.9855 28.6345 15.4239C28.5133 15.6824 28.5379 15.9454 28.6559 16.2269C28.7234 16.3853 28.984 16.8099 28.3876 16.6684C28.2435 16.6345 28.2512 16.8237 28.3217 16.9483C28.4597 17.1868 28.403 17.4421 28.3754 17.8005C28.2343 17.5898 28.1423 17.4513 27.9629 17.1821C27.9721 17.7974 27.874 18.2681 27.6869 18.8511C26.9295 17.7528 25.9667 16.9822 24.9348 16.2654C24.438 15.9193 24.6849 15.164 24.6251 14.6241C24.5055 13.5227 25.0406 11.583 26.4742 10.8169C26.9648 12.0675 27.3711 13.3581 28.4106 14.3103ZM27.2975 9.83706C26.9249 9.94781 26.4282 9.60324 26.1828 9.20946C26.1138 9.09717 26.1905 8.90027 25.9529 8.9618C25.7428 9.0141 25.6002 9.18638 25.5205 9.36482C25.4469 9.52941 25.6263 9.69092 25.7489 9.69862C26.0648 9.71707 26.2396 9.88167 26.3914 10.137C24.53 11.3445 24.0762 13.0535 24.3813 15.1686C24.5193 16.1315 24.5852 17.1314 24.6159 18.122C24.6297 18.5635 24.3169 18.3204 24.2633 18.3066C23.7711 18.1805 23.4491 17.3883 23.4721 16.8407C23.5273 15.4193 23.5104 14.0011 23.4384 12.572C23.3479 10.7862 22.477 9.40635 21.6798 7.9481C21.4667 7.56046 21.9159 6.48677 22.3989 6.37141C22.8527 6.26527 23.3157 6.10991 23.8002 6.18682C23.9167 6.20682 24.0655 6.16221 24.1007 6.3391C24.3368 7.51124 25.3656 7.4051 26.1675 7.5497C27.25 7.74659 28.3462 7.96041 29.4578 7.86965C29.7967 7.84196 29.8994 8.19576 30.2582 8.22037C29.4609 9.18177 28.3631 9.52172 27.2975 9.83706Z" fill="#030303"/>
<path d="M50.512 18.1973C49.7362 15.2701 47.4164 13.9933 44.5432 13.8749C42.6834 13.7964 40.8174 13.8503 38.9546 13.8626C37.5241 13.8734 36.6915 14.7179 36.69 16.1376C36.6869 18.4419 36.6885 20.7462 36.6885 23.0505C36.6885 25.3548 36.6839 27.8129 36.6915 30.1941C36.6946 31.2247 37.5747 32.3338 38.4747 32.4768C39.5265 32.6445 40.7975 31.8815 41.1333 30.8894C41.4629 29.9172 41.2897 28.9143 41.2835 27.9282C41.2789 27.2776 41.4108 26.9945 42.1207 27.0591C42.829 27.1253 43.5497 27.0945 44.2641 27.0699C46.2175 27.0053 47.9531 26.4131 49.2701 24.881C50.9735 22.8982 51.1437 20.5832 50.512 18.1973ZM44.6321 22.486C43.6938 22.6659 42.7508 22.5675 41.8094 22.6075C41.3924 22.6244 41.2835 22.4321 41.2989 22.0537C41.3188 21.543 41.3035 21.0308 41.3035 20.5185C41.3035 19.1905 41.9612 18.526 43.2767 18.525C43.7352 18.525 44.1905 18.5373 44.6459 18.6219C45.8418 18.8403 46.3432 19.3818 46.3462 20.497C46.3478 21.6199 45.7759 22.2675 44.6321 22.486Z" fill="#9C5BF5"/>
<path d="M66.6032 27.0684C66.295 25.8701 65.2585 25.2364 64.1209 25.7071C63.687 25.887 63.3267 26.1793 63.0016 26.4993C62.2335 27.2576 61.3274 27.7329 60.2802 27.9575C59.2897 28.1698 58.4188 27.9221 57.6599 27.2638C57.4698 27.0992 57.2245 26.8869 57.2797 26.6362C57.341 26.3562 57.6814 26.3962 57.9175 26.3439C59.9705 25.8793 62.0296 25.4471 64.0734 24.9487C65.8826 24.5088 66.3226 23.672 65.8243 21.8199C65.0546 18.9588 63.2393 17.719 60.11 17.719C59.4522 17.7359 58.8006 17.7713 58.1429 17.8482C54.7943 18.2405 52.2078 21.2862 52.2967 24.4349C52.3335 25.704 52.5941 26.873 52.982 28.0606C53.7302 30.3418 55.2865 31.8277 57.548 32.2876C60.6221 32.9137 63.4033 32.0077 65.7093 29.868C66.4759 29.1573 66.9068 28.2421 66.6032 27.0684ZM56.6679 23.6058C57.0052 22.3691 58.3376 21.5415 59.6117 21.7246C60.3737 21.6077 61.01 21.9045 61.4914 22.5598C61.7168 22.8644 61.772 23.1167 61.3044 23.2259C59.9168 23.552 58.5277 23.8704 57.1417 24.2073C56.5146 24.3596 56.5682 23.9735 56.6679 23.6058Z" fill="#9C5BF5"/>
<path d="M66.6983 43.0645C66.0773 40.7602 64.6606 39.1666 62.3194 38.4867C60.5286 37.9653 58.75 38.0976 57.0052 38.6544C55.4689 39.1466 54.2945 40.1234 53.5723 41.5878C52.5819 43.5968 52.4577 45.7057 53.0541 47.83C54.04 51.351 56.0853 52.8954 59.6776 52.9477C62.9311 53.1631 65.5989 51.1695 66.3993 48.9314C67.0862 47.0086 67.2287 45.0381 66.6983 43.0645ZM59.9091 48.4884C57.7412 48.5745 56.8964 47.0363 56.9163 45.6272C56.9439 43.5214 57.6982 42.7876 59.9352 42.7846C62.2059 42.7815 62.7517 43.4045 62.7533 45.9949C62.7548 47.5685 61.7168 48.4161 59.9091 48.4884Z" fill="#9C5BF5"/>
<path d="M81.9262 43.2261C81.9232 45.6334 81.9232 48.0423 81.9262 50.4496C81.9278 51.7679 81.2301 52.7754 79.8318 52.9846C78.8 53.14 77.4768 52.134 77.4676 51.088C77.4477 49.0129 77.4553 46.9378 77.4492 44.8627C77.4446 43.5275 76.8881 42.8107 75.8424 42.7846C74.2248 42.7446 73.2313 43.4876 73.2022 44.8504C73.1608 46.7209 73.1807 48.5914 73.1915 50.4619C73.1976 51.6018 72.7054 52.3524 71.6444 52.82C70.6877 53.2415 69.9778 52.8231 69.294 52.2955C68.8831 51.9786 68.719 51.4895 68.7221 50.9449C68.7344 49.099 68.693 47.2547 68.7374 45.4103C68.7758 43.7752 68.463 42.1677 68.4277 40.5434C68.3986 39.2051 69.1223 38.3483 70.2185 38.3252C71.8959 38.2898 72.5966 38.9267 72.73 40.4695C72.7836 41.0817 72.5 41.737 72.9875 42.3954C73.2313 41.1648 73.561 40.0634 74.4947 39.2466C76.5369 37.4607 80.8898 37.8376 81.6548 41.1156C81.8158 41.8047 81.9278 42.5092 81.9262 43.2261Z" fill="#9C5BF5"/>
<path d="M93.6998 29.4496C92.8734 31.1816 91.3264 32.02 89.5003 32.3076C88.6785 32.4384 87.8322 32.546 87.2189 32.4676C85.2012 32.4168 83.4794 32.1846 82.0044 31.0247C80.948 30.1956 80.7778 28.3267 81.7162 27.3791C82.2758 26.8146 83.2663 26.7207 84.0114 27.2914C85.471 28.4113 87.0932 28.6005 88.8395 28.3513C89.137 28.3097 89.3577 28.1621 89.6046 28.0452C89.9342 27.8883 89.9557 27.5468 89.968 27.2622C89.9818 26.9715 89.6951 26.853 89.4513 26.773C88.6908 26.5223 87.9027 26.4915 87.1101 26.4777C86.1503 26.4608 85.1935 26.3531 84.2644 26.1131C81.9891 25.5271 81.0937 23.3443 81.5199 21.2877C81.9661 19.1326 83.6128 18.3081 85.5339 17.8851C87.314 17.4928 89.094 17.6959 90.8526 18.0497C91.8186 18.245 92.6986 18.6634 93.3457 19.4418C93.9774 20.2017 94.0525 21.0569 93.64 21.9491C93.3073 22.6706 92.5085 23.1074 91.7327 23.1151C91.3111 23.1197 91.0811 22.8459 90.8112 22.6459C89.3853 21.5861 87.8153 21.6615 86.2039 21.9999C85.8743 22.0691 85.6336 22.2383 85.5983 22.5921C85.5569 23.0013 85.8482 23.1828 86.1656 23.3105C87.0242 23.6596 87.9457 23.6381 88.8441 23.7027C89.6537 23.7596 90.4509 23.8596 91.2467 24.0104C94.1843 24.5687 94.7256 27.2991 93.6998 29.4496Z" fill="#9C5BF5"/>
<path d="M94.8099 51.2095C94.5738 51.9679 93.732 52.6124 92.852 52.6186C90.3743 52.6385 87.8889 52.7478 85.422 52.5847C83.6496 52.4678 82.9979 50.7188 83.6618 49.1514C83.7676 48.9006 83.9654 48.676 84.1601 48.4761C85.8727 46.724 87.593 44.9812 89.4145 43.1292C88.1465 43.1292 86.9782 43.143 85.8099 43.1245C84.2153 43.1015 83.4058 42.2631 83.4288 40.6972C83.4457 39.4928 84.3687 38.5037 85.5845 38.4868C87.7816 38.4575 89.9787 38.4637 92.1743 38.4914C92.645 38.496 93.1249 38.6144 93.5802 38.7467C95.4584 39.2913 95.2898 41.937 94.1291 43.0646C92.6266 44.5274 91.147 46.0149 89.6629 47.4962C89.4911 47.6685 89.2566 47.8008 89.1707 48.1669C90.3375 48.1669 91.4721 48.1592 92.6082 48.1684C94.4082 48.1838 95.3465 49.4836 94.8099 51.2095Z" fill="#9C5BF5"/>
<path d="M78.6681 31.0308C76.9034 32.446 74.3352 33.0982 72.1504 31.84C70.9529 31.1524 70.1495 29.4634 70.2017 28.0651C70.263 26.3546 70.1741 24.6379 70.1664 22.9228C70.1633 22.5367 69.9778 22.4182 69.6436 22.4629C68.6761 22.5951 68.0705 21.8937 67.6611 21.283C67.3867 20.8754 67.5292 20.0217 67.7531 19.4787C68.0674 18.7172 68.6654 18.0927 69.6313 18.1727C70.1419 18.2142 70.3289 18.0235 70.263 17.5251C70.2124 17.1513 70.2093 16.7729 70.1664 16.3976C70.0897 15.7269 70.6632 15.3131 71.1446 14.9993C71.971 14.4625 72.9017 14.464 73.748 14.967C74.5913 15.4685 74.7185 16.3653 74.6894 17.2405C74.6572 18.1819 74.6097 18.1804 75.5419 18.1804H75.9252C77.6547 18.1773 78.1192 18.465 78.4949 19.7679C78.9088 21.2076 77.5688 22.5152 76.4909 22.4982C74.7063 22.4705 74.7047 22.5028 74.7063 24.2734C74.7063 25.0409 74.6986 25.8101 74.7109 26.5776C74.7262 27.499 75.3809 27.9944 76.261 27.7821C76.7761 27.6575 77.2851 27.5498 77.7804 27.3314C78.4964 27.0145 79.2078 27.3914 79.4685 28.1451C79.8671 29.2911 79.5727 30.3048 78.6681 31.0308Z" fill="#9C5BF5"/>
<path d="M27.368 52.9446C26.0571 52.9446 24.8137 52.9446 23.5702 52.9461C23.4215 52.9461 23.3464 52.8446 23.2651 52.7477C23.3019 52.7 23.3387 52.6508 23.374 52.6031H25.6585C25.6125 52.1755 25.1725 52.0755 25.0881 51.7402C25.8854 51.5402 25.8655 52.8969 26.7302 52.5647C26.2212 51.5094 25.5788 50.6957 24.2847 50.7941C24.2403 50.7511 24.1973 50.7095 24.1529 50.668C24.3568 49.9604 24.4564 49.9127 24.5316 50.0727C24.9072 50.8864 25.5159 50.5865 26.0985 50.4603C26.1307 50.5065 26.1629 50.5526 26.1936 50.5988C26.0464 50.748 26.0004 50.8403 26.1491 51.0833C26.5186 51.6925 27.1212 52.1524 27.368 52.9446Z" fill="#030303"/>
<path d="M15.5392 52.1678C15.4702 52.3063 15.5852 52.68 15.3951 52.577C14.7235 52.2186 14.1041 52.9508 13.4586 52.5431C13.6855 52.237 13.9431 51.8909 13.8634 51.4372C14.4491 51.3772 14.6392 52.1524 15.2249 52.0078C15.3552 52.0109 15.4748 52.0325 15.5392 52.1678Z" fill="#D8C3F6"/>
<path d="M27.6578 26.9376C28.0672 27.8405 27.6133 28.6389 27.3358 29.4465C26.744 31.1662 25.6278 32.4014 23.9137 33.0644C23.7373 33.1321 23.5825 33.1644 23.469 33.0859C24.2157 31.7431 26.0111 31.1293 26.0173 29.2711C25.8409 30.1433 24.9961 30.5063 24.461 30.9924C24.0072 31.4031 23.6653 31.9061 23.2207 32.3137C22.5445 32.9337 21.7886 33.3674 20.8794 33.4505C18.9583 33.6259 17.0356 33.7428 15.3353 32.5429C15.1912 32.4414 15.0317 32.3537 14.9167 32.2245C14.5978 31.8707 14.308 31.48 13.6901 31.5969C14.006 32.1645 14.4583 32.5829 14.9796 32.9413C15.1022 33.026 15.2709 33.1106 15.1912 33.2951C15.1145 33.4736 14.9244 33.4044 14.7879 33.3951C11.2447 33.1705 8.40359 30.8647 7.59405 27.1945C7.3978 26.3054 7.06355 25.404 7.45452 24.4764C7.87309 24.9456 8.29013 25.4147 8.7547 25.9362C8.81296 25.3378 8.48792 24.8641 8.49558 24.1595C9.47071 25.7055 10.2726 27.196 11.8411 28.1374C11.8273 27.5483 11.4777 27.1299 11.5513 26.6361L11.5544 26.633C12.4666 27.3252 13.1244 28.2989 14.1394 28.8881C14.9198 29.3419 15.7186 29.7018 16.6002 29.8864C16.7658 29.9218 16.9406 30.0695 17.0893 29.8787C17.2212 29.708 17.1046 29.5172 17.0372 29.3742C16.8884 29.0588 16.6845 28.7712 16.3794 28.2666C17.0494 28.6312 17.5845 28.6927 18.1135 28.9281C20.076 29.7987 22.0999 30.0741 24.0685 28.9112C24.6435 28.5712 25.3457 28.3605 25.6493 27.656C25.6815 27.5806 25.8563 27.4791 25.8885 27.5021C26.7302 28.0805 27.0997 27.2068 27.6624 26.9345L27.6578 26.9376Z" fill="#805FF8"/>
<path d="M26.5784 3.56102C27.4293 4.65163 27.1196 5.793 26.6551 6.89438C26.514 7.22818 26.0924 7.3174 25.6615 7.20664C25.1126 7.06666 24.714 6.75748 24.4994 6.26986C24.4549 6.16833 24.7922 5.89914 24.9501 5.70994C24.4963 5.50843 24.3752 5.80839 23.8171 5.57919C23.1501 5.30692 23.0842 5.78839 22.7377 5.92068C22.3467 6.06989 22.5261 5.57765 22.3038 5.40998C22.2609 6.12988 21.0573 5.97144 21.3241 6.86823C21.0542 6.9636 21.0956 6.55905 20.858 6.66826C20.8411 6.7021 20.7997 6.74517 20.8074 6.77901C20.9668 7.61582 21.3992 8.32802 21.8392 9.03561C22.3421 9.84472 22.5936 10.6723 22.7086 11.6706C22.8419 12.8335 22.8021 14.0103 22.9876 15.1778C23.2452 16.7991 22.822 18.3543 21.3517 19.4003C21.3563 19.3233 21.3333 19.2295 21.3685 19.1726C22.8557 16.8299 22.2547 14.4287 21.6046 11.9829C21.8116 11.7691 21.9481 12.2259 22.2164 12.0829C22.2271 11.7583 21.9849 11.5137 21.8561 11.2261C21.6368 10.7338 21.091 10.3508 21.4268 9.66321C21.505 9.50323 21.2351 9.16175 21.1048 8.91409C20.4256 7.62505 20.0055 6.27601 20.1327 4.79623C20.1511 4.57472 20.0729 4.3286 20.3612 4.10863C20.3597 4.68547 20.8702 4.68855 21.1861 4.85775C21.876 5.22847 21.6614 4.34091 22.1045 4.16862C22.2501 4.16093 22.1781 4.52242 22.4157 4.53319C22.658 4.39013 22.5583 4.05479 22.7898 3.86405C23.0627 3.92558 22.9692 4.28861 23.1839 4.42705C23.5457 4.23015 23.6254 3.81944 23.8661 3.53948C24.2525 3.82867 24.5806 3.72254 24.8505 3.22107C24.9425 3.40104 25.0421 3.55025 25.0988 3.71484C25.2568 4.17785 25.4024 4.59472 25.7643 3.82867C25.9391 3.45796 26.2948 3.61486 26.5784 3.56256V3.56102Z" fill="#805FF8"/>
<path d="M15.8489 18.3281C16.499 19.7048 18.1058 20.7662 19.5103 20.6277C21.1002 20.4724 22.5399 19.7602 23.0765 18.1758C23.6822 19.3556 23.0689 20.3201 22.4081 21.163C20.7215 23.3166 17.7747 22.9966 16.5005 20.5724C16.1341 19.8725 15.8075 19.151 15.8474 18.3265L15.8489 18.3281Z" fill="#805FF8"/>
<path d="M14.6423 15.8762C14.5196 15.5762 14.4062 15.2716 14.2697 14.9778C14.19 14.804 13.1106 14.2041 12.8852 14.2287C12.7457 14.2441 12.7748 14.138 12.7748 14.1134C12.7349 13.2873 11.7322 12.6489 12.3056 11.6999C12.3501 11.626 12.324 11.4968 12.3056 11.3984C12.1263 10.3216 12.2351 10.1201 13.2302 9.7063C13.2302 10.1647 13.2302 10.6216 13.2302 11.1215C13.6334 10.9615 13.5537 10.4739 13.9063 10.3016C14.0796 10.457 13.9922 10.6708 13.9999 10.8523C14.0152 11.1815 13.9293 11.5922 14.2375 11.7706C14.5579 11.9552 14.6714 11.4107 14.9918 11.3799C15.1559 11.6168 15.0271 11.8768 15.0762 12.1136C15.1099 12.2798 14.9213 12.6597 15.3936 12.4536C15.5852 12.3705 15.6711 12.572 15.6695 12.7182C15.6588 13.7919 15.5791 14.8532 14.9167 15.7639C14.8677 15.8316 14.7358 15.8408 14.6438 15.8777L14.6423 15.8762Z" fill="#805FF8"/>
<path d="M7.46526 24.1473C7.46066 24.0627 7.45606 23.9796 7.453 23.895C7.57105 23.9735 7.58485 24.0565 7.46526 24.1473Z" fill="#805FF8"/>
<path d="M21.3517 19.4018C21.3103 19.551 21.1753 19.5494 21.0619 19.5802C21.1109 19.4448 21.2167 19.3987 21.3517 19.4018Z" fill="#805FF8"/>
<path d="M11.5486 26.6396C11.527 26.6272 11.5054 26.6147 11.4854 26.6023C11.507 26.6132 11.5301 26.6256 11.5517 26.6365L11.5486 26.6396Z" fill="#805FF8"/>
<path d="M43.5359 48.3253C43.5098 48.3268 43.4853 48.3299 43.4592 48.3314C43.3549 48.3222 43.2461 48.3222 43.1357 48.3268C43.2476 48.3206 43.3565 48.3206 43.4607 48.3299C43.4853 48.3283 43.5113 48.3253 43.5359 48.3253Z" fill="#FAF3EC"/>
<path d="M23.7849 42.0185C23.7941 43.0661 23.8002 44.1136 23.8109 45.1611C23.8155 45.6057 23.7021 45.6995 23.1854 45.678C22.2256 45.638 22.0646 45.0642 21.8684 44.3289C21.4252 42.6584 20.9377 40.9971 20.4087 39.3512C20.2615 38.8928 20.3137 38.7667 20.766 38.6052C21.6353 38.2975 22.4065 37.7114 22.5828 36.3916C21.2259 38.4698 19.1223 38.6636 17.054 38.942C16.8348 38.9713 16.6201 39.0759 16.4024 39.0851C15.8934 39.1066 15.3491 39.2051 14.883 39.0605C14.3586 38.899 14.5503 38.2206 14.3142 37.813C14.0535 37.3623 13.8281 36.8931 13.4678 36.4778C13.2532 36.7808 13.6089 36.9931 13.5476 37.25C13.5889 37.35 13.6303 37.4499 13.6702 37.5484C13.6963 37.593 13.7039 37.6407 13.6963 37.6899C13.6947 38.2006 13.7147 38.7113 13.6871 39.2205C13.6058 40.6664 13.2884 41.9924 11.9177 42.8122C11.3305 43.163 10.7893 43.5921 10.2235 43.9782C8.36373 45.2473 7.43766 47.0116 7.42079 49.2621C7.30274 49.5513 7.02522 49.4559 6.9087 49.3667C6.54839 49.0913 6.21875 49.2759 5.9121 49.3974C5.41074 49.5974 5.17922 50.0466 4.88331 50.4896C4.67786 50.7957 3.90358 50.6373 3.57701 51.148C3.49268 51.2818 3.38995 51.3956 3.42675 51.5541C3.61074 52.3462 3.12624 52.3509 2.56968 52.317C2.13731 52.2909 1.70034 52.2893 1.26797 52.317C0.729811 52.3524 0.737477 52.0678 0.887733 51.7079C1.15911 51.0557 1.64514 50.5388 2.02385 49.9543C2.10205 49.8343 2.26763 49.7666 2.14804 49.5743C1.54089 48.5945 1.65741 47.45 1.41669 46.3887C1.08552 44.9227 1.25417 43.5491 2.05758 42.3292C3.02964 40.8541 4.13203 39.4681 5.56406 38.3821C7.67378 36.7808 9.07514 34.715 9.57037 32.0753C9.58264 32.0077 9.6133 31.9446 9.65623 31.8215C10.7755 32.6953 11.9515 33.3767 13.3406 33.6197C13.4816 33.6443 13.6257 33.7105 13.7775 33.7043C16.3947 33.5936 18.9828 34.1489 21.6046 34.0335C22.3636 33.9997 23.0612 33.6505 23.8232 33.7259C23.6331 36.2163 23.6469 38.7113 23.6576 41.2048C23.6576 41.4771 23.5748 41.7709 23.7864 42.0124L23.7849 42.0185Z" fill="#D8C3F6"/>
<path d="M29.4578 7.86959C28.3462 7.96035 27.25 7.74653 26.1675 7.54964C25.3656 7.40504 24.3368 7.51118 24.1007 6.33904C24.0655 6.16215 23.9167 6.20676 23.8002 6.18676C23.3157 6.10985 22.8527 6.26521 22.3989 6.37135C21.9159 6.48671 21.4667 7.56041 21.6798 7.94804C22.477 9.40629 23.3479 10.7861 23.4384 12.572C23.5104 14.001 23.5273 15.4193 23.4721 16.8406C23.4491 17.3882 23.7711 18.1804 24.2633 18.3065C24.3169 18.3204 24.6297 18.5634 24.6159 18.122C24.5852 17.1313 24.5193 16.1315 24.3813 15.1685C24.0762 13.0535 24.53 11.3445 26.3914 10.137C26.2396 9.88161 26.0648 9.71702 25.7489 9.69856C25.6263 9.69087 25.4469 9.52935 25.5205 9.36476C25.6002 9.18632 25.7428 9.01404 25.9529 8.96174C26.1905 8.90021 26.1139 9.09711 26.1828 9.2094C26.4282 9.60319 26.9249 9.94775 27.2975 9.837C28.3631 9.52166 29.4609 9.18171 30.2582 8.22031C29.8994 8.1957 29.7967 7.8419 29.4578 7.86959ZM24.2878 8.87098C24.1176 8.95559 23.9305 9.03865 23.8309 8.84945C23.7266 8.65102 23.8278 8.42797 24.0394 8.35106C24.3874 8.22646 24.7094 8.08802 24.9195 7.71884C25.0682 8.31568 24.7585 8.63563 24.2878 8.87098Z" fill="#D8C3F6"/>
<path d="M17.5155 45.7165C17.9326 45.7134 18.3496 45.7211 18.7666 45.7026C19.0779 45.6888 19.4382 45.7995 19.4612 46.0487C19.5072 46.5656 19.5946 47.0701 19.6758 47.5793C19.6881 47.6531 19.6452 47.7515 19.6789 47.8054C20.1327 48.5253 19.8138 49.3006 19.889 50.0389C19.9534 50.6742 19.616 50.6434 19.2833 50.8249C18.8142 51.0834 18.6425 50.785 18.4646 50.4665C18.4201 50.3865 18.4324 50.2758 18.4201 50.1897C18.1227 50.1297 18.1104 50.385 18.0491 50.5096C17.7562 51.1157 17.1752 51.3326 16.8148 50.8342C16.43 50.305 16.3074 50.6911 16.1126 50.8988C15.8321 51.2003 15.5929 51.4295 15.4166 50.8249C15.32 50.4958 15.0394 50.6404 14.837 50.6296C13.9815 50.5834 13.7162 50.122 14.1731 49.4005C14.3694 49.0898 14.6377 48.9006 14.1087 48.5883C13.7515 48.3761 13.8189 47.89 13.9692 47.4685C14.124 47.0317 14.446 47.0778 14.7726 47.0916C15.1314 47.107 15.3445 47.0963 15.4089 46.5979C15.5009 45.878 16.4101 45.5703 17.0387 45.958C17.2544 46.0913 17.42 46.0046 17.5355 45.698L17.5201 45.7149L17.5155 45.7165Z" fill="#A683FE"/>
<path d="M26.1 50.4603C25.5174 50.5865 24.9087 50.8864 24.5316 50.0727C24.458 49.9127 24.3583 49.9604 24.1544 50.668C23.719 51.1141 23.2529 50.8295 22.9815 50.5511C22.7116 50.2742 22.6258 50.3081 22.4188 50.5373C22.1474 50.8357 21.8653 51.1049 21.6077 50.5142C21.485 50.2327 21.2198 50.3311 21.0036 50.3204C20.1419 50.2804 19.9028 49.8743 20.3673 49.1698C20.559 48.879 20.7138 48.6637 20.3275 48.4268C19.9687 48.2068 19.8936 47.8346 20.027 47.4946C20.191 47.0793 20.6264 46.9439 21.0159 47.0255C21.3854 47.1024 21.4299 46.9778 21.508 46.6824C21.7135 45.9072 22.3866 45.5811 23.075 45.9595C23.3387 46.1041 23.4322 46.1348 23.6883 45.941C24.274 45.4965 24.8842 45.7118 25.4408 46.0579C25.8624 46.321 25.5834 46.6824 25.5021 47.0255C25.8639 47.167 26.2549 47.0285 26.6029 47.2393C27.1978 47.5992 27.3082 48.1684 26.7348 48.516C26.2457 48.8129 25.9437 49.039 26.2334 49.6682C26.3254 49.8697 26.1537 50.1927 26.1031 50.4619L26.1 50.4603Z" fill="#A683FE"/>
<path d="M16.3028 40.1988C16.1494 41.4478 15.5392 42.5077 14.6377 43.4306C13.6119 44.4797 12.4421 45.4165 11.8993 46.8548C11.7491 47.2516 11.6678 47.6962 11.5007 48.0515C11.3428 48.3884 11.7828 49.139 10.9135 49.0944C10.4903 49.0729 10.1331 49.6313 9.65163 49.2821C9.34499 49.059 9.06287 49.5344 8.7363 49.2913C8.53391 49.1406 8.32846 49.1898 8.40359 48.736C8.79609 46.3517 10.4627 45.0335 12.2826 43.8183C13.2363 43.1814 14.2927 42.6477 14.5595 41.3802C14.653 40.9402 14.7373 40.4911 14.7588 40.0434C14.8063 39.062 15.5162 39.6927 15.898 39.5773C16.4024 39.4235 16.2828 39.8711 16.2997 40.2003L16.3028 40.1988Z" fill="#D8C3F6"/>
<path d="M28.3754 17.8005C28.2343 17.5898 28.1423 17.4498 27.9629 17.1821C27.9721 17.7974 27.8725 18.2697 27.6869 18.8527C26.928 17.7528 25.9667 16.9822 24.9333 16.2653C24.4365 15.9208 24.6834 15.1655 24.6251 14.6256C24.5055 13.5242 25.0406 11.5829 26.4742 10.8169C26.9648 12.0675 27.3696 13.3581 28.4091 14.3102C28.705 14.581 28.8399 14.9855 28.6329 15.4239C28.5118 15.6823 28.5379 15.9454 28.6544 16.2253C28.7203 16.3838 28.981 16.8083 28.3861 16.6684C28.2404 16.6345 28.2481 16.8237 28.3202 16.9468C28.4581 17.1852 28.3999 17.4405 28.3723 17.799L28.3754 17.8005Z" fill="#A683FE"/>
<path d="M7.07735 52.6262C6.31074 52.6262 5.54413 52.6001 4.77905 52.6339C4.12897 52.6632 3.76713 52.2678 3.77479 51.7525C3.78093 51.3095 4.06917 50.8188 4.72999 50.9311C5.05963 50.9865 5.23595 50.9265 5.29882 50.4789C5.39541 49.8036 6.34907 49.4482 6.96696 49.8343C7.27974 50.0297 7.33647 50.0143 7.49439 49.699C7.73664 49.2129 8.13221 49.4159 8.46492 49.6051C8.77617 49.7836 9.26986 49.9251 9.04141 50.422C8.76543 51.0188 9.14107 50.9357 9.47685 50.9342C10.084 50.9311 10.5486 51.1034 10.4688 51.8341C10.4106 52.3771 10.0518 52.6201 9.52744 52.6232C8.71024 52.6293 7.89303 52.6247 7.07582 52.6247L7.07735 52.6262Z" fill="#A683FE"/>
<path d="M17.5324 45.6995C16.821 45.4534 17.2196 44.855 17.2595 44.4997C17.4389 42.8938 17.7792 41.3063 17.9678 39.7004C18.0506 39.0005 18.5827 39.2389 18.9031 39.1251C19.1821 39.0266 19.5225 38.9882 19.7602 39.5173C20.2937 40.7018 19.981 41.8016 19.7402 42.9399C19.6068 43.5737 19.4029 44.209 19.3907 44.8473C19.3784 45.4734 19.0457 45.4672 18.6716 45.3442C18.1656 45.1796 17.8176 45.335 17.5155 45.7164L17.5309 45.6995H17.5324Z" fill="#D8C3F6"/>
<path d="M7.42233 49.2667C7.4392 47.0148 8.36526 45.2504 10.2251 43.9829C10.7908 43.5968 11.332 43.1692 11.9193 42.8169C13.2915 41.9955 13.6089 40.6695 13.6886 39.2251C13.7177 38.716 13.6963 38.2053 13.6978 37.6946C14.1792 39.1051 14.4276 40.5034 13.7208 41.934C13.2915 42.8015 12.3992 43.0323 11.7077 43.5291C10.2496 44.5782 8.8651 45.6703 8.18588 47.4239C8.04329 47.7916 7.85777 48.1623 7.88843 48.5499C7.9191 48.9529 7.73204 49.1314 7.42233 49.2683V49.2667Z" fill="#FAF3EC"/>
<path d="M12.1585 52.0448C11.4056 51.4941 10.708 50.8342 9.76356 50.6342C9.2622 50.5281 9.51672 50.0851 9.3266 49.8559C9.24533 49.7574 9.23767 49.6436 9.33579 49.6021C9.61024 49.4882 9.80649 49.6959 10.015 49.822C10.0978 49.8712 10.1668 49.9451 10.2849 50.0435C10.5302 49.2498 11.0683 49.3344 11.6111 49.5897C12.1968 49.8666 12.0864 50.3435 11.8181 50.845C12.1707 51.0019 12.4988 50.9126 12.8116 50.9372C13.3022 50.9772 13.4341 51.3849 13.4617 51.7325C13.4939 52.1278 13.1643 52.4678 12.8254 52.5801C12.4636 52.7001 12.4866 52.0802 12.1401 52.0263L12.16 52.0463L12.1585 52.0448Z" fill="#A683FE"/>
<path d="M24.2847 50.7926C25.5788 50.6957 26.2212 51.5079 26.7302 52.5632C25.867 52.8969 25.8869 51.5402 25.0897 51.7387C25.174 52.0755 25.614 52.174 25.66 52.6031H23.3755C23.1639 52.0801 22.9523 51.5587 22.7208 50.988C23.2605 50.9126 23.8661 51.4664 24.2847 50.7926Z" fill="#D8C3F6"/>
<path d="M20.7537 51.6956C20.168 51.1403 19.4735 51.065 18.7176 51.2203C18.6532 51.2326 18.5351 51.045 18.4845 51.0634C18.0644 51.2157 17.6551 51.3957 17.2426 51.5664C17.4281 51.9787 17.3913 52.5678 18 52.6586C19.0166 52.8093 20.0193 52.5801 21.0143 52.5817C21.0772 52.1879 20.4685 52.0925 20.7537 51.6956ZM19.2573 51.7356C19.7111 51.7079 19.9227 51.9171 20.0745 52.3463C19.6298 52.3155 19.452 52.0602 19.2573 51.7356Z" fill="#D8C3F6"/>
<path d="M23.7849 42.0186C23.5748 41.7771 23.6576 41.4833 23.6561 41.211C23.6454 38.716 23.6316 36.2209 23.8217 33.7321C24.3108 33.6705 24.136 34.0628 24.1084 34.2382C23.7144 36.8209 23.8631 39.4251 23.7849 42.0186Z" fill="#FAF3EC"/>
<path d="M12.1585 52.0447L12.1385 52.0247C12.0925 52.0739 12.0251 52.117 12.0051 52.1755C11.9484 52.3447 12.3409 52.4308 12.1401 52.58C11.9254 52.7385 11.7981 52.457 11.6464 52.3401C11.5298 52.1186 11.2355 52.0816 11.1757 52.2109C11.0791 52.4216 11.3336 52.4785 11.5191 52.5031C11.2232 52.7277 10.9012 52.6016 10.5532 52.5985C10.7111 52.2508 10.8092 51.9278 10.8138 51.5525C11.1649 51.6079 11.3688 51.8371 11.6203 51.974C11.7659 52.0524 11.9392 52.3878 12.1585 52.0447Z" fill="#D8C3F6"/>
<path d="M13.6733 37.5515C13.6319 37.4515 13.5905 37.3515 13.5506 37.2531C13.7009 37.3069 13.6947 37.4269 13.6733 37.5515Z" fill="#FAF3EC"/>
<path d="M24.9195 7.71887C25.0682 8.31417 24.7585 8.63566 24.2878 8.87101C24.1191 8.95562 23.9305 9.03714 23.8309 8.84794C23.7266 8.64951 23.8278 8.42646 24.0394 8.35109C24.3874 8.22649 24.7094 8.08805 24.9195 7.71887Z" fill="#030303"/>
<path d="M20.076 52.3463C19.6314 52.3155 19.4535 52.0602 19.2588 51.7356C19.7126 51.7079 19.9242 51.9156 20.076 52.3463Z" fill="#030303"/>
<path d="M11.5191 52.5046C11.3336 52.48 11.0791 52.4231 11.1757 52.2124C11.2355 52.0832 11.5298 52.1201 11.6464 52.3416L11.5191 52.5062V52.5046Z" fill="#030303"/>
</g>
<defs>
<clipPath id="clip0_16_4698">
<rect width="95" height="53" fill="white"/>
</clipPath>
</defs>
</svg>
