<svg width="326" height="308" viewBox="0 0 326 308" fill="none" xmlns="http://www.w3.org/2000/svg">
<g clip-path="url(#clip0_16_4552)">
<path d="M325.061 296.404C325.053 293.151 325.046 289.901 325.038 286.648C324.047 285.94 324.372 285.11 324.812 284.268C325.275 280.789 323.967 277.498 323.745 274.088C323.358 268.175 321.197 262.737 318.84 257.421C316.185 251.428 311.754 246.659 307.289 241.975C302.354 236.804 297.774 231.42 294.724 224.837C292.207 219.399 290.447 213.769 289.307 207.902C288.614 204.339 287.723 200.792 287.509 197.171C287.405 195.453 286.942 193.861 286.648 192.219C285.948 188.331 285.14 184.461 284.348 180.588C283.415 176.023 281.517 171.79 279.811 167.488C278.361 163.833 276.36 160.5 274.033 157.366C273.153 156.179 273.261 155.322 274.167 154.212C275.728 152.299 277.572 150.446 278.517 148.234C281.999 140.094 283.002 131.732 279.746 123.197C276.895 115.723 271.921 110.017 264.855 106.465C257.383 102.711 249.329 102.171 241.344 104.567C233.195 107.02 227.253 112.416 223.236 119.906C222.474 121.322 222.386 122.78 223.683 124.024C225.015 125.298 226.813 125.574 228.32 124.59C231.018 122.834 233.772 121.249 236.887 120.323C243.862 118.253 250.58 119.152 255.053 125.011C257.348 128.02 256.816 132.838 253.771 135.119C249.872 138.039 245.162 139.007 240.552 138.697C236.378 138.414 232.173 138.135 227.995 137.763C224.012 137.411 219.972 137.694 215.958 137.756C211.065 137.832 206.16 138.234 201.286 137.997C196.622 137.767 191.958 137.449 187.302 136.657C179.214 135.283 172.128 132.107 166.121 126.577C164.583 125.161 162.429 123.806 162.111 121.781C161.534 118.104 159.839 114.552 160.443 110.721C161.128 106.4 161.017 102.011 161.074 97.6937C161.189 89.6262 161.882 81.5702 161.645 73.495C161.438 72.6569 161.411 71.8188 161.687 70.8429C162.341 71.394 162.502 71.9795 162.31 72.6875C162.697 74.9493 163.229 77.1652 164.441 79.1515C166.84 83.0704 172.059 85.4241 176.979 83.5564C180.656 82.1596 183.032 79.251 185.572 76.5567C189.322 72.588 192.846 68.4242 195.883 63.8584C198.099 60.5289 200.084 57.1151 200.895 53.1388C200.769 52.5724 200.329 51.9486 201.186 51.5658C201.374 49.304 201.378 47.0461 201.186 44.7842C200.616 44.7613 200.517 44.4168 200.601 43.9423C200.329 38.5805 197.773 34.2024 194.074 30.6623C188.14 24.9829 181.253 20.4593 174.596 15.6793C169.136 11.7603 163.186 8.64125 157.344 5.36527C153.797 3.37901 150.32 1.19375 146.226 0.279072C140.246 -1.06041 134.43 2.55619 132.303 7.77633C130.344 12.5793 128.24 17.367 127.092 22.4762C126.989 22.9278 126.862 23.8654 126.162 23.6166C124.792 23.1344 123.388 23.5324 122.061 23.2301C118.082 22.3193 114.072 21.7682 109.993 21.7452C108.846 21.7414 107.66 21.8983 106.558 21.6687C103.026 20.9339 99.4222 21.1137 95.9482 21.4582C90.9859 21.948 85.9355 21.3854 81.0268 22.813C79.6112 23.2263 77.8971 23.0349 76.4126 23.4368C75.3031 23.7391 75.0238 23.5745 74.7139 22.5259C73.8913 19.7283 73.0266 16.9345 71.9821 14.2097C71.0333 11.7297 69.675 9.40284 68.7874 6.90376C68.114 5.0017 67.0045 3.48234 65.4128 2.48347C60.1904 -0.80782 54.9181 -0.597331 49.5388 2.37249C45.3722 4.67257 41.3435 7.20227 37.1731 9.49852C32.1343 12.2732 27.2523 15.354 22.6802 18.9667C19.0799 21.8064 15.231 24.3859 11.5542 27.1643C8.06869 29.8012 5.06145 33.0657 3.06045 36.8698C-0.0271347 42.7329 -0.562775 49.1663 1.54153 55.4848C3.13697 60.2763 6.0103 64.4631 9.2318 68.3935C13.0808 73.0894 16.9986 77.6819 21.5477 81.7692C26.533 86.2469 35.1109 83.6751 37.6514 78.5277C38.5466 76.7174 38.7839 74.7427 39.4611 72.8865C39.4305 72.4043 39.3731 71.5892 39.8743 71.681C40.7198 71.8379 40.2837 72.6225 40.1383 73.1812C40.4137 79.6643 40.1038 86.155 40.5247 92.642C40.9111 98.5242 40.8461 104.437 41.1139 110.331C41.1751 111.758 41.8255 113.243 41.3052 114.609C40.3563 117.086 40.0503 119.638 39.8781 122.244C39.2927 130.989 41.7261 138.869 46.8682 145.877C50.8243 151.269 55.9971 155.402 61.5409 159.061C62.0536 159.398 62.5089 159.566 62.4936 160.251C62.3444 166 63.0981 171.687 63.6567 177.381C63.959 180.477 64.3837 183.57 64.9729 186.62C65.4855 189.268 66.4191 191.901 66.8744 194.488C67.6051 198.656 68.4124 202.816 69.2542 206.961C69.9581 210.413 70.8879 213.861 71.4962 217.294C72.5483 223.23 73.7153 229.146 74.8554 235.063C75.8502 240.211 76.757 245.35 77.0439 250.586C77.8091 251.424 77.3882 252.396 77.3538 253.322C77.35 254.302 77.35 255.282 77.3462 256.261C77.3806 257.061 77.8053 257.911 77.0592 258.615C76.9406 262.626 75.965 266.487 74.997 270.345C73.8262 275.022 72.38 279.591 73.1414 284.582C73.9334 289.79 79.0946 293.468 83.5519 293.472C92.0839 293.472 100.616 293.514 109.148 293.537C109.615 292.864 110.127 292.844 110.686 293.426C115.055 292.584 117.63 289.653 119.069 285.741C120.737 281.195 121.097 276.315 121.288 271.554C121.506 266.231 122.015 260.888 121.598 255.542C121.559 255.086 121.406 254.34 122.179 254.398C123.679 254.505 125.209 254.631 126.637 255.056C126.962 255.151 127.899 255.595 127.945 256.613C128.079 259.618 128.492 262.614 128.645 265.622C128.955 271.864 128.722 278.102 126.748 284.08C125.24 288.631 124.203 293.17 124.41 298.007C124.624 303.07 129.674 308.076 134.491 307.996C143.479 307.847 152.47 307.954 161.461 307.946C162.019 307.946 162.563 307.912 163.137 307.778C167.778 306.668 169.989 303.09 171.007 299.048C172.304 293.905 173.268 288.646 173.161 283.231C173.096 279.855 173.333 276.484 173.203 273.074C172.962 266.736 172.392 260.391 172.663 254.034C172.728 252.518 172.078 250.662 172.947 249.591C173.635 248.737 175.479 248.818 176.807 248.481C176.868 248.466 176.918 248.408 176.975 248.393C184.421 246.694 191.625 244.187 198.81 241.669C201.225 240.823 202.977 241.114 204.626 242.897C205.559 243.904 206.65 244.826 207.476 245.867C211.218 250.567 214.29 255.664 215.496 261.669C216.881 268.581 217.581 275.577 217.382 282.622C217.244 287.452 221.269 293.552 228.125 293.487C236.282 293.407 244.447 293.518 252.604 293.441C255.718 293.411 258.427 292.221 260.631 289.913C262.142 288.332 262.487 286.308 262.946 284.337C263.99 279.821 263.588 275.209 263.244 270.693C262.812 265.029 262.617 259.304 260.994 253.475C261.817 253.977 262.372 254.256 262.858 254.623C263.359 255.002 263.768 255.504 264.266 255.894C269.132 259.683 272.794 264.306 275.112 270.127C277.672 276.545 278.621 283.189 278.969 289.993C279.692 291.095 279.413 292.251 279.164 293.407C279.187 294.536 279.206 295.665 279.229 296.794C280.075 297.253 280.052 297.8 279.386 298.413C279.512 299.067 279.757 299.729 279.746 300.38C279.673 303.51 284.83 307.927 287.78 307.935C296.878 307.958 305.981 307.973 315.079 307.938C320.014 307.923 324.387 302.933 324.552 299.209C324.602 298.252 323.289 297.047 325.061 296.404ZM258.209 137.687C259.456 135.586 260.868 133.684 261.144 131.008C261.672 125.865 259.747 121.923 255.963 118.842C251.552 115.256 246.501 114.208 240.766 115.004C237.296 115.482 234.075 116.596 230.608 117.556C234.725 112.003 243.15 106.534 254.004 107.885C263.6 109.079 273.517 116.171 275.946 126.998C277.921 132.581 277.343 138.089 275.315 143.504C274.347 146.091 273.383 148.709 271.195 150.634C270.238 151.476 269.679 151.866 268.505 150.718C264.113 146.428 258.871 143.416 252.612 141.135C254.949 140.174 256.499 138.812 258.209 137.687ZM66.7711 156.03C66.2584 156.294 65.6807 156.034 65.1718 155.724C58.396 151.602 52.5039 146.604 48.456 139.612C46.9218 136.963 45.9385 134.093 44.7716 131.322C44.4272 130.511 44.5343 129.007 44.4846 127.817C44.255 122.133 44.8634 116.668 47.4689 111.444C49.4967 107.38 52.3432 104.07 55.4614 100.878C58.5222 97.7473 62.0001 95.2367 65.9141 93.304C65.9485 93.0591 66.0518 92.9213 66.3234 93.0247C66.4344 92.9826 66.5453 92.9481 66.6563 92.9251C66.6984 92.6764 66.8093 92.531 67.0886 92.6266C69.8587 91.3139 72.6249 89.9974 75.3949 88.6886C75.8349 88.4819 76.3361 88.3977 76.6345 87.9576C76.4585 87.2458 77.063 86.9472 77.4227 86.5454C80.5944 82.99 80.4911 75.332 77.4801 71.7499C73.7306 67.2913 66.7673 66.2504 61.8776 68.3132C60.638 68.8375 59.6891 69.645 58.7977 70.5137C58.6179 70.6898 58.4419 70.8658 58.2659 71.0419C58.0899 71.2179 57.9139 71.3978 57.7379 71.57C57.5657 71.7499 57.3859 71.9259 57.2022 72.102C56.9229 72.81 56.659 73.5218 56.3605 74.2222C54.0267 79.7523 55.6298 85.4853 60.5079 89.0751C61.0933 89.5076 62.3061 89.8176 60.8446 90.7437C55.1592 94.3488 50.1012 98.6352 46.3211 104.288C46.2331 104.418 46.0227 104.46 45.6324 104.67C45.8275 101.463 45.3569 98.4668 45.2766 95.4434C44.9476 83.2005 44.9782 70.9577 44.7945 58.7148C44.7218 53.8697 45.7472 49.4112 47.4498 44.9947C47.8744 43.8964 48.2953 42.7942 48.7162 41.6958C49.2212 37.708 51.3982 34.3631 53.0319 30.8422C54.8072 27.0189 57.0033 23.3908 59.0617 19.7054C59.4252 19.0586 60.0258 18.5419 60.5156 17.964C60.0947 17.6081 60.2095 17.1871 60.3664 16.7585C60.1559 15.9739 59.6279 15.4114 59.0502 14.8871C57.3935 14.6345 56.3223 15.3272 55.4729 16.7662C52.0524 22.5604 48.7506 28.4158 46.3134 34.7075C44.8557 38.4772 43.4975 42.2852 42.0857 46.074C39.3578 53.3952 37.4409 60.9422 35.6465 68.5313C35.153 70.6133 34.5446 72.6799 34.1008 74.7809C33.6111 77.1116 31.9583 78.7228 29.9802 79.4079C27.5163 80.2575 25.0982 78.9907 23.411 77.2111C20.0862 73.7094 16.5854 70.3454 13.7006 66.4532C10.3758 61.9717 6.56507 57.7045 5.52822 51.9677C4.74389 47.6086 4.63294 43.2534 7.39531 39.3727C8.27912 36.7435 10.0697 34.7726 12.1204 33.0313C15.5103 30.1533 18.8925 27.2562 22.4162 24.5504C25.0255 22.5489 27.8644 20.8497 30.5847 18.9935C32.9454 17.3823 35.1836 15.553 37.6705 14.1599C39.8437 12.9429 42.101 11.8522 44.3124 10.6811C47.5339 8.97421 50.7172 7.2061 53.8736 5.38058C56.5824 3.81147 60.2057 4.42763 62.6926 6.56315C64.7012 8.28533 65.5927 10.6581 66.5568 12.9429C68.2441 16.9384 69.4761 21.1022 70.5894 25.2929C71.3699 28.2398 72.7243 28.9248 76.4164 28.1364C79.9249 27.3863 83.529 27.2524 87.0374 26.6324C93.1437 25.5493 99.2883 25.9703 105.402 25.8402C107.939 25.7866 110.652 26.1387 113.269 26.4678C116.88 26.9194 120.488 27.4055 124.104 27.8532C125.462 28.0216 126.832 28.0943 128.19 28.2589C129.403 28.4043 130.206 27.8494 130.489 26.7587C131.431 23.1536 132.686 19.6518 133.967 16.1615C134.989 13.3792 136.06 10.5931 137.64 8.08633C139.894 4.51948 143.601 3.53592 147.362 5.42267C154.333 8.91298 161.182 12.5946 167.762 16.835C175.181 21.6151 182.336 26.7051 189.085 32.3768C191.365 34.2942 193.618 36.3264 194.514 39.3613C197.452 44.8991 197.467 50.567 195.023 56.2234C192.926 61.0685 189.395 64.9759 186.051 68.9561C183.606 71.8685 180.87 74.5475 178.192 77.2532C176.57 78.8912 174.699 79.9513 172.208 79.228C169.45 78.4243 167.977 76.4572 167.33 73.8624C166.056 68.7188 164.916 63.5446 163.515 58.424C161.56 51.2673 159.521 44.1298 156.625 37.3061C154.551 32.4266 152.753 27.4016 149.837 22.878C148.651 21.0372 147.764 18.9629 146.666 17.0302C145.793 15.4956 144.684 14.5694 142.828 14.8985C142.377 15.4152 141.799 15.863 141.6 16.525C141.539 16.7241 141.512 16.9384 141.531 17.1833C141.474 17.3364 141.413 17.4895 141.355 17.6387C144.921 23.2799 148.005 29.1659 150.79 35.2395C151.858 37.574 152.294 40.0501 153.266 42.3732C154.643 44.5431 154.605 47.2221 155.814 49.4533C156.946 51.5429 157.038 53.797 157.019 56.1162C156.958 64.4631 156.851 72.8176 157.015 81.1645C157.157 88.5891 156.3 95.9792 156.518 103.4C156.533 103.851 156.774 104.54 156.047 104.659C155.454 104.755 155.492 104.07 155.247 103.737C151.62 98.727 147.159 94.6167 141.925 91.3293C140.051 90.1505 140.066 90.1237 141.749 88.8187C146.685 84.9916 148.043 78.7802 145.147 73.2769C144.852 72.7181 144.581 72.1441 144.297 71.5777C140.479 67.8424 135.949 66.3958 130.727 67.6243C124.769 69.025 120.251 76.1625 122.191 82.2897C122.941 84.6587 124.689 86.4842 126.017 88.5393C128.902 90.7361 132.624 91.2068 135.624 93.193C136.554 93.8092 137.518 94.345 138.249 95.2023C142.671 97.1196 146.138 100.304 149.229 103.863C153.334 108.582 155.94 114.043 157.004 120.293C157.826 125.119 157.287 129.772 155.764 134.292C154.325 138.567 151.643 142.164 148.839 145.689C145.759 149.562 141.665 152.119 137.709 154.886C137.258 155.203 136.73 155.414 136.263 155.708C135.188 156.382 134.763 155.992 134.767 154.832C134.771 152.984 134.797 151.139 134.767 149.29C134.74 147.683 132.785 146.531 131.358 147.285C129.016 148.521 126.851 150.014 124.789 151.686C123.694 152.574 122.191 152.773 120.901 153.171C115.564 154.821 110.196 156.478 104.53 156.658C104.025 157.021 103.493 156.945 102.957 156.749C97.337 156.971 91.7702 156.401 86.3908 154.855C83.1693 153.929 80.0244 152.628 76.9215 151.265C74.6374 150.263 72.7856 148.659 70.7119 147.388C69.7974 146.833 69.0361 146.799 68.3436 147.021C67.6319 147.247 67.0886 147.947 67.0274 148.931C66.9126 150.791 66.3617 152.62 67.0427 154.503C67.1958 154.932 67.3832 155.716 66.7711 156.03ZM67.4636 74.4365C67.4445 73.3994 68.9902 71.5777 69.9237 71.5394C72.2767 71.4361 73.9487 72.5804 73.9601 74.3408C73.9754 76.2735 72.5751 77.4101 70.3484 77.2532C68.4163 77.2456 67.4942 76.35 67.4636 74.4365ZM134.009 74.5781C134.009 76.4457 132.835 77.7125 131.059 77.6283C128.917 77.525 128.171 76.3233 127.945 74.2413C127.777 72.7181 128.947 71.903 131.017 71.8991C133.466 71.8953 134.002 72.3775 134.009 74.5781ZM258.684 282.473C258.496 286.277 256.135 288.646 252.382 288.776C248.759 288.899 245.124 288.753 241.493 288.726C236.787 288.761 232.077 288.853 227.368 288.807C224.869 288.78 222.501 286.346 222.394 283.889C222.241 280.399 222.375 276.878 221.946 273.422C221.323 268.343 220.833 263.25 219.325 258.274C218.449 255.393 217.057 252.744 216.242 249.866C215.167 248.232 214.126 246.571 213.005 244.968C211.432 242.71 209.336 240.911 207.43 238.806C209.037 237.692 210.908 237.321 212.53 236.429C216.67 234.145 221.319 232.943 225.325 230.363C226.331 229.717 227.303 229.701 228.355 230.673C233.202 235.147 238.536 238.99 244.076 242.553C247.492 244.749 250.921 246.931 254.383 249.055C255.049 249.461 255.083 250.104 255.232 250.632C256.491 255.04 257.67 259.43 258.052 264.076C258.557 270.211 258.993 276.327 258.684 282.473ZM320.362 296.277C320.183 300.089 319.035 301.777 316.009 302.925C315.718 303.036 315.396 303.128 315.086 303.135C309.822 303.204 304.55 303.396 299.285 303.044C295.409 303.342 291.518 303.449 287.665 302.963C285.955 302.745 284.976 301.222 284.36 299.664C283.859 298.394 283.568 297.05 283.587 295.661C283.66 290.242 283.399 284.873 282.454 279.496C281.379 273.338 279.65 267.498 276.36 262.151C273.341 257.245 269.209 253.479 264.564 250.172C260.153 247.03 255.47 244.321 250.901 241.428C245.962 238.297 241.18 234.952 236.527 231.389C232.288 228.14 228.385 224.581 225.24 220.298C223.614 218.082 221.866 215.847 221.139 213.084C220.217 213.061 220.335 212.235 220.159 211.714C219.635 210.149 218.866 208.717 218.139 207.248C217.21 205.365 216.766 203.222 216.284 201.151C215.679 198.549 214.948 197.623 213.231 197.726C211.459 197.837 210.453 199.471 211.092 201.125C212.331 204.332 213.537 207.558 214.753 210.776C216.012 211.917 216.035 213.605 216.624 215.04C217.462 216.907 218.442 218.653 219.746 220.279C220.921 221.741 221.644 223.567 222.577 225.227C223.201 226.337 222.141 226.555 221.606 226.835C216.525 229.51 211.383 232.036 205.95 233.988C198.998 236.491 192.115 239.208 184.972 241.118C181.54 242.036 178.181 243.196 174.729 244.038C174.01 244.214 173.253 244.244 173.429 243.123C174.167 238.416 174.798 233.685 176.222 229.12C176.329 228.779 176.876 228.58 177.216 228.312C177.809 226.464 177.186 224.267 178.816 222.717C178.831 222.575 178.842 222.438 178.858 222.296C178.72 221.741 179.061 221.557 179.508 221.45C179.749 220.865 179.952 220.256 180.239 219.694C180.97 218.266 180.748 217.064 179.332 216.276C178.077 215.579 176.394 216.307 175.789 217.868C174.63 220.853 173.004 223.647 172.243 226.797C172.04 227.627 171.91 228.569 171.114 229.15C171.03 232.005 169.935 234.669 169.549 237.474C169.055 241.03 168.248 244.547 168.39 248.171C168.401 248.458 168.187 248.753 168.08 249.04C168.072 253.49 167.869 257.953 168.103 262.392C168.42 268.458 169.048 274.532 168.7 280.59C168.332 286.905 168.156 293.311 165.769 299.324C164.747 301.899 162.93 303.346 159.98 303.235C155.033 303.055 150.075 303.445 145.128 303.044C141.573 303.396 138.011 303.174 134.453 303.181C131.431 303.189 129.189 300.602 129.032 296.951C128.859 292.875 130.137 289.105 131.228 285.278C132.33 281.398 132.877 277.433 133.332 273.418C133.703 270.108 133.256 266.881 133.279 263.621C133.244 262.499 133.21 261.378 133.175 260.257C132.823 260.046 132.345 259.866 132.946 259.403C131.607 252.538 130.172 245.691 128.963 238.802C128.385 235.507 127.448 232.296 126.916 229.001C126.64 227.286 125.891 226.238 124.058 226.498C123.962 226.513 123.874 226.529 123.79 226.548C123.706 226.567 123.626 226.59 123.549 226.617C123.4 226.666 123.266 226.728 123.143 226.8C123.025 226.873 122.925 226.953 122.834 227.042C122.608 227.267 122.462 227.551 122.378 227.868C122.359 227.933 122.344 227.994 122.332 228.063C122.263 228.419 122.252 228.817 122.271 229.223C122.275 229.33 122.283 229.441 122.29 229.548C122.627 231.129 122.964 232.706 123.3 234.286C124.314 239.028 125.324 243.766 126.319 248.511C126.514 249.449 126.564 250.257 125.053 250.096C117.278 249.269 110.158 246.529 103.332 242.874C102.908 242.648 102.326 242.553 102.242 241.917C99.7742 241.186 97.9377 239.411 95.9826 237.907C93.8898 236.295 92.0533 234.347 90.148 232.503C89.4861 231.856 89.004 231.029 88.3536 230.363C87.2479 229.227 86.0006 228.396 84.3018 229.116C83.1426 230.758 83.6132 232.024 84.8834 233.482C89.1264 238.347 93.8707 242.576 99.3457 246.005C100.325 246.621 101.618 246.762 102.288 247.865C106.401 250.084 110.713 251.795 115.262 252.867C116.413 253.138 116.941 253.556 116.903 254.853C116.785 258.783 116.8 262.718 116.765 266.648C117.271 268.225 117.711 269.798 116.475 271.263C116.597 275.347 115.847 279.335 114.887 283.258C113.888 287.337 111.899 288.723 107.736 288.7C104.247 288.681 100.761 288.612 97.272 288.562C92.4398 288.853 87.6037 288.78 82.7753 288.612C79.9899 288.512 77.5298 286.124 77.3882 282.515C77.2276 278.451 78.5667 274.677 79.6035 270.862C80.5944 267.211 81.1645 263.506 81.6849 259.782C81.7002 259.124 81.3061 258.416 81.9259 257.834C81.9259 255.81 81.9335 253.781 81.9335 251.753C81.2334 250.938 81.7805 249.996 81.6657 249.12C81.2525 247.436 80.7169 245.568 80.7475 244.045C80.7934 241.803 80.3802 239.698 80.0894 237.555C79.2324 231.221 77.8971 224.975 76.4088 218.764C76.1945 217.872 75.5556 216.999 76.317 216.077C76.1792 213.83 74.8899 211.905 74.5417 209.716C74.2127 207.657 73.8798 205.598 73.5469 203.539C71.7946 197.887 71.148 191.966 69.4263 186.306C69.0322 183.815 68.7759 181.308 68.0719 178.862C68.049 178.782 68.0566 178.694 68.0796 178.598C68.0872 178.572 68.0949 178.541 68.1064 178.514C68.114 178.487 68.1255 178.461 68.137 178.43C68.1561 178.38 68.1829 178.33 68.2058 178.281C68.3206 178.055 68.466 177.802 68.5349 177.538C68.5693 177.4 68.5846 177.263 68.5655 177.121C68.4507 176.999 68.3474 176.876 68.2594 176.754C68.1982 176.673 68.1446 176.589 68.0949 176.505C68.0719 176.463 68.049 176.421 68.026 176.379C67.9801 176.294 67.9418 176.21 67.9074 176.122C67.6778 175.54 67.6702 174.897 67.7888 174.086C68.1752 171.449 67.6281 168.774 67.2991 166.126C67.2264 165.563 67.146 165.001 67.081 164.434C66.8629 162.505 67.081 161.013 69.3651 160.209C71.1633 159.578 71.8176 157.829 71.7181 155.816C71.611 153.695 71.8176 153.569 73.6732 154.591C80.648 158.437 88.1776 160.676 96.0247 161.304C101.779 161.767 107.621 161.476 113.353 160.136C118.089 159.03 122.6 157.404 126.962 155.265C127.911 154.798 128.599 153.278 129.552 153.764C130.298 154.147 129.678 155.655 129.843 156.646C130.382 159.957 134.323 162.081 137.319 160.546C141.742 158.276 145.923 155.659 149.237 151.835C150.017 150.932 151.1 150.301 151.926 149.432C156.112 145.035 159.127 139.952 160.768 134.085C160.891 133.649 160.933 133.209 161.365 132.953C161.568 131.759 160.726 129.937 161.851 129.508C162.911 129.099 163.73 130.897 164.713 131.644C168.516 134.533 172.526 137.162 177.067 138.64C182.672 140.461 188.362 141.751 194.372 142.046C205.9 142.612 217.416 141.923 228.929 142.329C233.654 142.497 238.352 143.003 243.035 143.757C250.844 145.012 257.861 147.943 263.929 153.037C264.843 153.803 265.578 154.782 266.397 155.666C268.203 156.933 269.4 158.751 270.689 160.477C276.073 167.691 278.322 176.183 280.515 184.695C281.05 186.777 281.475 188.87 282.229 190.918C282.86 192.625 282.623 194.649 282.806 196.528C283.212 200.692 283.813 204.829 284.754 208.905C286.215 215.22 287.773 221.515 290.749 227.34C293.515 232.744 296.924 237.704 301.026 242.189C304.5 245.986 308.211 249.575 311.184 253.812C311.547 254.336 312.06 254.753 311.926 255.484C313.514 256.464 314.149 258.274 314.807 259.74C316.567 263.674 317.753 267.85 318.847 272.048C319.697 275.305 319.437 278.608 319.903 281.872C320.584 286.641 320.592 291.474 320.362 296.277Z" fill="black"/>
<path d="M279.164 293.407C278.204 292.32 278.491 291.165 278.969 289.994C279.692 291.096 279.413 292.252 279.164 293.407Z" fill="#4B545B"/>
<path d="M324.552 299.209C324.602 298.252 323.29 297.047 325.061 296.404C325.268 297.407 325.601 298.432 324.552 299.209Z" fill="#4B545B"/>
<path d="M77.3542 253.322C76.3288 252.515 76.5239 251.57 77.0443 250.586C77.8095 251.424 77.3886 252.396 77.3542 253.322Z" fill="#4B545B"/>
<path d="M77.0596 258.615C76.6196 257.766 76.2523 256.924 77.3465 256.262C77.381 257.061 77.8056 257.911 77.0596 258.615Z" fill="#4B545B"/>
<path d="M325.038 286.649C324.047 285.941 324.373 285.11 324.813 284.268C325.497 285.003 325.176 285.837 325.038 286.649Z" fill="#4B545B"/>
<path d="M162.311 72.6878C161.718 72.6495 161.947 73.2925 161.645 73.4953C161.438 72.6572 161.411 71.819 161.687 70.8431C162.341 71.3942 162.502 71.9798 162.311 72.6878Z" fill="#4B545B"/>
<path d="M279.386 298.413C278.881 297.916 278.985 297.361 279.23 296.794C280.075 297.254 280.052 297.801 279.386 298.413Z" fill="#4B545B"/>
<path d="M40.1386 73.1816C39.9129 73.0859 39.6872 72.9864 39.4614 72.8869C39.4308 72.4047 39.3734 71.5895 39.8746 71.6813C40.7202 71.8383 40.284 72.6228 40.1386 73.1816Z" fill="#4B545B"/>
<path d="M110.686 293.427C110.212 293.993 109.695 294.001 109.148 293.537C109.615 292.864 110.128 292.845 110.686 293.427Z" fill="#364140"/>
<path d="M200.896 53.1391C200.77 52.5727 200.33 51.9489 201.187 51.5662C201.359 52.1402 201.278 52.6684 200.896 53.1391Z" fill="#364140"/>
<path d="M201.187 44.7846C200.617 44.7616 200.517 44.4172 200.601 43.9426C201.022 44.0689 201.454 44.1799 201.187 44.7846Z" fill="#364140"/>
<path d="M69.4267 186.306C69.0326 183.815 68.7725 181.304 68.0723 178.863C67.946 178.426 68.6615 177.795 68.5659 177.121C70.2723 177.248 71.9748 177.489 73.6812 177.481C79.0835 177.454 84.4782 177.615 89.8844 177.179C94.7472 176.784 99.5833 176.214 104.358 175.296C110.66 174.083 116.846 172.418 122.547 169.329C123.09 169.035 123.435 169.065 123.683 169.762C124.644 172.448 124.957 172.494 127.639 171.35C132.097 169.448 136.317 167.106 140.403 164.53C148.223 159.605 154.835 153.485 158.691 144.893C160.382 141.131 161.53 137.17 161.358 132.953C161.561 131.759 160.723 129.937 161.844 129.505C162.904 129.095 163.722 130.894 164.706 131.644C168.509 134.533 172.522 137.163 177.06 138.64C182.661 140.462 188.354 141.751 194.361 142.046C205.889 142.612 217.409 141.924 228.921 142.329C233.646 142.498 238.345 143.003 243.028 143.757C250.837 145.012 257.85 147.947 263.922 153.037C264.836 153.803 265.571 154.786 266.389 155.667C266.321 157.343 267.56 158.434 268.237 159.773C272.285 167.764 273.246 176.455 274.007 185.185C274.543 191.32 274.359 197.485 274.711 203.635C275.032 209.208 275.319 214.764 276.329 220.256C277.378 225.959 279.187 231.366 282.007 236.495C284.85 241.665 288.848 245.779 292.969 249.844C294.094 250.953 295.211 252.079 295.831 253.579C288.894 251.952 282.378 249.239 276.291 245.58C268.716 241.026 261.902 235.442 255.447 229.426C253.878 227.964 252.409 226.399 251.02 224.73C247.428 220.417 243.785 216.092 238.494 213.693C232.793 211.106 227.001 210.838 221.124 213.092C220.202 213.069 220.321 212.242 220.145 211.722C219.62 210.157 218.851 208.729 218.124 207.256C217.195 205.377 216.751 203.23 216.269 201.159C215.664 198.557 214.934 197.631 213.216 197.738C211.444 197.845 210.438 199.479 211.077 201.132C212.317 204.343 213.522 207.566 214.738 210.784C214.49 210.972 214.264 211.213 213.985 211.335C209.018 213.586 204.094 215.928 198.941 217.734C192.781 219.893 186.594 221.967 180.278 223.636C179.405 223.865 178.728 223.949 178.801 222.725C178.816 222.583 178.827 222.442 178.843 222.304C179.321 222.227 179.554 221.956 179.493 221.462C179.734 220.873 179.937 220.268 180.224 219.705C180.955 218.278 180.733 217.076 179.317 216.288C178.058 215.587 176.379 216.314 175.771 217.876C174.615 220.861 172.985 223.659 172.224 226.804C172.021 227.635 171.891 228.576 171.099 229.158C168.455 229.422 166.89 231.474 165.211 233.069C158.481 239.449 155.451 247.723 153.985 256.629C153.74 258.114 152.753 259.802 153.978 261.363C153.955 262.236 152.99 262.182 152.635 262.729C152.076 263.013 151.529 263.323 150.955 263.579C146 265.818 140.988 266.893 135.762 264.417C134.978 264.046 134.205 263.525 133.26 263.625C133.225 262.504 133.191 261.382 133.156 260.261C133.241 259.932 133.225 259.629 132.927 259.407C131.588 252.545 130.153 245.695 128.944 238.81C128.366 235.515 127.429 232.304 126.897 229.005C126.622 227.291 125.872 226.242 124.043 226.502C122.271 226.755 122.176 228.132 122.271 229.549C118.958 229.824 115.828 228.553 112.569 228.389C112.542 228.255 112.519 228.121 112.492 227.987C114.283 222.702 116.211 217.459 117.826 212.12C119.475 206.666 121.307 201.308 124.074 196.31C125.604 193.547 127.196 190.818 128.596 187.99C129.836 185.483 128.864 183.757 126.22 182.759C124.096 181.959 122.046 182.598 120.11 182.988C114.137 184.194 108.192 185.587 102.334 187.252C96.5799 188.89 90.7605 189.422 84.8302 189.349C79.9367 189.288 75.2499 188.518 71.1484 185.617C70.1116 184.883 69.8208 185.656 69.4114 186.31L69.4267 186.306Z" fill="#4B545B"/>
<path d="M144.302 71.5818C140.483 67.8427 135.953 66.3999 130.727 67.6284C124.774 69.0291 120.251 76.1666 122.191 82.2938C122.941 84.6627 124.69 86.4883 126.013 88.5434C125.577 88.4669 125.13 88.4286 124.709 88.3023C118.495 86.4615 112.087 85.6807 105.678 85.0301C101.381 84.5938 97.0198 84.724 92.7385 85.3861C88.9087 85.9754 84.9985 86.0941 81.2491 87.2307C79.7531 87.6823 78.2418 88.199 76.6272 87.9617C76.4512 87.246 77.0557 86.9513 77.4154 86.5495C80.5833 82.9941 80.4838 75.3361 77.4728 71.754C73.7233 67.2954 66.76 66.2545 61.8703 68.3173C59.8885 69.1554 58.6488 70.7168 57.195 72.1022C57.0419 71.5626 56.9157 71.0154 56.7358 70.4872C56.0816 68.5545 56.6096 66.3654 55.4618 64.5399C57.172 63.3535 58.8937 62.1863 60.5848 60.9769C64.0473 58.5046 67.8159 58.1181 71.9595 58.761C73.9529 59.0672 76.0878 60.0316 78.1691 58.895C81.6125 58.5429 83.5829 55.0488 82.1596 51.612C79.7186 45.7183 74.7984 43.047 68.9331 41.6769C68.6998 41.5621 68.7571 40.923 68.2559 41.3019C67.7892 41.2368 67.3224 41.1717 66.8518 41.1067C66.0598 40.6895 65.2678 40.6283 64.472 41.0876C64.0741 41.145 63.6762 41.1985 63.2821 41.2559C62.8727 41.0608 62.5896 41.1603 62.4481 41.608C59.9918 41.631 58.6029 43.6058 56.7435 44.7233C56.8774 41.5506 58.3198 38.7951 59.5518 35.9784C60.0836 34.7652 60.9942 33.7051 61.1893 32.0442C57.2677 34.5509 53.9199 37.3026 50.9088 40.4676C50.312 41.0952 49.7878 41.9065 48.7127 41.7037C49.2139 37.7197 51.3909 34.3748 53.0284 30.8501C54.7999 27.0268 56.9998 23.3988 59.0582 19.7133C59.4217 19.0665 60.0185 18.5498 60.5121 17.972C61.1549 17.4859 61.0822 17.0879 60.3629 16.7703C60.1563 15.9857 59.6283 15.4231 59.0467 14.8988C57.8683 13.2838 55.4388 13.3374 53.4302 14.9753C48.881 18.6914 44.99 23.062 41.3017 27.5818C34.7019 35.6761 29.3263 44.5817 24.4788 53.8164C22.9484 56.7288 19.1492 57.5134 16.6967 55.3473C12.7062 51.8263 9.81371 47.5668 8.34069 42.4041C8.04992 41.3899 8.21061 40.2303 7.39185 39.3845C8.27183 36.7553 10.0662 34.7843 12.1131 33.043C15.503 30.165 18.8852 27.2679 22.4089 24.5622C25.0144 22.5606 27.8571 20.8614 30.5736 19.0053C32.9381 17.3941 35.1763 15.5647 37.6594 14.1717C39.8325 12.9546 42.0899 11.8639 44.3013 10.6928C47.5228 8.98596 50.7061 7.21785 53.8625 5.39233C56.5713 3.82705 60.1984 4.43938 62.6853 6.5749C64.6939 8.29709 65.5854 10.6737 66.5495 12.9585C68.2368 16.9501 69.4688 21.1178 70.5821 25.3085C71.3665 28.2553 72.7171 28.9404 76.413 28.152C79.9176 27.4019 83.5255 27.2679 87.034 26.648C93.1403 25.5649 99.2848 25.9859 105.395 25.8558C107.935 25.8022 110.644 26.1543 113.261 26.4796C116.873 26.935 120.485 27.4172 124.096 27.865C125.455 28.0334 126.824 28.1061 128.183 28.2706C129.395 28.4199 130.199 27.8611 130.482 26.7704C131.423 23.1615 132.678 19.6635 133.96 16.1694C134.981 13.3871 136.053 10.601 137.633 8.09808C139.886 4.53123 143.594 3.54767 147.355 5.4306C154.326 8.92473 161.174 12.6064 167.751 16.843C175.17 21.623 182.328 26.7168 189.074 32.3848C191.358 34.3021 193.607 36.3343 194.503 39.373C194.38 39.5146 194.17 39.6409 194.147 39.7978C193.229 45.6839 190.16 50.307 186.105 54.5665C183.212 57.6052 179.229 57.1575 176.964 53.0357C173.027 45.8676 168.991 38.7683 164.094 32.1781C159.384 25.8366 154.257 19.9199 148.246 14.7802C146.471 13.2646 143.976 13.2876 142.817 14.9103C142.232 15.5839 141.432 16.1426 141.524 17.1989C141.463 17.352 141.405 17.5012 141.344 17.6543C144.91 23.2954 147.998 29.1777 150.779 35.2512C151.85 37.5858 152.286 40.0619 153.254 42.3849C153.048 42.6452 152.902 42.5954 152.677 42.362C151.093 40.7125 149.559 39.0018 147.875 37.4595C145.713 35.477 143.418 33.6439 140.575 32.0709C140.774 33.2267 141.268 33.8735 141.639 34.5853C143.318 37.781 144.986 40.988 145.12 44.7156C142.729 42.9858 140.342 41.3975 137.193 41.2406C129.966 40.8809 124.544 44.2258 120.397 49.6641C117.451 53.5256 119.23 58.0454 123.297 58.9256C124.533 59.6489 125.853 59.3734 127.1 59.094C130.275 58.3898 133.443 58.1908 136.634 58.8797C140.476 59.7101 143.184 62.4733 146.261 64.6088C145.836 67.0046 145.354 69.3812 144.29 71.5971L144.302 71.5818Z" fill="#4B545B"/>
<path d="M141.872 99.5118C140.751 98.0001 138.857 97.1391 138.249 95.2025C137.518 94.3453 136.554 93.8095 135.624 93.1933C132.625 91.2071 128.902 90.7363 126.017 88.5396C125.581 88.4631 125.133 88.4248 124.712 88.2985C118.499 86.4577 112.09 85.6769 105.682 85.0302C101.389 84.5939 97.0275 84.724 92.7462 85.3822C88.9125 85.9754 85.0062 86.0941 81.2567 87.2269C79.7607 87.6823 78.2495 88.1952 76.6349 87.9579C76.3365 88.398 75.8352 88.4822 75.3953 88.6889C72.6252 89.9977 69.859 91.3142 67.089 92.6269C66.9474 92.7264 66.802 92.8259 66.6567 92.9254C66.5457 92.9484 66.4347 92.9828 66.3238 93.0249C66.1899 93.1206 66.056 93.2163 65.9182 93.312C65.5624 94.8237 64.0818 95.3212 63.1214 96.2512C59.3566 99.8946 56.5407 104.135 54.6851 108.999C51.3985 117.614 51.0504 126.355 54.0806 135.104C55.1863 138.292 56.8315 141.242 59.1462 143.787C60.1218 144.855 61.2505 145.383 62.5284 144.851C63.791 144.323 64.5983 143.24 64.7819 141.767C65.0191 139.884 65.2946 138.001 65.6466 136.133C65.9221 134.66 66.714 133.389 68.2865 133.244C69.706 133.117 70.5439 134.243 71.1063 135.452C75.2499 144.373 82.416 149.402 91.8509 151.373C99.1854 152.907 106.501 152.532 113.663 150.385C121.663 147.993 127.345 142.819 130.926 135.314C131.488 134.132 132.276 133.137 133.593 133.244C135.15 133.37 136.007 134.541 136.294 136.057C136.696 138.169 137.132 140.282 137.422 142.413C137.61 143.761 138.448 144.43 139.554 144.84C140.667 145.257 141.604 144.928 142.469 144.044C146.314 140.117 148.323 135.261 149.275 130.01C151.319 118.793 148.64 108.636 141.872 99.5118ZM128.99 114.514C128.221 116.906 126.74 118.915 124.67 120.304C123.538 121.062 123.404 121.893 123.27 123.098C122.26 132.222 118.851 139.899 110.109 144.235C103.302 147.611 96.4995 147.592 90.0374 143.611C84.4514 140.171 80.7899 135.142 79.2863 128.613C78.8081 126.55 78.5441 124.461 78.215 122.383C78.0582 121.372 77.7215 120.733 76.8721 120.193C74.9247 118.95 73.9146 116.937 72.828 114.996C72.0858 113.672 72.2847 112.336 73.5856 111.839C74.7716 111.383 76.2905 111.188 77.0863 113.021C79.1868 117.867 85.033 119.757 89.5974 119.34C89.8805 119.313 90.1369 119.061 90.4085 118.915C89.4864 116.512 87.2941 114.985 86.1846 112.677C84.5509 109.286 83.5906 105.861 84.7192 102.114C85.1669 99.8371 85.274 97.3419 87.7571 96.1593C89.9035 95.1337 92.0728 94.1616 94.5406 94.0659C96.2891 93.997 98.0146 93.6717 99.7822 93.687C104.289 93.7291 108.758 94.0506 112.993 95.6924C115.151 96.5305 116.46 98.2527 116.869 100.587C117.661 100.744 117.523 101.379 117.577 101.938C118.181 108.195 116.349 113.58 111.83 118.004C111.467 118.36 111.073 118.701 111.084 119.279C115.09 119.485 118.828 118.774 122.138 116.313C123.366 115.406 124.108 114.185 124.632 112.872C125.367 111.047 126.832 111.529 127.98 111.804C129.273 112.114 129.327 113.477 128.99 114.514Z" fill="white"/>
<path d="M221.139 213.084C227.012 210.834 232.809 211.098 238.509 213.685C243.801 216.085 247.443 220.41 251.036 224.723C252.425 226.391 253.894 227.957 255.462 229.418C261.917 235.435 268.731 241.018 276.306 245.573C282.394 249.231 288.909 251.945 295.846 253.571C296.221 253.736 296.596 253.9 296.971 254.065C296.879 254.689 297.227 255.133 297.541 255.626C300.177 259.767 302.35 264.138 303.754 268.845C305.881 275.994 306.413 283.308 305.342 290.682C304.753 294.747 303.433 298.585 300.242 301.483C299.783 301.9 299.213 302.282 299.289 303.044C295.414 303.342 291.522 303.45 287.67 302.964C285.959 302.745 284.98 301.222 284.364 299.665C283.863 298.394 283.568 297.051 283.587 295.662C283.66 290.242 283.4 284.873 282.459 279.496C281.38 273.338 279.654 267.498 276.364 262.152C273.345 257.245 269.213 253.479 264.568 250.173C260.157 247.031 255.47 244.325 250.906 241.428C245.966 238.297 241.184 234.952 236.531 231.389C232.288 228.14 228.39 224.581 225.245 220.299C223.619 218.086 221.87 215.851 221.143 213.084H221.139Z" fill="white"/>
<path d="M69.4267 186.306C69.8361 185.652 70.1269 184.879 71.1637 185.614C75.2652 188.515 79.952 189.288 84.8455 189.345C90.7758 189.418 96.5952 188.886 102.349 187.248C108.207 185.583 114.157 184.186 120.125 182.984C122.061 182.594 124.112 181.955 126.235 182.755C128.879 183.754 129.851 185.48 128.611 187.986C127.211 190.815 125.619 193.543 124.089 196.307C121.319 201.309 119.49 206.663 117.841 212.116C116.226 217.455 114.298 222.698 112.508 227.983C111.685 228.014 110.889 227.957 110.067 227.746C106.321 226.793 102.629 225.725 99.0553 224.214C89.2531 220.069 81.008 214.034 75.1007 205.036C74.7066 204.439 74.4962 203.586 73.5473 203.536C71.795 197.883 71.1484 191.963 69.4267 186.303V186.306Z" fill="white"/>
<path d="M65.9221 93.3043C65.5662 94.8237 64.0856 95.3212 63.1214 96.2512C59.3566 99.8946 56.5407 104.135 54.6851 108.999C51.3985 117.614 51.0504 126.355 54.0806 135.104C55.1863 138.292 56.8315 141.242 59.1462 143.787C60.1218 144.859 61.2505 145.383 62.5284 144.851C63.791 144.323 64.5983 143.244 64.7857 141.767C65.0191 139.884 65.2984 138.001 65.6466 136.137C65.9221 134.664 66.7179 133.389 68.2865 133.248C69.706 133.117 70.5439 134.246 71.1063 135.456C75.2537 144.377 82.416 149.402 91.8547 151.377C99.1892 152.911 106.501 152.532 113.667 150.389C121.667 147.993 127.349 142.823 130.926 135.318C131.492 134.132 132.28 133.14 133.593 133.248C135.15 133.374 136.007 134.545 136.294 136.057C136.695 138.173 137.132 140.282 137.426 142.413C137.614 143.764 138.452 144.43 139.557 144.844C140.671 145.257 141.608 144.928 142.473 144.044C146.314 140.117 148.323 135.264 149.279 130.01C151.318 118.793 148.644 108.636 141.872 99.5118C140.751 98.0001 138.861 97.1391 138.253 95.2026C142.676 97.1199 146.138 100.308 149.229 103.863C153.335 108.586 155.94 114.047 157.004 120.293C157.827 125.119 157.283 129.773 155.764 134.292C154.326 138.567 151.644 142.165 148.839 145.689C145.759 149.562 141.662 152.123 137.709 154.886C137.258 155.204 136.73 155.41 136.259 155.705C135.184 156.379 134.76 155.992 134.763 154.832C134.771 152.984 134.794 151.135 134.763 149.291C134.737 147.683 132.781 146.535 131.354 147.285C129.013 148.522 126.844 150.014 124.785 151.687C123.691 152.574 122.187 152.77 120.898 153.171C115.561 154.821 110.189 156.478 104.526 156.658C103.941 155.678 103.436 156.042 102.95 156.75C97.3297 156.972 91.7629 156.401 86.3835 154.855C83.162 153.929 80.0171 152.628 76.9142 151.266C74.63 150.263 72.7783 148.659 70.7046 147.393C69.7901 146.834 69.0288 146.803 68.3363 147.025C67.6246 147.251 67.0852 147.951 67.0239 148.935C66.9092 150.795 66.3582 152.624 67.0392 154.507C67.1923 154.936 67.3836 155.72 66.7676 156.034C66.2549 156.298 65.6772 156.038 65.1683 155.728C58.3925 151.606 52.5004 146.608 48.4487 139.616C46.9145 136.968 45.935 134.101 44.7642 131.326C44.4237 130.515 44.527 129.011 44.4773 127.821C44.2477 122.138 44.8561 116.673 47.4616 111.449C49.4894 107.384 52.3397 104.07 55.4541 100.882C58.5149 97.7514 61.9966 95.237 65.9106 93.3081L65.9221 93.3043Z" fill="#DBDCD6"/>
<path d="M161.366 132.953C161.542 137.17 160.39 141.131 158.699 144.893C154.838 153.485 148.231 159.605 140.411 164.53C136.324 167.106 132.104 169.448 127.647 171.35C124.965 172.494 124.651 172.448 123.691 169.762C123.442 169.061 123.098 169.035 122.555 169.329C116.854 172.418 110.667 174.083 104.366 175.296C99.587 176.214 94.7548 176.784 89.892 177.179C84.4858 177.619 79.0873 177.454 73.6888 177.481C71.9862 177.489 70.2799 177.248 68.5735 177.121C67.747 176.249 67.6017 175.38 67.793 174.086C68.1832 171.45 67.6323 168.774 67.3032 166.126C67.2343 165.563 67.1502 165.001 67.089 164.434C66.8709 162.502 67.0851 161.013 69.3731 160.209C71.1675 159.578 71.8217 157.829 71.7223 155.816C71.6151 153.696 71.8217 153.569 73.6773 154.595C80.6521 158.441 88.1817 160.676 96.0289 161.308C101.783 161.771 107.625 161.48 113.357 160.14C118.093 159.031 122.604 157.408 126.966 155.269C127.919 154.802 128.607 153.282 129.556 153.768C130.302 154.151 129.686 155.655 129.847 156.65C130.386 159.957 134.331 162.085 137.323 160.55C141.746 158.281 145.928 155.663 149.241 151.84C150.021 150.94 151.104 150.305 151.931 149.436C156.116 145.039 159.131 139.956 160.773 134.09C160.895 133.653 160.937 133.213 161.369 132.957L161.366 132.953Z" fill="#364140"/>
<path d="M216.246 249.87C215.171 248.236 214.126 246.575 213.009 244.968C211.437 242.714 209.344 240.911 207.435 238.81C209.038 237.696 210.912 237.325 212.535 236.43C216.674 234.145 221.323 232.943 225.329 230.368C226.339 229.717 227.307 229.702 228.359 230.678C233.207 235.151 238.54 238.998 244.08 242.557C247.497 244.754 250.921 246.935 254.383 249.055C255.049 249.465 255.084 250.108 255.233 250.632C256.492 255.041 257.67 259.43 258.053 264.077C258.558 270.211 258.994 276.327 258.684 282.473C258.493 286.277 256.136 288.65 252.379 288.777C248.755 288.899 245.121 288.757 241.49 288.731C243.824 281.528 245.075 274.172 243.755 266.637C242.894 261.727 240.832 257.322 236.627 254.237C230.854 250.001 224.112 249.396 217.298 249.055C216.709 249.025 216.307 249.231 216.238 249.87H216.246Z" fill="#DBDCD6"/>
<path d="M142.829 14.8988C143.984 13.2762 146.482 13.2532 148.258 14.7687C154.268 19.9047 159.395 25.8252 164.105 32.1667C169.002 38.7607 173.039 45.8561 176.976 53.0243C179.241 57.1499 183.227 57.5938 186.116 54.5551C190.172 50.2956 193.236 45.6763 194.158 39.7864C194.181 39.6295 194.392 39.5032 194.514 39.3616C197.456 44.8994 197.468 50.5634 195.023 56.2199C192.926 61.065 189.395 64.9724 186.055 68.9526C183.61 71.865 180.874 74.544 178.192 77.2497C176.57 78.8877 174.699 79.9478 172.209 79.2245C169.45 78.4208 167.977 76.4537 167.33 73.8589C166.052 68.7153 164.912 63.5411 163.516 58.4205C161.561 51.2638 159.521 44.1263 156.625 37.3026C154.552 32.4192 152.753 27.3981 149.838 22.8745C148.652 21.0337 147.764 18.9594 146.666 17.0267C145.794 15.492 144.688 14.5659 142.829 14.895V14.8988Z" fill="#364140"/>
<path d="M7.39951 39.3731C8.21827 40.2227 8.06141 41.3785 8.34836 42.3927C9.82137 47.5554 12.7138 51.815 16.7044 55.3359C19.1568 57.502 22.9599 56.7136 24.4864 53.8051C29.334 44.5741 34.7095 35.6647 41.3094 27.5704C44.9977 23.0468 48.8849 18.6762 53.4378 14.964C55.4465 13.326 57.876 13.2724 59.0544 14.8874C57.4016 14.6348 56.3303 15.3275 55.4771 16.7665C52.0566 22.5607 48.7548 28.4162 46.3176 34.7079C44.8561 38.4776 43.5017 42.2894 42.0899 46.0743C39.362 53.3956 37.4413 60.9388 35.6507 68.5317C35.1572 70.6136 34.5488 72.6802 34.105 74.7813C33.6153 77.112 31.9625 78.727 29.9844 79.4083C27.5205 80.2579 25.1024 78.9911 23.4152 77.2115C20.0942 73.7097 16.5934 70.3457 13.7048 66.4536C10.38 61.9721 6.56926 57.7049 5.53242 51.9681C4.74808 47.609 4.63713 43.2538 7.39951 39.3731Z" fill="#364140"/>
<path d="M296.971 254.069C296.596 253.904 296.221 253.74 295.846 253.575C295.226 252.075 294.109 250.953 292.984 249.84C288.863 245.775 284.865 241.661 282.022 236.491C279.203 231.363 277.389 225.955 276.345 220.253C275.335 214.761 275.048 209.204 274.726 203.632C274.37 197.481 274.558 191.316 274.022 185.181C273.261 176.452 272.301 167.76 268.253 159.769C267.575 158.434 266.336 157.339 266.405 155.663C268.211 156.93 269.408 158.747 270.697 160.473C276.081 167.688 278.33 176.18 280.523 184.695C281.058 186.777 281.483 188.867 282.237 190.914C282.864 192.625 282.631 194.646 282.814 196.528C283.22 200.692 283.821 204.829 284.762 208.905C286.223 215.224 287.781 221.516 290.757 227.34C293.523 232.748 296.932 237.704 301.034 242.189C304.508 245.986 308.219 249.576 311.188 253.816C311.555 254.337 312.068 254.758 311.93 255.489C311.115 255.531 310.304 255.577 309.489 255.615C305.231 255.814 301.122 254.777 296.974 254.069H296.971Z" fill="#364140"/>
<path d="M216.246 249.87C216.319 249.231 216.716 249.025 217.306 249.055C224.12 249.396 230.861 250.001 236.635 254.237C240.839 257.322 242.902 261.727 243.762 266.637C245.082 274.172 243.831 281.528 241.497 288.731C236.788 288.765 232.078 288.853 227.372 288.807C224.873 288.784 222.505 286.35 222.398 283.889C222.245 280.399 222.379 276.878 221.95 273.426C221.323 268.348 220.837 263.254 219.326 258.279C218.45 255.393 217.061 252.745 216.246 249.87Z" fill="white"/>
<path d="M152.654 262.726C153.006 262.178 153.974 262.232 153.997 261.359C154.395 261.409 154.754 261.302 155.064 261.049C159.013 257.865 162.877 254.589 166.156 250.686C166.699 250.039 167.139 249.239 168.08 249.04C168.073 253.491 167.874 257.949 168.103 262.389C168.421 268.455 169.048 274.532 168.696 280.59C168.333 286.905 168.157 293.312 165.765 299.324C164.744 301.9 162.927 303.346 159.977 303.235C155.03 303.052 150.071 303.442 145.124 303.04C145.063 302.118 145.813 301.708 146.356 301.226C148.962 298.922 150.121 295.868 150.867 292.611C152.359 286.094 152.608 279.45 152.776 272.802C152.803 271.792 152.964 270.77 152.99 269.783C153.059 267.433 153.763 265.018 152.65 262.718L152.654 262.726Z" fill="#DBDCD6"/>
<path d="M152.654 262.726C153.763 265.026 153.063 267.441 152.994 269.79C152.964 270.778 152.807 271.8 152.78 272.81C152.612 279.458 152.363 286.101 150.871 292.619C150.125 295.872 148.966 298.93 146.36 301.234C145.817 301.716 145.063 302.125 145.128 303.048C141.574 303.404 138.012 303.178 134.453 303.186C131.431 303.189 129.189 300.606 129.036 296.955C128.86 292.879 130.142 289.11 131.228 285.282C132.334 281.402 132.881 277.437 133.332 273.422C133.707 270.112 133.26 266.886 133.279 263.625C134.228 263.525 135.001 264.046 135.781 264.417C141.007 266.893 146.019 265.818 150.974 263.579C151.544 263.323 152.095 263.013 152.654 262.729V262.726Z" fill="white"/>
<path d="M296.971 254.069C301.118 254.773 305.227 255.81 309.486 255.615C310.3 255.577 311.112 255.531 311.927 255.489C313.518 256.468 314.149 258.279 314.808 259.744C316.567 263.679 317.754 267.85 318.852 272.052C319.701 275.309 319.441 278.612 319.908 281.876C320.589 286.649 320.596 291.478 320.367 296.281C320.187 300.093 319.039 301.781 316.013 302.929C315.718 303.04 315.401 303.136 315.091 303.14C309.822 303.212 304.554 303.4 299.285 303.052C299.209 302.294 299.779 301.907 300.238 301.49C303.429 298.589 304.749 294.754 305.338 290.69C306.409 283.319 305.878 276.002 303.75 268.853C302.35 264.145 300.173 259.771 297.537 255.634C297.223 255.14 296.879 254.696 296.967 254.073L296.971 254.069Z" fill="#DBDCD6"/>
<path d="M116.479 271.264C116.601 275.347 115.848 279.335 114.887 283.258C113.889 287.338 111.899 288.723 107.74 288.7C104.251 288.681 100.762 288.612 97.2762 288.562C99.2198 281.758 100.685 274.903 99.6062 267.754C98.7951 262.4 96.5607 257.892 92.3292 254.36C90.7681 253.055 88.595 252.76 87.3439 251.053C90.8141 251.799 94.1044 251.087 97.3604 249.905C99.0361 249.296 100.433 248.014 102.292 247.865C106.405 250.081 110.717 251.795 115.266 252.867C116.418 253.139 116.946 253.56 116.907 254.853C116.789 258.784 116.804 262.718 116.77 266.648C116.008 268.145 116.517 269.721 116.479 271.264Z" fill="#DBDCD6"/>
<path d="M87.34 251.053C88.5911 252.76 90.7643 253.055 92.3253 254.36C96.553 257.892 98.7912 262.4 99.6024 267.754C100.681 274.903 99.2198 281.758 97.2723 288.562C92.4401 288.849 87.604 288.78 82.7756 288.608C79.9903 288.512 77.534 286.124 77.3886 282.512C77.2279 278.451 78.567 274.674 79.6038 270.858C80.5948 267.207 81.1648 263.502 81.6852 259.779C82.7794 259.254 82.5231 258.566 81.9262 257.835C81.9262 255.806 81.93 253.778 81.9339 251.753C82.5919 251.256 82.3126 250.173 83.1544 249.79C84.1683 250.077 85.186 250.36 86.1999 250.647C86.3453 250.747 86.4945 250.842 86.6399 250.942C86.8732 250.98 87.1028 251.015 87.3362 251.053H87.34Z" fill="white"/>
<path d="M216.625 215.04C217.462 216.908 218.442 218.653 219.747 220.279C220.921 221.741 221.644 223.567 222.578 225.228C223.201 226.338 222.142 226.556 221.606 226.835C216.521 229.51 211.383 232.036 205.95 233.988C198.998 236.487 192.115 239.204 184.972 241.114C181.54 242.032 178.181 243.196 174.73 244.038C174.011 244.214 173.253 244.245 173.429 243.119C174.167 238.412 174.799 233.682 176.222 229.116C176.329 228.779 176.872 228.576 177.213 228.312C177.84 228.431 178.449 228.397 179.076 228.243C185.837 226.59 192.532 224.738 199.04 222.227C204.948 219.946 210.821 217.585 216.621 215.04H216.625Z" fill="#DBDCD6"/>
<path d="M144.302 71.5818C145.365 69.3659 145.847 66.9893 146.272 64.5935C146.62 64.7313 146.995 64.827 147.313 65.0145C150.58 66.9549 153.706 64.1381 153.323 61.1185C153.243 60.4947 153.316 59.8556 153.32 59.2203C153.66 58.8835 153.496 58.6616 153.155 58.4779C152.845 58.2061 152.853 57.8043 152.719 57.4599C151.077 53.2233 149.436 48.979 145.893 45.86C145.637 45.4734 145.384 45.0869 145.128 44.7004C144.994 40.9689 143.322 37.7657 141.646 34.5701C141.271 33.8582 140.782 33.2114 140.583 32.0557C143.429 33.6286 145.721 35.4618 147.883 37.4442C149.566 38.9865 151.1 40.6934 152.684 42.3467C152.91 42.584 153.059 42.6299 153.262 42.3697C154.639 44.5396 154.601 47.2186 155.81 49.4498C156.943 51.5432 157.035 53.7935 157.019 56.1127C156.958 64.4634 156.851 72.8179 157.012 81.1648C157.157 88.5894 156.296 95.9795 156.514 103.4C156.526 103.852 156.771 104.541 156.044 104.659C155.451 104.755 155.489 104.07 155.248 103.737C151.617 98.7273 147.16 94.617 141.926 91.3296C140.051 90.1508 140.066 90.124 141.75 88.819C146.685 84.9919 148.04 78.7805 145.147 73.2772C144.853 72.7184 144.581 72.1444 144.302 71.578V71.5818Z" fill="#364140"/>
<path d="M55.4694 64.5362C56.6172 66.3617 56.0892 68.5508 56.7435 70.4835C56.9233 71.0116 57.0496 71.5589 57.2026 72.0985C56.9233 72.8065 56.6593 73.5222 56.3609 74.2225C54.027 79.7527 55.6301 85.4857 60.5083 89.0755C61.0936 89.5041 62.3065 89.8141 60.845 90.7402C55.1595 94.3454 50.1015 98.6355 46.3176 104.288C46.2334 104.414 46.023 104.457 45.6328 104.667C45.8241 101.46 45.3535 98.4633 45.2731 95.4399C44.9479 83.1971 44.9747 70.9542 44.791 58.7114C44.7183 53.8663 45.7437 49.4077 47.4463 44.9913C47.871 43.8929 48.2918 42.7907 48.7127 41.6885C49.7878 41.8913 50.312 41.08 50.9088 40.4523C53.9199 37.2873 57.2676 34.5357 61.1893 32.0289C60.998 33.6899 60.0836 34.75 59.5518 35.9632C58.316 38.7799 56.8774 41.5354 56.7435 44.7081C56.6096 44.9568 56.4795 45.2018 56.3456 45.4505C53.6712 48.0721 51.3718 51.0304 50.0327 54.5092C48.9231 57.3948 47.7677 60.4144 49.0647 63.6789C49.6348 65.1141 50.4382 65.7723 51.9878 65.803C53.3575 65.8298 54.2566 64.8003 55.4656 64.5324L55.4694 64.5362Z" fill="#364140"/>
<path d="M258.209 137.687C259.457 135.586 260.869 133.688 261.144 131.009C261.672 125.865 259.748 121.923 255.964 118.846C251.552 115.256 246.502 114.212 240.767 115.004C237.296 115.482 234.075 116.596 230.609 117.557C234.722 112.003 243.146 106.535 254.005 107.886C263.6 109.08 273.517 116.171 275.947 126.998C275.461 126.998 275.159 127.274 274.853 127.633C270.422 132.83 265.066 136.501 258.209 137.683V137.687Z" fill="#4B545B"/>
<path d="M73.5473 203.543C74.4961 203.589 74.7104 204.443 75.1006 205.044C81.008 214.037 89.253 220.076 99.0553 224.221C102.633 225.733 106.321 226.804 110.067 227.754C110.889 227.964 111.681 228.021 112.507 227.991C112.534 228.125 112.557 228.259 112.584 228.393C111.693 230.169 110.801 231.944 109.906 233.724C109.493 233.835 109.095 233.957 109.232 234.531C108.681 235.392 108.134 236.25 107.583 237.111C107.071 237.149 106.791 237.406 106.814 237.941C105.625 239.086 104.565 240.383 103.034 241.125C102.766 241.014 102.671 241.194 102.59 241.393C102.472 241.569 102.357 241.745 102.238 241.921C99.7669 241.191 97.9342 239.415 95.9791 237.911C93.8863 236.299 92.0498 234.352 90.1445 232.507C89.4826 231.864 88.9967 231.033 88.3501 230.371C87.2444 229.235 85.9971 228.404 84.2984 229.124C82.1137 226.265 80.6024 223.019 78.8539 219.904C78.1194 218.595 78.0275 216.762 76.3135 216.081C76.1757 213.834 74.8864 211.909 74.5382 209.72C74.2092 207.661 73.8763 205.602 73.5435 203.543H73.5473Z" fill="#DBDCD6"/>
<path d="M102.246 241.922C102.365 241.746 102.48 241.569 102.598 241.393C102.747 241.305 102.897 241.214 103.042 241.126C104.572 240.383 105.632 239.086 106.822 237.941C107.365 237.934 107.645 237.677 107.591 237.111C108.142 236.25 108.689 235.393 109.24 234.531C109.726 234.482 109.963 234.221 109.914 233.724C110.805 231.948 111.696 230.172 112.592 228.393C115.851 228.554 118.981 229.828 122.294 229.552C123.645 235.875 125.003 242.193 126.327 248.519C126.522 249.457 126.568 250.265 125.061 250.104C117.286 249.277 110.162 246.537 103.337 242.882C102.912 242.656 102.33 242.561 102.25 241.925L102.246 241.922Z" fill="#364140"/>
<path d="M76.3173 216.077C78.0314 216.758 78.1232 218.592 78.8578 219.901C80.6063 223.016 82.1176 226.261 84.3022 229.12C83.1429 230.758 83.6135 232.029 84.8838 233.487C89.123 238.351 93.8672 242.58 99.3422 246.009C100.322 246.621 101.615 246.767 102.284 247.869C100.425 248.018 99.0285 249.3 97.3527 249.909C94.093 251.091 90.8026 251.803 87.3362 251.057C87.1028 251.019 86.8733 250.984 86.6399 250.946C86.5863 250.709 86.483 250.544 86.1999 250.651C85.186 250.364 84.1683 250.081 83.1544 249.794C82.768 249.323 82.2706 249.109 81.6661 249.124C81.2529 247.44 80.7172 245.573 80.7478 244.049C80.7938 241.803 80.3806 239.702 80.0898 237.559C79.2327 231.225 77.8975 224.979 76.4092 218.768C76.1949 217.876 75.5598 217.003 76.3173 216.081V216.077Z" fill="#364140"/>
<path d="M258.21 137.687C265.066 136.504 270.422 132.83 274.853 127.637C275.159 127.277 275.461 127.002 275.947 127.002C277.921 132.586 277.347 138.093 275.316 143.508C274.348 146.095 273.383 148.713 271.195 150.642C270.238 151.484 269.68 151.87 268.505 150.722C264.113 146.432 258.871 143.42 252.612 141.143C254.95 140.178 256.499 138.82 258.21 137.691V137.687Z" fill="#364140"/>
<path d="M168.08 249.044C167.143 249.243 166.699 250.043 166.156 250.689C162.877 254.593 159.013 257.869 155.064 261.053C154.754 261.306 154.395 261.409 153.997 261.363C152.772 259.798 153.759 258.11 154.004 256.629C155.47 247.723 158.5 239.449 165.23 233.069C166.913 231.474 168.474 229.422 171.118 229.158C171.034 232.013 169.94 234.677 169.549 237.482C169.056 241.037 168.252 244.555 168.39 248.179C168.402 248.466 168.187 248.757 168.08 249.048V249.044Z" fill="#364140"/>
<path d="M216.625 215.04C210.824 217.585 204.951 219.946 199.044 222.227C192.536 224.738 185.84 226.59 179.08 228.244C178.452 228.397 177.84 228.431 177.217 228.312C177.81 226.464 177.186 224.267 178.816 222.717C178.743 223.942 179.42 223.858 180.293 223.628C186.61 221.959 192.796 219.889 198.956 217.727C204.11 215.92 209.034 213.574 214 211.328C214.275 211.202 214.501 210.96 214.754 210.777C216.012 211.921 216.035 213.605 216.625 215.044V215.04Z" fill="#364140"/>
<path d="M70.3487 77.2573C68.4166 77.2497 67.4945 76.3503 67.4639 74.4406C67.4448 73.4035 68.9905 71.5818 69.924 71.5397C72.277 71.4363 73.949 72.5806 73.9643 74.3411C73.9796 76.2738 72.5793 77.4104 70.3487 77.2535V77.2573Z" fill="white"/>
<path d="M131.018 71.8994C133.466 71.8994 134.002 72.3778 134.01 74.5784C134.014 76.446 132.835 77.7128 131.064 77.6286C128.921 77.5252 128.175 76.3235 127.945 74.2416C127.781 72.7184 128.952 71.8994 131.018 71.8994Z" fill="white"/>
<path d="M116.479 271.264C116.517 269.721 116.004 268.145 116.77 266.648C117.275 268.225 117.715 269.794 116.479 271.264Z" fill="#364140"/>
<path d="M81.6661 249.12C82.2706 249.105 82.768 249.319 83.1544 249.79C82.3127 250.173 82.592 251.256 81.9339 251.753C81.2338 250.938 81.7809 249.997 81.6661 249.12Z" fill="#DBDCD6"/>
<path d="M81.9262 257.838C82.5231 258.569 82.7794 259.262 81.6852 259.783C81.7005 259.124 81.3064 258.42 81.9262 257.838Z" fill="#DBDCD6"/>
<path d="M102.958 156.754C103.444 156.042 103.949 155.682 104.534 156.662C104.029 157.025 103.497 156.949 102.958 156.754Z" fill="#4B545B"/>
<path d="M60.3667 16.7627C61.086 17.0803 61.1587 17.4784 60.5159 17.9644C60.0951 17.6085 60.2099 17.1875 60.3667 16.7627Z" fill="#364140"/>
<path d="M179.509 221.454C179.566 221.948 179.336 222.22 178.858 222.296C178.724 221.745 179.061 221.558 179.509 221.454Z" fill="#364140"/>
<path d="M132.946 259.404C133.245 259.629 133.26 259.932 133.176 260.257C132.824 260.047 132.345 259.871 132.946 259.404Z" fill="#364140"/>
<path d="M141.356 17.6429C141.417 17.4898 141.478 17.3406 141.535 17.1875C141.474 17.3406 141.417 17.4898 141.356 17.6429Z" fill="#364140"/>
<path d="M66.3276 93.025L65.9144 93.312C65.945 93.0632 66.0483 92.9216 66.3276 93.025Z" fill="#DBDCD6"/>
<path d="M67.089 92.6269C66.9436 92.7264 66.8021 92.826 66.6567 92.9255C66.6988 92.6767 66.8097 92.5313 67.089 92.6269Z" fill="#DBDCD6"/>
<path d="M145.132 44.7004C145.388 45.0869 145.641 45.4735 145.897 45.86C145.901 47.7582 146.437 49.6105 146.291 51.5279C146.104 53.9734 143.797 56.2505 141.62 55.6918C138.008 54.7656 134.473 55.0144 130.937 55.8525C128.255 56.4878 125.527 57.0734 123.316 58.9065C119.249 58.0263 117.47 53.5065 120.416 49.645C124.563 44.2067 129.981 40.8618 137.212 41.2216C140.361 41.3785 142.748 42.9706 145.139 44.6966L145.132 44.7004Z" fill="white"/>
<path d="M56.3494 45.4619C56.4833 45.2132 56.6134 44.9682 56.7473 44.7195C58.6067 43.602 59.9956 41.6272 62.4519 41.6042C62.7924 41.6387 63.1099 41.6081 63.2859 41.2521C63.6838 41.1947 64.0817 41.1411 64.4758 41.0837C65.2678 41.4588 66.0598 41.3402 66.8556 41.1029C67.3224 41.1679 67.7891 41.233 68.2559 41.2981C68.386 41.5966 68.6117 41.7229 68.9369 41.6731C74.806 43.0432 79.7224 45.7145 82.1634 51.6082C83.5867 55.0411 81.6163 58.5391 78.1729 58.8912C78.1844 58.1258 77.5378 57.9688 77.0404 57.7775C71.9671 55.8027 66.8173 54.3561 61.2773 55.4544C57.9486 56.1127 55.5344 54.1188 55.6454 50.7242C55.7028 48.9675 56.1045 47.2186 56.3494 45.4658V45.4619Z" fill="white"/>
<path d="M56.3494 45.4619C56.1045 47.2147 55.7028 48.9599 55.6454 50.7203C55.5345 54.115 57.9487 56.1089 61.2773 55.4506C66.8174 54.3522 71.9672 55.8027 77.0405 57.7737C77.5378 57.9688 78.1844 58.1219 78.1729 58.8873C76.0916 60.024 73.9567 59.0596 71.9633 58.7534C67.8198 58.1143 64.0512 58.497 60.5886 60.9693C58.8975 62.1786 57.1758 63.3459 55.4656 64.5323C54.2528 64.8002 53.3575 65.8297 51.9878 65.8029C50.4382 65.7761 49.6348 65.114 49.0647 63.6788C47.7677 60.4182 48.9231 57.3986 50.0327 54.5091C51.3679 51.0342 53.6712 48.0758 56.3456 45.4504L56.3494 45.4619Z" fill="#DBDCD6"/>
<path d="M123.308 58.9103C125.52 57.0771 128.248 56.4916 130.93 55.8563C134.465 55.0182 138.004 54.7694 141.612 55.6956C143.789 56.2543 146.096 53.9772 146.283 51.5317C146.433 49.6105 145.897 47.7582 145.889 45.8638C149.428 48.9828 151.074 53.2271 152.715 57.4637C152.849 57.8119 152.841 58.2099 153.151 58.4817C152.983 58.7802 153.052 59.0251 153.316 59.2241C153.316 59.8556 153.243 60.4985 153.319 61.1224C153.702 64.1419 150.572 66.9587 147.309 65.0183C146.991 64.8308 146.616 64.7351 146.268 64.5974C143.192 62.4618 140.483 59.6987 136.642 58.8682C133.455 58.1793 130.283 58.3783 127.107 59.0825C125.86 59.3581 124.54 59.6375 123.304 58.9141L123.308 58.9103Z" fill="#DBDCD6"/>
<path d="M66.8595 41.1029C66.0636 41.3402 65.2678 41.4589 64.4797 41.0838C65.2755 40.6246 66.0713 40.6858 66.8595 41.1029Z" fill="#B1E1E9"/>
<path d="M63.286 41.2522C63.11 41.6081 62.7962 41.6387 62.4519 41.6043C62.5896 41.1565 62.8766 41.057 63.286 41.2522Z" fill="#B1E1E9"/>
<path d="M68.9408 41.6731C68.6194 41.7228 68.3937 41.5965 68.2598 41.298C68.7648 40.9191 68.7074 41.5583 68.9408 41.6731Z" fill="#B1E1E9"/>
<path d="M127.98 111.804C126.832 111.529 125.367 111.047 124.632 112.872C124.108 114.185 123.366 115.406 122.138 116.313C118.828 118.774 115.09 119.485 111.084 119.279C108.222 119.325 105.885 117.943 103.379 116.615C109.37 114.128 113.885 110.385 116.448 104.514C117.015 103.216 116.64 101.885 116.869 100.587C116.46 98.2528 115.151 96.5306 112.993 95.6924C108.758 94.0506 104.289 93.7291 99.7822 93.687C98.0146 93.6717 96.2891 93.997 94.5406 94.0659C92.0728 94.1616 89.9035 95.1337 87.7571 96.1593C85.274 97.3419 85.1669 99.8372 84.7192 102.114C86.2228 108.483 90.5654 112.524 95.8873 115.765C96.2049 115.957 96.5492 116.11 96.8936 116.248C97.1576 116.355 97.5478 116.175 97.72 116.787C95.5315 118.268 93.167 119.21 90.4085 118.915C90.1369 119.061 89.8805 119.313 89.5974 119.34C85.033 119.757 79.1868 117.867 77.0863 113.021C76.2905 111.188 74.7716 111.383 73.5856 111.839C72.2847 112.336 72.0858 113.672 72.828 114.996C73.9146 116.937 74.9247 118.95 76.8721 120.193C77.7215 120.733 78.0582 121.372 78.215 122.383C78.5441 124.461 78.808 126.55 79.2863 128.613C80.7899 135.142 84.4514 140.171 90.0374 143.611C96.4995 147.592 103.302 147.611 110.109 144.235C118.851 139.899 122.26 132.222 123.27 123.098C123.404 121.893 123.538 121.062 124.67 120.304C126.74 118.915 128.221 116.906 128.99 114.514C129.327 113.477 129.273 112.114 127.98 111.804ZM112.592 136.88C108.563 140.703 103.754 142.574 98.3092 141.771C94.7281 141.239 91.5678 139.348 89.0617 136.531C88.3845 135.77 88.9546 135.59 89.276 135.226C91.3497 132.865 94.0394 131.552 97.0045 130.714C97.2685 130.182 97.6358 130.037 98.1447 130.4C99.9965 130.079 101.852 130.129 103.708 130.351C104.308 129.975 104.423 130.324 104.435 130.833C107.526 131.502 110.189 132.964 112.511 135.096C113.185 135.712 113.384 136.129 112.592 136.88Z" fill="black"/>
<path d="M111.088 119.279C108.222 119.325 105.889 117.943 103.379 116.615C109.37 114.128 113.889 110.388 116.452 104.514C117.018 103.216 116.643 101.885 116.869 100.587C117.665 100.744 117.523 101.383 117.577 101.938C118.181 108.199 116.349 113.58 111.83 118.004C111.467 118.36 111.073 118.701 111.084 119.279H111.088Z" fill="#DBDCD6"/>
<path d="M84.7192 102.118C86.2228 108.486 90.5654 112.528 95.8873 115.765C96.2049 115.957 96.5492 116.11 96.8974 116.248C97.1614 116.355 97.5516 116.175 97.7238 116.787C95.5353 118.268 93.1709 119.21 90.4123 118.915C89.4903 116.512 87.298 114.981 86.1884 112.677C84.5547 109.286 83.5982 105.861 84.7231 102.114L84.7192 102.118Z" fill="#DBDCD6"/>
<path d="M86.1999 250.647C86.483 250.54 86.5863 250.705 86.6399 250.942C86.4945 250.842 86.3453 250.747 86.1999 250.647Z" fill="#DBDCD6"/>
<path d="M153.323 59.2241C153.056 59.0251 152.99 58.7802 153.159 58.4817C153.503 58.6654 153.668 58.8874 153.323 59.2241Z" fill="#4B545B"/>
<path d="M107.587 237.107C107.645 237.673 107.365 237.926 106.818 237.938C106.795 237.402 107.071 237.145 107.587 237.107Z" fill="#4B545B"/>
<path d="M109.91 233.72C109.959 234.218 109.722 234.478 109.236 234.528C109.098 233.954 109.5 233.835 109.91 233.72Z" fill="#4B545B"/>
<path d="M103.042 241.122C102.893 241.21 102.744 241.302 102.598 241.39C102.678 241.191 102.774 241.011 103.042 241.122Z" fill="#4B545B"/>
<path d="M104.438 130.837C107.526 131.506 110.193 132.964 112.515 135.1C113.185 135.716 113.384 136.129 112.592 136.88C108.563 140.703 103.754 142.574 98.3092 141.771C94.7281 141.242 91.5678 139.352 89.0617 136.531C88.3845 135.77 88.9546 135.594 89.276 135.226C91.3497 132.865 94.0394 131.552 97.0007 130.718C97.4713 130.936 97.8998 131.005 98.1409 130.4C99.9926 130.083 101.848 130.129 103.704 130.351C103.777 130.768 103.998 130.959 104.431 130.833L104.438 130.837Z" fill="#DBDCD6"/>
<path d="M98.1447 130.4C97.9036 131.005 97.4713 130.932 97.0045 130.718C97.2685 130.186 97.6358 130.037 98.1447 130.4Z" fill="#4B545B"/>
<path d="M104.438 130.837C104.006 130.959 103.784 130.768 103.712 130.354C104.312 129.979 104.431 130.328 104.438 130.837Z" fill="#4B545B"/>
</g>
<defs>
<clipPath id="clip0_16_4552">
<rect width="325" height="308" fill="white" transform="translate(0.279297)"/>
</clipPath>
</defs>
</svg>
