<svg width="424" height="310" viewBox="0 0 424 310" fill="none" xmlns="http://www.w3.org/2000/svg">
<g clip-path="url(#clip0_16_4625)">
<path d="M423.209 204.989C422.52 198.565 421.561 192.211 420.428 185.822C418.698 176.133 415.857 166.795 413.286 157.387C411.439 150.647 409.043 144.012 406.46 137.447C402.568 127.583 398.302 117.952 393.381 108.591C390.505 103.126 386.625 98.1299 384.182 92.5599C380.956 85.2112 375.708 79.5125 370.869 73.4862C369.513 71.8012 368.917 69.6012 367.292 68.3141C362.652 64.6281 359.917 59.3272 355.639 55.255C350.485 50.3403 345.938 44.747 340.328 40.2535C332.602 34.0517 324.338 28.7274 315.724 23.8244C305.73 18.1257 295.269 13.644 284.457 9.89946C275.621 6.83363 266.387 5.1954 257.247 3.41675C248.867 1.77852 240.264 1.19344 231.731 0.397725C219.143 -0.784142 206.637 0.982807 194.13 1.97745C190.542 2.26999 186.696 2.43381 183.307 3.54547C177.989 5.27731 172.472 5.96771 167.095 7.07936C160.702 8.40165 154.963 11.3271 148.733 12.9419C145.834 13.6908 143.181 15.6684 140.013 14.9429C136.998 14.2408 133.83 14.1472 130.908 13.41C122.948 11.4207 114.942 11.6079 106.889 11.7015C103.663 11.7366 100.787 12.7781 98.0873 14.3812C94.2769 16.6513 92.6405 22.7245 93.634 27.0892C94.686 31.6294 97.4912 34.6367 100.694 37.4451C102.611 39.1185 102.552 40.5344 100.752 41.9035C96.7899 44.9342 93.6574 48.7606 90.6535 52.6339C85.0782 59.8304 80.0288 67.2726 76.8262 76.0255C75.0145 80.9635 72.5366 85.6091 71.6834 90.8982C71.473 92.2205 70.7366 93.73 69.2288 94.4672C61.4444 98.282 54.0457 102.834 46.0509 106.262C41.1535 108.369 36.0223 109.855 31.2301 112.113C25.608 114.758 19.4717 115.706 13.6626 117.672C9.11582 119.205 5.79634 121.545 3.06128 125.009C1.36647 127.15 -0.19976 130.052 0.408032 132.673C1.72881 138.43 2.4418 144.597 8.20414 148.377C12.5522 151.22 16.7366 154.391 20.6873 157.785C22.8145 159.61 25.0353 161.213 27.4314 162.536C30.5873 164.268 34.0236 165.555 37.0392 167.486C39.4353 169.03 41.9015 169.966 44.6483 170.2C45.6652 170.294 46.3782 170.762 47.1262 171.265C53.3678 175.372 59.8197 174.682 66.2483 171.944C71.0288 169.919 74.7924 166.21 79.2574 163.343C81.4665 167.486 83.4184 171.663 85.8262 175.548C90.5717 183.189 95.7145 190.596 101.453 197.524C115.456 214.456 132.287 228.147 150.813 239.802C163.752 247.946 177.451 254.663 191.629 260.256C196.515 262.187 201.412 264.504 207.128 264.211C216.034 263.755 223.713 257.857 225.747 248.964C227.792 240.047 223.433 230.557 215.309 226.918C213.1 225.935 211.043 224.73 208.916 223.642C200.173 219.172 192.178 213.555 184.253 207.821C182.699 206.698 181.554 205.516 182.769 203.55C184.335 200.987 185.738 198.354 186.942 195.593C187.374 194.622 188.146 192.808 189.572 193.253C192.517 194.154 195.416 195.347 198.139 196.786C199.6 197.559 199.32 199.583 199.729 201.058C202.359 210.758 213.965 219.359 223.947 218.844C229.335 218.563 234.128 216.352 238.37 213.204C248.446 205.703 250.211 192.621 246.961 181.843C245.115 175.712 241.854 170.399 236.454 166.175C240.72 164.771 244.776 163.858 247.873 161.202C251.017 158.51 253.822 157.001 258.521 157.41C269.66 158.405 279.408 162.208 288.431 168.433C287.976 169.276 287.263 169.369 286.608 169.604C277.515 172.763 268.129 173.968 258.544 173.629C255.447 173.524 253.904 175.267 253.554 177.865C253.226 180.428 254.126 183.025 256.779 184.043C261.128 185.693 265.066 188.116 269.672 189.403C275.002 190.889 280.308 192.012 285.755 192.445C293.165 193.042 300.494 192.281 307.741 190.573C309.12 190.245 310.522 190.023 311.609 191.743C319.043 203.468 325.717 215.509 330.568 228.615C334.32 238.76 347.948 243.909 357.322 239.486C362.278 237.157 366.802 234.255 368.695 228.662C370.086 224.543 371.641 220.365 370.367 215.965C368.73 210.302 366.813 204.685 364.791 199.162C360.607 187.741 355.896 176.507 350.263 165.695C349.386 164.01 348.603 162.922 350.625 161.05C353.278 158.616 354.856 155.164 356.165 151.7C356.89 149.816 358.339 148.33 359.683 146.961C362.29 154.263 365.785 160.745 369.174 167.287C370.46 169.779 372.424 172.365 372.494 174.951C372.622 179.807 375.848 183.353 376.713 187.776C377.438 191.509 379.928 194.61 380.418 198.401C381.237 204.697 383.411 210.477 387.618 215.228C397.425 226.239 412.012 221.418 419.037 213.485C420.895 211.402 420.311 207.844 423.174 206.241C423.361 206.136 423.244 205.411 423.209 204.989ZM100.121 28.4817C99.373 27.6157 98.8353 26.5509 98.9756 25.3105C99.0223 19.9161 100.635 18.2661 105.953 17.7279C114.837 16.8385 123.556 18.3246 132.357 19.0735C140.528 19.7639 147.961 22.7011 155.407 25.2988C160.152 26.9488 164.605 30.2135 169.211 32.6709C173.243 34.824 176.831 37.2228 179.543 40.8971C181.121 41.0843 180.829 42.3364 180.946 43.3662C181.156 43.6353 181.367 43.9161 181.565 44.197C184.02 49.4627 182.874 55.0561 183.073 60.5208C183.143 62.2526 182.582 63.0951 180.677 62.9079C173.126 62.1473 165.517 61.9016 157.966 61.2931C150.311 60.6729 142.807 61.0122 135.279 61.9016C132.1 62.2643 128.828 62.2058 125.742 63.3526C124.479 63.8206 124.316 62.7441 123.918 61.8899C121.686 57.1273 120.342 52.002 117.455 47.4851C115.877 45.0161 114.077 42.9332 111.868 41.1428C107.356 37.4685 103.908 32.823 100.121 28.4817ZM81.3028 77.8392C85.2418 69.6129 89.9288 61.7377 95.8665 54.7519C98.6483 51.4871 101.851 48.5851 104.82 45.4842C106.164 44.08 107.122 43.9044 108.782 45.4257C112.137 48.4915 113.913 52.4583 115.503 56.4369C116.274 58.3794 117.163 60.357 117.817 62.4047C118.612 64.8855 118.752 66.0556 115.678 66.945C109.179 68.8172 103.569 72.5384 97.8184 76.0723C91.2963 80.0742 85.1717 84.5794 78.2288 89.1079C78.0067 84.6847 79.7483 81.104 81.3028 77.8392ZM180.548 195.452C180.186 196.026 180.011 196.716 179.672 197.313C176.972 202.04 176.925 202.076 173.337 197.711C172.355 196.529 171.209 196.201 170.005 196.786C168.708 197.43 167.937 198.588 168.579 200.215C168.825 200.847 168.989 201.514 169.187 202.169C174.611 207.435 180.174 212.537 186.591 216.621C193.452 220.974 199.974 225.771 207.49 229.177C210.494 230.534 214.561 231.318 216.385 234.945C217.904 236.034 218.722 237.637 219.435 239.263C219.856 240.211 221.387 241.229 220.265 242.189C219.108 243.183 218.056 241.826 217.109 241.101H215.029C213.755 241.101 212.282 240.937 211.663 242.306C210.996 243.769 212.013 244.892 213.007 245.91C215.894 246.869 218.161 248.285 217.811 251.913C217.694 253.223 217.004 254.183 215.999 254.651C214.818 255.201 214.538 253.82 214.082 253.153C212.703 251.187 210.587 250.228 208.729 248.929C207.385 248.718 206.029 248.484 204.673 248.835C202.382 251.784 202.569 252.978 205.772 254.23C207.56 254.92 210.19 256.161 209.582 257.495C208.822 259.145 205.935 259.449 203.843 258.723C198.922 257.003 194.107 255.002 189.209 253.235C179.473 249.736 170.578 244.436 161.45 239.731C154.063 235.928 147.564 230.452 140.516 225.97C134.508 222.144 129.015 217.58 123.766 212.923C119.804 209.413 115.713 205.773 112.37 201.479C110.348 198.881 107.683 196.81 105.439 194.376C102.903 191.638 101.044 188.35 98.8353 185.377C93.8678 178.696 89.9873 171.218 85.5223 164.151C83.1964 160.476 84.7158 158.428 89.7769 155.058C93.6691 177.713 107.356 191.392 128.804 197.898C131.831 198.167 134.847 198.436 137.874 198.705C138.599 197.652 139.277 197.652 139.931 198.776H142.059C142.713 197.641 143.403 197.652 144.116 198.705C144.583 198.694 145.039 198.67 145.507 198.659C145.741 197.851 146.325 197.98 146.921 198.12C150.509 198.471 153.77 196.552 157.324 196.634C163.028 193.966 168.872 191.556 173.792 187.472C175.16 186.325 176.796 186.7 177.965 187.636C179.648 188.993 182.874 187.811 183.354 190.105C183.751 191.977 181.624 193.697 180.548 195.452ZM97.6782 159.657C99.0223 158.967 99.4548 160.991 100.098 161.939C110.477 177.256 125.52 183.458 143.379 183.985C149.738 184.172 156.096 184.043 162.443 184.09C163.776 184.09 165.096 184.219 166.464 184.652C160.421 189.297 153.607 191.649 146.161 192.375C141.229 194.037 136.308 193.1 131.481 191.954C129.692 191.532 127.67 191.567 126.069 190.362C112.359 185.834 103.031 176.73 97.9821 163.25C97.573 162.15 95.995 160.511 97.6782 159.657ZM237.061 175.092C240.568 178.778 241.316 183.435 242.274 188.221C243.396 193.767 241.491 198.6 240.159 203.644C239.528 206.066 237.026 206.815 235.425 208.336C229.628 213.812 221.995 215.24 214.947 210.641C210.692 208.664 208.074 205.2 205.713 200.73C209.266 201.28 211.569 203.234 213.883 204.931C215.847 206.382 217.273 206.522 218.711 204.486C220.335 202.181 218.208 201.572 216.946 200.578C216.338 200.086 215.52 199.794 215.263 198.46C219.225 197.933 222.392 195.675 225.525 193.346C230.621 188.56 231.018 182.089 231.802 175.77C231.954 174.179 230.761 171.839 232.421 171.172C233.999 170.54 235.074 172.88 236.325 173.968C236.652 174.249 236.816 174.717 237.061 175.092ZM242.169 150.073C241.76 157.317 236.746 161.682 228.576 161.834C221.726 161.951 214.947 161.658 208.273 159.786C199.974 157.469 191.909 154.813 185.492 148.669C184.23 147.452 183.33 146.317 184.639 144.691C185.282 143.895 185.235 143.298 184.569 142.596C183.786 141.777 182.711 141.215 181.776 141.718C178.982 143.228 175.815 144.152 173.828 146.949C172.261 149.137 172.705 150.998 175.405 151.302C178.363 151.63 179.192 153.174 180.174 155.772C182.489 161.869 186.544 167.006 190.857 171.85C193.674 175.021 196.725 177.97 200.255 180.428C202.674 182.124 205.456 182.99 208.086 184.09C213.1 186.196 216.957 184.043 220.534 177.806C220.85 174.354 220.429 170.996 219.225 167.72C225.642 166.865 226.098 167.24 226.121 173.383C226.121 176.016 225.946 178.602 225.525 181.235C224.333 188.584 219.33 192.305 212.446 193.112C207.712 193.674 203.189 192.609 198.735 190.982C190.144 187.823 182.547 182.358 173.5 180.217C171.525 179.749 169.339 180.545 167.586 179.105C166.721 179.14 165.774 179.632 165.096 178.672C161.765 178.076 158.446 178.286 155.126 178.707H155.115C152.169 179.503 149.259 179.62 146.337 178.637C141.381 178.087 136.39 178.403 131.411 177.268C123.86 175.548 117.478 171.874 111.681 167.006C107.929 163.846 104.913 159.985 102.704 155.55C102.517 155.257 102.33 154.965 102.131 154.684C98.0054 149.161 98.5314 144.246 102.739 138.618C107.789 131.866 109.553 123.745 108.759 115.226C108.63 113.845 108.396 112.476 108.104 111.119C107.812 109.796 107.134 108.743 105.556 108.743C103.92 108.732 102.985 109.726 102.564 111.142C102.318 112.008 102.237 112.991 102.353 113.88C103.99 126.893 98.1574 137.026 89.7769 146.048C82.6937 153.666 74.9561 160.652 66.0613 166.081C61.7132 168.738 56.9327 169.264 51.5678 167.486C35.8821 162.29 22.2067 153.97 10.2379 142.713C5.50414 138.255 4.41712 132.802 7.60803 127.407C9.11583 124.845 12.26 123.756 15.1821 122.926C18.7937 121.884 22.4171 120.878 26.0405 119.86C34.2106 116.607 42.5327 113.74 50.6093 110.206C56.3717 107.678 62.0288 104.929 67.4639 101.898C77.9366 96.047 88.3041 89.9621 97.7132 82.3677C100.25 80.32 103.779 79.5125 106.374 77.5233C114.404 71.3565 124.199 70.5023 133.444 68.0215C134.859 67.6354 136.437 67.9396 137.944 67.9279C138.541 67.2843 139.183 66.7695 140.142 67.2141C148.09 66.3482 155.956 67.0854 163.904 67.7992C170.835 68.4194 177.802 68.6768 184.663 70.0693C190.355 71.2161 195.65 73.3809 200.676 76.2712C207.747 80.2497 211.476 87.0835 215.485 93.6832C216.186 94.83 215.274 95.5906 214.713 96.4448C212.972 99.1011 212.644 102.015 213.17 105.092C213.591 107.62 215.041 108.498 217.554 108.299C220.242 108.088 219.798 106.227 219.915 104.531C219.973 103.559 219.365 102.237 220.441 101.687C221.551 101.125 222.217 102.448 223.07 102.939C224.66 103.875 226.203 104.893 227.757 105.865C235.144 109.972 243.502 111.914 251.683 116.303C244.483 117.063 238.452 118.807 232.561 121.358C226.109 124.166 225.116 127.267 229.616 132.603C233.461 134.475 236.57 137.857 241.152 138.255C241.491 138.278 242.041 138.758 242.064 139.074C242.379 142.737 243.887 146.399 242.169 150.073ZM214.187 177.678C212.492 179.796 210.505 179.445 208.086 178.169C202.382 175.162 197.391 171.382 193.335 166.374C192.704 165.602 191.792 164.97 191.828 163.624C199.916 163.741 207.046 166.222 213.112 171.604C215.087 173.36 215.964 175.466 214.187 177.678ZM256.031 141.484C254.629 144.702 253.612 148.119 251.134 150.799C250.281 151.723 249.696 153.315 248.247 152.683C246.774 152.028 248.726 151.01 248.446 150.015C248.27 149.383 248.481 148.646 248.516 147.955C248.072 144.784 248.867 141.52 247.744 138.384C247.522 137.763 247.359 136.792 248.212 136.184C252.525 133.094 253.963 128.683 254.009 123.604C254.009 123.359 254.372 123.113 254.57 122.855C255.143 121.919 253.577 121.299 254.512 119.825C257.948 122.329 258.416 126.003 258.837 129.607C259.339 133.867 257.679 137.693 256.031 141.484ZM354.12 186.746C357.042 191.638 358.105 197.184 360.244 202.298C362.5 207.716 364.815 213.543 365.154 219.698C365.761 230.464 352.635 238.222 344.115 234.7C339.743 232.898 336.961 229.165 335.22 224.765C332.029 216.668 328.499 208.757 323.905 201.315C321.217 196.962 319.148 192.223 315.607 188.104C326.278 183.868 335.512 177.958 343.367 169.966C344.629 168.667 345.12 168.433 346.23 170.306C349.339 175.583 351.011 181.563 354.12 186.746ZM411.673 212.864C406.542 217.381 395.73 217.311 391.067 211.8C388.273 208.5 387.104 204.662 386.181 200.73C384.287 192.574 380.652 185.003 378.42 176.987C376.9 171.558 374.469 166.491 371.956 161.588C369.198 156.182 367.994 150.085 364.125 145.159C362.267 142.795 361.448 139.916 362.559 136.418C365.154 128.273 366.731 119.836 366.696 111.247C366.673 103.583 365.551 96.0353 363.365 88.6749C363.155 87.9728 363.073 87.3526 363.225 86.674C362.5 84.4389 361.787 82.2156 361.074 79.9806C360.268 79.7232 359.625 79.3955 359.602 78.3541C359.52 75.5808 358.176 73.0883 355.347 73.767C351.747 74.6213 353.196 78.3658 354.085 80.0274C356.247 84.0996 357.252 88.5345 359.076 92.6535C360.116 94.9938 360.116 97.4629 360.163 99.5458C360.385 109.059 361.682 118.83 359.228 128.039C356.82 137.05 353.851 146.013 348.673 154.146C343.238 162.688 335.898 169.03 328.078 175.056C319.978 181.095 311.037 184.921 300.926 186.196C290.278 187.53 279.794 187.156 269.52 183.985C266.855 183.166 264.213 182.031 262.098 180.03C261.876 179.959 261.642 179.889 261.42 179.819C260.894 179.889 260.426 179.667 260.543 179.14C260.672 178.567 261.174 178.707 261.56 179.012C263.278 178.988 264.985 178.977 266.691 178.953C267.018 177.643 267.579 177.549 268.374 178.614C275.165 178.31 281.641 176.671 288.186 174.822C296.344 172.506 303.147 168.059 309.95 163.425C312.579 161.635 315.057 159.61 317.594 157.703H317.605C318.038 157.27 318.459 156.825 318.868 156.381C319.698 155.491 320.504 154.59 321.276 153.654C326.29 147.628 330.112 140.794 333.163 133.551C337.476 123.288 338.551 112.558 336.494 101.523C335.676 97.1235 335.617 92.595 333.326 88.5345C332.239 86.6272 330.872 85.1761 328.698 86.2644C326.664 87.2941 327.646 89.1898 328.172 90.8514C328.885 93.1333 329.504 95.4502 330.159 97.7437C332.882 108.849 332.122 119.755 328.335 130.485C327.599 132.579 326.828 134.674 326.079 136.757C323.765 140.665 322.012 145.089 318.985 148.318C316.168 151.314 313.433 154.567 309.868 156.931C305.718 159.669 301.721 162.653 297.42 165.169C295.889 166.07 294.79 165.976 293.177 164.782C283.476 157.563 272.711 152.882 260.485 152.121C257.703 151.946 258.322 150.881 259.117 149.02C261.876 142.526 264.926 136.137 264.412 128.683C263.828 120.129 257.457 111.236 249.673 108.837C245.161 107.444 240.591 105.9 236.582 103.208C229.464 100.763 223.713 96.8661 220.02 89.9036C213.708 78.003 204.381 69.3321 191.208 65.377C189.595 64.8855 189.022 63.9611 189.069 62.3345C189.151 59.9123 188.999 57.4666 189.104 55.0444C189.583 44.3491 185.165 36.2165 176.551 30.0263C172.6 27.1945 168.159 25.4861 163.904 23.3329C162.525 22.6191 160.702 22.5606 159.977 20.8171C157.604 19.8693 154.682 20.1033 152.45 16.9673C199.016 2.73805 244.928 1.05302 290.711 18.6406C299.255 21.6947 307.402 25.568 315.221 30.1667C315.572 30.3656 315.922 30.5646 316.273 30.7518C316.624 30.9273 316.974 31.1145 317.325 31.3018C317.418 31.2784 317.5 31.2667 317.582 31.255C319.137 31.0677 319.569 32.6826 320.609 33.3027C326.442 36.7313 331.503 41.2482 337.137 44.9108C341.087 47.4734 343.495 51.4286 347.247 54.1317C352.004 57.5486 355.628 62.3345 359.496 66.629C362.746 70.2331 365.843 74.3287 368.543 78.5413C371.29 79.6647 371.582 82.672 372.961 84.7432C377.041 90.8748 381.131 97.0416 384.918 103.325C386.929 106.649 389.36 110.066 390.482 114.161C391.546 118.034 393.813 121.627 395.695 125.231C398.103 129.865 399.564 134.815 401.551 139.565C404.66 146.996 407.243 154.625 409.008 162.512C411.404 169.393 413.181 176.402 414.689 183.552C415.939 189.438 416.968 195.242 417.435 201.256C417.856 206.639 415.086 209.857 411.673 212.864Z" fill="#7C3C2F"/>
<path d="M223.07 102.939C222.217 102.448 221.551 101.126 220.44 101.687C219.365 102.237 219.973 103.56 219.914 104.531C219.798 106.228 220.242 108.088 217.553 108.299C215.04 108.498 213.591 107.62 213.17 105.092C212.644 102.015 212.972 99.1013 214.713 96.445C215.274 95.5908 216.186 94.8302 215.484 93.6834C211.475 87.0837 207.747 80.2499 200.675 76.2713C199.027 77.2894 197.484 76.3299 196 75.8969C178.433 70.678 160.666 69.2387 142.316 70.9471C123.579 72.6906 107.742 80.5776 92.7806 90.9569C75.8326 102.705 58.0546 112.687 37.9858 118.058C34.0819 119.099 30.1663 120.234 26.0403 119.86C22.417 120.878 18.7936 121.884 15.1819 122.926C12.2598 123.757 9.11566 124.845 7.60787 127.408C4.41696 132.802 5.50397 138.255 10.2377 142.713C22.2066 153.97 35.8819 162.29 51.5676 167.486C56.9325 169.264 61.7131 168.738 66.0611 166.081C74.9559 160.652 82.6936 153.666 89.7767 146.048C98.1572 137.026 103.99 126.893 102.353 113.88C102.236 112.991 102.318 112.008 102.564 111.142C102.984 109.726 103.92 108.732 105.556 108.743C107.134 108.743 107.812 109.797 108.104 111.119C108.396 112.476 108.63 113.845 108.759 115.226C109.553 123.745 107.788 131.866 102.739 138.618C98.5313 144.246 98.0053 149.161 102.131 154.684C102.33 154.965 102.517 155.257 102.704 155.55C103.347 150.425 104.492 145.533 108.034 141.45C109.729 139.484 111.54 137.951 114.065 137.366C115.164 133.668 118.659 133.41 121.452 132.673C130.733 130.228 140.048 131.468 149.481 132.322C160.842 133.352 172.308 133.212 183.131 128.402C192.085 124.412 194.866 117.625 192.47 108.17C190.203 99.1715 184.008 93.5664 177.439 88.0432C175.849 86.6975 174.166 85.4571 172.53 84.17C171.034 82.9998 170.695 81.3967 171.572 79.8638C172.448 78.3074 173.968 77.032 175.885 77.6872C185.644 80.9988 194.703 85.422 200.944 94.1398C203.41 97.58 203.457 101.945 205.444 105.561C205.561 105.759 205.631 105.982 205.736 106.192C207.899 110.405 210.529 114.512 215.8 114.419C221.446 114.313 225.548 111.212 227.757 105.865C226.203 104.894 224.66 103.876 223.07 102.939ZM181.764 114.606C183.108 116.619 183.166 118.631 181.051 120.094C179.052 121.463 177.299 120.679 175.99 118.819C173.909 115.846 171.49 113.892 167.492 113.717C162.303 113.494 159.24 115.998 156.926 120.117C156.587 120.726 156.283 121.358 156.049 122.013C155.255 124.213 153.408 125.278 151.479 124.646C149.259 123.932 148.662 121.884 149.364 119.486C151.596 111.915 159.159 106.169 168.755 106.157C173.5 106.298 178.281 109.34 181.764 114.606Z" fill="#F5AC3F"/>
<path d="M317.336 31.3019C319.101 30.8807 319.522 32.6476 320.621 33.2912C326.453 36.7198 331.514 41.2483 337.148 44.8993C341.099 47.4619 343.507 51.4288 347.259 54.1202C352.016 57.537 355.639 62.323 359.508 66.6175C362.757 70.2216 365.855 74.3172 368.555 78.5298C366.065 79.0096 363.575 79.4893 361.086 79.9691C360.279 79.7117 359.636 79.384 359.613 78.3426C359.531 75.5693 358.199 73.0768 355.359 73.7438C351.759 74.598 353.208 78.3426 354.096 80.0042C356.27 84.0764 357.264 88.523 359.087 92.642C360.127 94.9823 360.127 97.4513 360.174 99.5342C360.396 109.036 361.694 118.807 359.239 128.016C356.831 137.038 353.862 146.001 348.684 154.134C343.249 162.665 335.909 169.019 328.09 175.045C326.956 171.488 326.64 167.638 324.174 164.584C322.76 161.541 320.118 159.681 317.617 157.68C324.513 150.741 329.422 142.444 333.174 133.528C337.499 123.265 338.562 112.535 336.505 101.5C335.687 97.1003 335.629 92.5718 333.338 88.523C332.251 86.6039 330.883 85.1646 328.709 86.2529C326.664 87.2826 327.646 89.1783 328.172 90.8282C328.896 93.11 329.504 95.427 330.159 97.7205C329.177 97.779 328.475 98.3173 327.739 98.9258C322.62 103.103 317.886 107.714 313.386 112.535C305.835 120.609 291.564 125.594 279.221 119.017C268.573 113.342 262.495 104.695 262.355 92.4899C262.249 83.3743 265.172 74.914 269.146 66.8047C276.1 52.6457 286.748 42.3951 301.265 36.1347C306.455 33.8997 311.913 32.7061 317.336 31.3019Z" fill="#F5AC3F"/>
<path d="M114.077 137.354C115.164 133.656 118.67 133.399 121.464 132.662C130.744 130.216 140.06 131.456 149.492 132.311C160.853 133.34 172.331 133.2 183.155 128.39C192.096 124.412 194.89 117.625 192.494 108.158C190.226 99.1598 184.031 93.5547 177.462 88.0315C175.873 86.6858 174.19 85.4571 172.553 84.17C171.057 82.9998 170.718 81.3967 171.595 79.8638C172.472 78.3074 173.991 77.032 175.92 77.6872C185.679 80.9988 194.738 85.422 200.979 94.1398C203.446 97.58 203.492 101.945 205.479 105.561C205.596 105.759 205.666 105.982 205.772 106.192C207.934 110.417 210.564 114.524 215.835 114.419C221.469 114.313 225.583 111.212 227.792 105.877C235.179 109.984 243.536 111.926 251.718 116.303C244.507 117.063 238.475 118.807 232.596 121.369C226.144 124.178 225.151 127.267 229.651 132.615C229.534 133.949 230.165 135.06 230.738 136.184C233.52 141.672 236.968 146.61 242.192 150.074C241.783 157.317 236.769 161.682 228.599 161.834C221.749 161.951 214.982 161.658 208.296 159.786C199.997 157.469 191.944 154.825 185.527 148.669C184.265 147.464 183.365 146.317 184.662 144.703C185.305 143.895 185.259 143.31 184.592 142.608C183.809 141.777 182.746 141.227 181.81 141.73C179.017 143.228 175.849 144.164 173.862 146.949C172.296 149.138 172.74 150.998 175.44 151.302C178.397 151.63 179.227 153.186 180.209 155.772C182.523 161.869 186.579 167.018 190.892 171.85C193.709 175.01 196.76 177.959 200.278 180.428C202.709 182.124 205.479 182.99 208.109 184.09C213.135 186.197 216.981 184.044 220.557 177.807C222.942 179.632 223.397 182.089 221.609 184.605C219.704 187.273 217.133 188.841 213.731 188.993C204.229 189.391 196.257 185.108 188.403 180.638C183.155 177.643 177.743 175.185 171.946 173.489C163.518 171.031 154.857 169.381 146.687 166.046C141.544 163.952 136.577 161.53 131.703 158.85C122.925 154.029 117.63 146.434 114.088 137.366L114.077 137.354Z" fill="#FFFEFE"/>
<path d="M236.582 103.209C229.464 100.763 223.713 96.8662 220.02 89.9038C213.708 78.0032 204.381 69.3323 191.208 65.3771C189.595 64.8856 189.022 63.9612 189.069 62.3347C189.151 59.9007 188.999 57.4668 189.104 55.0446C189.572 44.3493 185.153 36.2166 176.551 30.0381C172.612 27.2063 168.159 25.4979 163.904 23.3331C162.525 22.631 160.701 22.5725 159.977 20.8173C178.397 14.826 197.52 13.2814 216.653 12.3102C236.477 11.3038 256.136 13.3867 275.516 17.7748C278.391 18.4301 281.465 18.6993 283.943 20.63C277.549 22.8416 271.705 26.0362 266.574 30.4711C257.82 38.0187 251.882 47.4034 247.943 58.2625C244.285 68.361 242.613 78.7872 241.549 89.3772C239.749 93.9408 239.188 98.9491 236.559 103.209H236.582Z" fill="#F5AC3F"/>
<path d="M241.573 89.3655C242.625 78.7755 244.308 68.3376 247.966 58.2508C251.905 47.3917 257.843 38.007 266.597 30.4594C271.729 26.0362 277.573 22.8416 283.966 20.6183C286.222 19.9513 288.466 19.296 290.722 18.629C299.266 21.6715 307.425 25.5564 315.233 30.1551C315.922 30.5647 316.635 30.9158 317.336 31.2902C311.925 32.6944 306.455 33.888 301.265 36.1347C286.748 42.3951 276.1 52.6457 269.146 66.8047C265.172 74.9139 262.249 83.3742 262.355 92.4898C262.495 104.706 268.573 113.342 279.221 119.017C291.564 125.594 305.835 120.609 313.386 112.535C317.897 107.714 322.62 103.103 327.739 98.9257C328.475 98.3289 329.188 97.779 330.159 97.7205C332.882 108.825 332.122 119.72 328.335 130.462C327.599 132.556 326.827 134.639 326.079 136.734C321.813 137.763 317.582 138.98 313.281 139.788C302.82 141.765 293.142 140.057 284.399 133.586C277.935 128.8 273.529 122.27 268.877 115.963C262.951 107.913 256.23 100.587 248.82 93.9291C246.739 92.0568 244.53 90.0208 241.573 89.3538V89.3655Z" fill="#FFFEFE"/>
<path d="M417.435 201.257C416.968 195.242 415.939 189.438 414.688 183.552C413.181 176.402 411.404 169.393 409.008 162.512C402.848 162.969 398.886 159.084 395.251 155.07C386.742 145.639 381.833 134.159 377.438 122.446C373.335 111.528 369.875 100.377 365.329 89.6112C364.849 88.4644 364.709 87.0836 363.225 86.6741C363.073 87.3528 363.155 87.973 363.365 88.6751C365.551 96.0354 366.673 103.583 366.696 111.248C366.731 119.837 365.153 128.273 362.559 136.418C361.448 139.917 362.266 142.795 364.125 145.159C367.994 150.085 369.197 156.182 371.956 161.588C374.469 166.491 376.9 171.558 378.42 176.987C380.652 185.003 384.287 192.574 386.181 200.73C387.104 204.662 388.273 208.5 391.066 211.8C395.73 217.311 406.542 217.381 411.673 212.865C415.086 209.857 417.856 206.639 417.435 201.257ZM396.548 209.939C394.444 209.775 394.397 207.903 394.362 206.312C394.327 204.638 395.04 203.164 396.864 203.211C398.991 203.269 399.646 204.954 399.762 206.253C399.844 209.073 398.5 210.091 396.548 209.939ZM405.349 208.371C403.07 208.313 402.24 206.604 402.147 204.638C402.065 203.012 402.72 201.526 404.636 201.643C406.717 201.76 407.535 203.211 407.523 205.188C407.512 206.745 407.477 208.418 405.349 208.371ZM399.809 200.742C395.286 200.765 392.165 197.945 392.142 194.025C392.142 190.514 396.361 185.424 401.82 186.22C406.962 186.22 408.938 187.952 408.926 192.434C408.914 197.114 404.964 200.718 399.809 200.742ZM412.351 204.732C410.259 204.673 409.405 202.766 409.113 200.906C408.856 199.326 409.674 198.062 411.357 198.062C413.718 198.062 414.735 199.7 415.097 201.526C415.214 203.784 413.765 204.779 412.351 204.732Z" fill="#E3DDE3"/>
<path d="M181.577 44.1854C184.02 49.4512 182.886 55.0446 183.084 60.5209C183.155 62.2528 182.582 63.0953 180.688 62.9081C173.126 62.1475 165.529 61.9017 157.966 61.2932C150.322 60.673 142.807 61.0124 135.279 61.9017C132.1 62.2762 128.827 62.206 125.742 63.3527C124.468 63.8208 124.316 62.7559 123.907 61.89C121.674 57.1274 120.33 52.0021 117.455 47.4853C115.877 45.0163 114.077 42.9334 111.868 41.143C107.356 37.4687 103.908 32.8348 100.121 28.4935C99.3728 27.6276 98.8351 26.5628 98.9754 25.3107C111.365 21.5896 123.86 21.8236 136.308 24.7022C150.369 27.9553 164.161 32.004 176.06 40.7334C177.018 41.4355 178.292 42.8397 179.531 40.909C181.109 41.0962 180.817 42.3483 180.934 43.378C181.144 43.6589 181.343 43.928 181.553 44.2088L181.577 44.1854Z" fill="#F5AC3F"/>
<path d="M144.127 198.694C144.583 198.682 145.051 198.659 145.507 198.647C146.372 199.49 146.664 198.846 146.921 198.109C150.509 198.46 153.782 196.541 157.323 196.623C160.736 199.618 164.956 200.917 169.187 202.158C174.61 207.423 180.174 212.525 186.591 216.609C193.452 220.974 199.974 225.772 207.49 229.177C210.482 230.534 214.561 231.318 216.373 234.934C216.688 236.982 217.378 238.971 217.097 241.089C216.408 241.089 215.718 241.089 215.017 241.089C213.743 241.089 212.27 240.937 211.651 242.294C210.984 243.757 212.001 244.892 212.983 245.898C211.557 246.905 210.131 247.911 208.705 248.917C207.361 248.707 206.017 248.473 204.661 248.824C201.423 248.508 198.314 247.7 195.275 246.565C183.821 242.294 173.757 235.507 163.542 229.013C154.074 222.987 145.507 215.79 137.325 208.149C134.064 205.106 130.651 202.123 128.804 197.887C131.831 198.156 134.847 198.425 137.874 198.694C138.54 199.466 139.218 199.548 139.931 198.764C140.644 198.764 141.357 198.764 142.059 198.764C142.772 199.548 143.449 199.455 144.116 198.694H144.127Z" fill="#FFFEFE"/>
<path d="M241.573 89.3655C244.518 90.0325 246.727 92.0686 248.82 93.9408C256.23 100.611 262.939 107.924 268.877 115.975C273.529 122.294 277.935 128.812 284.399 133.598C293.142 140.069 302.831 141.777 313.281 139.8C317.582 138.992 321.813 137.775 326.079 136.745C323.765 140.654 322.012 145.077 318.985 148.307C316.179 151.302 313.433 154.555 309.868 156.919C305.718 159.669 301.721 162.641 297.42 165.157C295.888 166.058 294.79 165.964 293.177 164.771C283.475 157.551 272.71 152.87 260.484 152.11C257.703 151.934 258.322 150.869 259.117 149.009C261.875 142.514 264.938 136.125 264.412 128.683C263.816 120.129 257.446 111.236 249.673 108.837C245.161 107.445 240.591 105.9 236.582 103.209C239.212 98.9491 239.773 93.9408 241.573 89.3772V89.3655Z" fill="#E3DDE3"/>
<path d="M365.153 219.698C364.814 213.543 362.5 207.716 360.244 202.298C358.105 197.184 357.042 191.638 354.12 186.747C351.01 181.563 349.339 175.583 346.23 170.306C345.12 168.433 344.629 168.667 343.366 169.966C335.512 177.959 326.278 183.868 315.607 188.104C319.148 192.223 321.217 196.962 323.905 201.315C328.499 208.757 332.029 216.668 335.22 224.765C336.961 229.165 339.743 232.898 344.114 234.7C352.635 238.222 365.761 230.464 365.153 219.698ZM343.787 229.727C341.777 229.551 340.982 227.89 341.029 225.994C341.064 224.344 341.707 223.115 343.67 223.104C346.043 223.08 346.417 224.707 346.592 226.52C346.417 228.276 345.809 229.902 343.787 229.727ZM346.487 220.272C342.139 220.248 338.901 217.545 338.843 213.906C338.773 209.389 343.121 205.703 348.544 205.703C352.647 205.095 355.744 207.692 355.99 211.917C356.258 216.457 351.665 220.307 346.487 220.272ZM352.226 228.475C349.994 228.182 348.86 226.263 348.579 224.18C348.322 222.226 349.725 221.114 351.513 221.184C353.944 221.278 353.921 223.56 354.552 225.28C353.64 226.263 354.435 228.755 352.226 228.475ZM361.635 221.617C361.577 223.583 360.782 224.438 359.029 224.215C356.516 223.888 355.557 222.109 355.569 219.909C355.581 218.435 356.609 217.323 358.292 217.592C360.677 217.967 361.904 219.382 361.635 221.617Z" fill="#E3DDE3"/>
<path d="M114.077 137.354C117.618 146.423 122.925 154.017 131.691 158.838C136.565 161.518 141.533 163.928 146.675 166.035C154.846 169.37 163.507 171.02 171.934 173.477C177.731 175.174 183.143 177.631 188.391 180.627C196.234 185.097 204.217 189.379 213.72 188.982C217.121 188.841 219.692 187.261 221.597 184.593C223.386 182.089 222.93 179.62 220.546 177.795C220.861 174.343 220.44 170.973 219.236 167.708C225.653 166.854 226.109 167.24 226.121 173.372C226.121 176.004 225.957 178.602 225.525 181.235C224.333 188.572 219.33 192.293 212.446 193.112C207.712 193.674 203.188 192.609 198.735 190.983C190.144 187.823 182.547 182.37 173.5 180.229C171.525 179.761 169.339 180.545 167.574 179.117C166.99 177.631 166.125 177.666 165.096 178.672C161.765 178.076 158.446 178.286 155.114 178.708C152.204 177.444 149.27 177.537 146.336 178.637C141.381 178.087 136.39 178.415 131.41 177.28C123.86 175.56 117.466 171.885 111.681 167.018C107.917 163.858 104.913 159.997 102.704 155.562C103.347 150.436 104.492 145.557 108.022 141.461C109.717 139.495 111.529 137.962 114.065 137.377L114.077 137.354Z" fill="#E3DDE3"/>
<path d="M128.804 197.887C130.662 202.123 134.075 205.106 137.325 208.149C145.507 215.79 154.074 222.998 163.542 229.013C173.757 235.507 183.833 242.294 195.275 246.565C198.314 247.7 201.423 248.508 204.661 248.824C202.37 251.773 202.557 252.966 205.76 254.218C207.548 254.909 210.178 256.149 209.57 257.483C208.81 259.133 205.912 259.437 203.831 258.712C198.922 256.992 194.095 254.991 189.197 253.224C179.461 249.725 170.566 244.424 161.438 239.72C154.062 235.917 147.552 230.441 140.504 225.959C134.496 222.132 129.003 217.569 123.755 212.911C119.804 209.401 115.701 205.75 112.359 201.456C110.336 198.87 107.672 196.787 105.427 194.353C102.891 191.614 101.033 188.326 98.8235 185.354C93.8559 178.672 89.9754 171.183 85.5105 164.116C83.1845 160.441 84.704 158.394 89.765 155.023C93.6572 177.678 107.344 191.357 128.792 197.863L128.804 197.887Z" fill="#E3DDE3"/>
<path d="M409.02 162.513C402.848 162.969 398.897 159.084 395.262 155.07C386.742 145.65 381.833 134.159 377.438 122.446C373.335 111.528 369.875 100.377 365.34 89.623C364.861 88.4762 364.721 87.0954 363.225 86.6741C362.512 84.4391 361.799 82.2158 361.074 79.9808C363.564 79.501 366.053 79.0213 368.543 78.5415C371.29 79.6649 371.582 82.6722 372.961 84.7434C377.04 90.875 381.143 97.0418 384.918 103.314C386.917 106.637 389.36 110.066 390.482 114.15C391.546 118.023 393.813 121.615 395.695 125.231C398.103 129.865 399.564 134.815 401.551 139.566C404.66 146.996 407.243 154.626 409.008 162.501L409.02 162.513Z" fill="#FFFEFE"/>
<path d="M290.71 18.6408C288.455 19.3078 286.21 19.963 283.955 20.63C281.477 18.711 278.403 18.4301 275.527 17.7748C256.148 13.3867 236.488 11.3038 216.665 12.3102C197.531 13.2814 178.409 14.826 159.988 20.8173C157.604 19.8694 154.682 20.1035 152.461 16.9674C199.027 2.73822 244.939 1.05319 290.71 18.6408Z" fill="#E3DDE3"/>
<path d="M78.2286 89.0964C78.0183 84.6731 79.7481 81.0924 81.3144 77.8277C85.2533 69.6014 89.9286 61.7262 95.878 54.7403C98.6598 51.4756 101.851 48.5736 104.831 45.4726C106.175 44.0684 107.134 43.8929 108.794 45.4141C112.148 48.48 113.925 52.4468 115.514 56.4254C116.286 58.3679 117.186 60.3454 117.829 62.3932C118.623 64.874 118.764 66.0441 115.69 66.9335C109.191 68.794 103.581 72.5268 97.8299 76.0607C91.3195 80.0627 85.1832 84.5678 78.2403 89.0964H78.2286Z" fill="#FFFEFE"/>
<path d="M200.675 76.2596C199.039 77.2776 197.485 76.3298 196.012 75.8852C178.433 70.6779 160.666 69.2269 142.316 70.9354C123.579 72.6789 107.742 80.5658 92.7806 90.9452C75.8209 102.705 58.0546 112.675 37.9858 118.046C34.0819 119.088 30.1663 120.223 26.0403 119.848C34.2105 116.595 42.5326 113.728 50.6092 110.183C56.3715 107.655 62.017 104.917 67.4637 101.875C77.9365 96.0237 88.304 89.9388 97.7131 82.3445C100.249 80.2967 103.779 79.4893 106.374 77.5C114.404 71.3332 124.199 70.479 133.444 67.9982C134.847 67.6238 136.436 67.928 137.944 67.9163C138.833 68.1504 139.674 68.2674 140.142 67.2025C148.09 66.3249 155.968 67.0738 163.904 67.7759C170.847 68.3961 177.813 68.6535 184.662 70.046C190.355 71.2045 195.649 73.3576 200.675 76.2479V76.2596Z" fill="#E3DDE3"/>
<path d="M237.061 175.092C240.568 178.778 241.316 183.435 242.274 188.221C243.384 193.768 241.491 198.6 240.159 203.644C239.516 206.066 237.014 206.815 235.413 208.336C229.616 213.824 221.983 215.24 214.935 210.653C222.03 207.072 225.852 201.479 225.525 193.346C230.621 188.56 231.007 182.101 231.801 175.77C233.508 175.174 235.261 174.94 237.061 175.092Z" fill="#FFFEFE"/>
<path d="M324.162 164.595C326.64 167.638 326.956 171.499 328.078 175.057C319.978 181.095 311.036 184.921 300.926 186.197C290.278 187.531 279.794 187.156 269.508 183.985C266.843 183.166 264.201 182.031 262.097 180.03C262.904 180.065 263.734 179.983 264.505 180.135C272.395 181.762 280.32 181.785 288.268 180.591C301.697 178.567 313.76 173.453 324.162 164.595Z" fill="#E3DDE3"/>
<path d="M126.081 190.362C112.37 185.834 103.043 176.73 97.9936 163.25C97.5845 162.15 96.0066 160.511 97.678 159.657C99.0339 158.967 99.4546 160.991 100.109 161.939C110.488 177.256 125.52 183.458 143.391 183.985C149.738 184.172 156.096 184.043 162.455 184.079C163.775 184.079 165.108 184.207 166.475 184.64C160.433 189.286 153.607 191.638 146.173 192.363C141.077 190.585 136.027 188.666 130.873 187.098C128.336 186.325 125.882 186.618 126.081 190.351V190.362Z" fill="#73A69E"/>
<path d="M179.543 40.8972C178.304 42.828 177.018 41.4238 176.072 40.7217C164.173 31.9922 150.381 27.9435 136.32 24.6904C123.872 21.8118 111.377 21.5778 98.9871 25.2989C99.0338 19.9044 100.635 18.2545 105.953 17.7162C114.836 16.8269 123.556 18.313 132.357 19.0619C140.527 19.7523 147.961 22.6894 155.407 25.2872C160.152 26.9371 164.605 30.2019 169.21 32.6592C173.231 34.8006 176.831 37.2112 179.543 40.8855V40.8972Z" fill="#E3DDE3"/>
<path d="M324.162 164.595C313.76 173.442 301.697 178.567 288.268 180.591C280.331 181.785 272.407 181.762 264.505 180.135C263.722 179.971 262.904 180.053 262.097 180.03C261.875 179.96 261.642 179.889 261.42 179.831C261.466 179.562 261.513 179.293 261.56 179.023C263.266 179 264.984 178.988 266.691 178.965C267.346 179.328 267.953 179.433 268.374 178.626C275.165 178.321 281.64 176.683 288.186 174.834C296.344 172.529 303.147 168.082 309.949 163.437C312.579 161.646 315.057 159.634 317.594 157.715C320.095 159.716 322.748 161.576 324.151 164.619L324.162 164.595Z" fill="#FFFEFE"/>
<path d="M169.199 202.158C164.968 200.917 160.748 199.63 157.335 196.623C163.039 193.955 168.883 191.544 173.804 187.46C175.172 186.325 176.808 186.688 177.977 187.636C179.66 188.993 182.886 187.811 183.365 190.105C183.751 191.966 181.635 193.697 180.56 195.441C180.197 196.026 180.022 196.705 179.683 197.301C176.983 202.029 176.936 202.064 173.348 197.711C172.366 196.517 171.221 196.19 170.029 196.787C168.731 197.43 167.948 198.589 168.591 200.203C168.836 200.835 169 201.502 169.21 202.158H169.199Z" fill="#E3DDE3"/>
<path d="M191.827 163.624C199.916 163.741 207.046 166.222 213.112 171.605C215.087 173.36 215.952 175.466 214.187 177.678C212.492 179.796 210.505 179.445 208.086 178.169C202.382 175.162 197.391 171.382 193.323 166.374C192.692 165.59 191.792 164.958 191.816 163.624H191.827Z" fill="#F5AC3F"/>
<path d="M225.536 193.335C225.864 201.467 222.042 207.061 214.947 210.641C210.704 208.664 208.074 205.188 205.713 200.73C209.266 201.28 211.569 203.234 213.883 204.931C215.847 206.37 217.273 206.522 218.71 204.486C220.335 202.181 218.208 201.573 216.946 200.578C216.338 200.098 215.52 199.806 215.262 198.46C219.225 197.933 222.392 195.675 225.525 193.346L225.536 193.335Z" fill="#E3DDE3"/>
<path d="M248.527 147.944C248.072 144.773 248.866 141.508 247.756 138.372C247.534 137.752 247.37 136.781 248.223 136.184C252.536 133.095 253.974 128.683 254.021 123.604C254.021 123.347 254.395 123.101 254.594 122.856C255.938 130.672 256.475 138.395 252.057 145.568C251.239 146.891 250.304 148.038 248.539 147.956L248.527 147.944Z" fill="#E3DDE3"/>
<path d="M242.169 150.074C236.944 146.61 233.496 141.66 230.714 136.184C230.142 135.06 229.499 133.949 229.627 132.615C233.473 134.475 236.582 137.857 241.164 138.255C241.503 138.29 242.052 138.77 242.075 139.074C242.391 142.737 243.899 146.399 242.181 150.074H242.169Z" fill="#E3DDE3"/>
<path d="M248.527 147.944C250.292 148.026 251.227 146.879 252.046 145.557C256.464 138.384 255.926 130.661 254.582 122.844C255.155 121.908 253.588 121.276 254.523 119.813C257.948 122.317 258.427 125.992 258.848 129.596C259.351 133.855 257.691 137.682 256.043 141.473C254.64 144.691 253.623 148.108 251.146 150.799C250.292 151.723 249.708 153.315 248.259 152.671C246.786 152.016 248.738 150.998 248.457 150.015C248.282 149.383 248.492 148.646 248.527 147.944Z" fill="#FFFEFE"/>
<path d="M126.081 190.362C125.882 186.63 128.336 186.337 130.873 187.109C136.027 188.677 141.077 190.596 146.173 192.375C141.229 194.037 136.32 193.089 131.492 191.954C129.692 191.533 127.67 191.568 126.081 190.362Z" fill="#9DCFC4"/>
<path d="M208.729 248.917C210.155 247.911 211.581 246.905 213.007 245.898C215.894 246.87 218.161 248.286 217.822 251.901C217.694 253.224 217.016 254.172 215.999 254.64C214.818 255.19 214.549 253.809 214.082 253.142C212.714 251.176 210.599 250.216 208.729 248.917Z" fill="#E3DDE3"/>
<path d="M237.061 175.092C235.261 174.94 233.508 175.174 231.801 175.77C231.953 174.179 230.749 171.839 232.409 171.172C233.999 170.54 235.074 172.868 236.313 173.968C236.64 174.249 236.804 174.717 237.049 175.092H237.061Z" fill="#E3DDE3"/>
<path d="M217.109 241.089C217.378 238.971 216.688 236.982 216.384 234.934C217.904 236.022 218.722 237.625 219.447 239.252C219.868 240.2 221.399 241.206 220.265 242.177C219.12 243.172 218.068 241.803 217.109 241.077V241.089Z" fill="#E3DDE3"/>
<path d="M146.348 178.626C149.282 177.526 152.216 177.432 155.126 178.696C152.192 179.503 149.27 179.609 146.348 178.626Z" fill="#9DCFC4"/>
<path d="M165.096 178.661C166.125 177.654 166.99 177.619 167.574 179.105C166.709 179.129 165.774 179.62 165.096 178.661Z" fill="#9DCFC4"/>
<path d="M268.386 178.614C267.965 179.421 267.357 179.316 266.703 178.953C267.03 177.643 267.591 177.549 268.386 178.614Z" fill="#9DCFC4"/>
<path d="M139.931 198.776C139.218 199.56 138.529 199.478 137.874 198.706C138.599 197.652 139.288 197.652 139.931 198.776Z" fill="#E3DDE3"/>
<path d="M144.127 198.694C143.461 199.455 142.783 199.548 142.07 198.764C142.713 197.641 143.403 197.641 144.127 198.694Z" fill="#E3DDE3"/>
<path d="M140.142 67.2142C139.686 68.2791 138.833 68.162 137.944 67.928C138.54 67.2844 139.183 66.7695 140.142 67.2142Z" fill="#F5AC3F"/>
<path d="M261.572 179C261.525 179.269 261.478 179.538 261.431 179.808C260.905 179.878 260.438 179.655 260.555 179.129C260.683 178.555 261.186 178.696 261.572 178.988V179Z" fill="#9DCFC4"/>
<path d="M146.921 198.109C146.664 198.846 146.36 199.49 145.507 198.647C145.74 197.84 146.336 197.968 146.921 198.109Z" fill="#E3DDE3"/>
<path d="M168.766 106.157C173.5 106.298 178.281 109.34 181.775 114.606C183.108 116.619 183.178 118.631 181.062 120.094C179.064 121.475 177.31 120.691 176.001 118.819C173.921 115.846 171.501 113.892 167.504 113.717C162.326 113.494 159.252 115.998 156.949 120.117C156.61 120.726 156.295 121.358 156.061 122.001C155.278 124.201 153.42 125.266 151.491 124.646C149.282 123.932 148.674 121.884 149.387 119.486C151.62 111.915 159.17 106.169 168.778 106.157H168.766Z" fill="#7C3C2F"/>
<path d="M401.831 186.22C406.974 186.22 408.949 187.952 408.938 192.434C408.926 197.114 404.975 200.718 399.821 200.742C395.297 200.765 392.177 197.933 392.153 194.025C392.142 190.514 396.373 185.424 401.831 186.22Z" fill="#F5AC3F"/>
<path d="M415.109 201.514C415.226 203.772 413.777 204.767 412.362 204.72C410.27 204.662 409.417 202.754 409.113 200.894C408.856 199.314 409.674 198.05 411.357 198.05C413.718 198.05 414.735 199.689 415.097 201.514H415.109Z" fill="#F5AC3F"/>
<path d="M399.774 206.253C399.856 209.073 398.512 210.091 396.548 209.939C394.444 209.775 394.397 207.903 394.362 206.312C394.327 204.627 395.04 203.152 396.875 203.211C399.003 203.269 399.657 204.954 399.774 206.253Z" fill="#F5AC3F"/>
<path d="M407.535 205.177C407.512 206.733 407.477 208.418 405.361 208.359C403.082 208.301 402.252 206.604 402.159 204.627C402.077 203 402.743 201.526 404.66 201.631C406.729 201.748 407.559 203.199 407.547 205.177H407.535Z" fill="#F5AC3F"/>
<path d="M348.544 205.692C352.659 205.083 355.744 207.681 355.99 211.917C356.259 216.445 351.665 220.295 346.487 220.272C342.139 220.248 338.901 217.545 338.855 213.906C338.785 209.389 343.133 205.703 348.544 205.703V205.692Z" fill="#F5AC3F"/>
<path d="M361.647 221.617C361.588 223.583 360.782 224.438 359.04 224.204C356.527 223.876 355.569 222.097 355.581 219.897C355.581 218.423 356.621 217.311 358.316 217.58C360.7 217.955 361.916 219.382 361.659 221.617H361.647Z" fill="#F5AC3F"/>
<path d="M354.552 225.28C353.64 226.263 354.447 228.755 352.226 228.475C349.994 228.182 348.86 226.263 348.579 224.18C348.322 222.226 349.725 221.114 351.513 221.185C353.944 221.278 353.921 223.56 354.54 225.28H354.552Z" fill="#F5AC3F"/>
<path d="M346.592 226.52C346.417 228.276 345.809 229.902 343.787 229.727C341.777 229.551 340.982 227.89 341.029 225.994C341.064 224.356 341.707 223.115 343.67 223.104C346.043 223.092 346.417 224.707 346.592 226.52Z" fill="#F5AC3F"/>
<g style="mix-blend-mode:multiply" filter="url(#filter0_f_16_4625)">
<path d="M488.697 271.399C488.86 274.011 485.073 274.103 482.7 274.685C473.958 276.854 464.876 277.823 455.806 278.599C439.021 280.03 422.202 280.916 405.347 281.553C396.336 281.894 387.347 282.273 378.324 282.531C364.216 282.937 350.097 283.02 335.977 282.974C327.41 282.974 318.842 283.104 310.275 282.947C289.119 282.568 267.975 281.913 246.877 280.759C231.437 279.919 215.997 278.894 200.72 276.882C195.729 276.226 190.68 275.525 185.993 273.808C184.695 273.328 183.339 272.885 183.281 271.592C183.223 270.143 184.672 269.654 186.11 269.165C193.882 266.525 202.204 265.805 210.445 264.974C228.784 263.128 247.228 262.177 265.707 261.494C280.61 260.949 295.524 260.783 310.426 260.358C324.207 259.971 337.976 259.943 351.733 260.063C368.506 260.201 385.278 260.524 402.016 261.171C418.286 261.798 434.545 262.721 450.756 263.921C461.439 264.706 472.158 265.703 482.49 268.186C484.956 268.777 488.556 269.026 488.697 271.399Z" fill="#808786"/>
</g>
</g>
<defs>
<filter id="filter0_f_16_4625" x="153.279" y="230" width="365.422" height="83.0243" filterUnits="userSpaceOnUse" color-interpolation-filters="sRGB">
<feFlood flood-opacity="0" result="BackgroundImageFix"/>
<feBlend mode="normal" in="SourceGraphic" in2="BackgroundImageFix" result="shape"/>
<feGaussianBlur stdDeviation="15" result="effect1_foregroundBlur_16_4625"/>
</filter>
<clipPath id="clip0_16_4625">
<rect width="423" height="310" fill="white" transform="translate(0.279297)"/>
</clipPath>
</defs>
</svg>
