<svg width="60" height="60" viewBox="0 0 60 60" fill="none" xmlns="http://www.w3.org/2000/svg">
<path fill-rule="evenodd" clip-rule="evenodd" d="M22.7195 10.9079C21.1479 10.9079 19.8696 12.2021 19.8696 13.795V22.2064C19.8696 23.7972 21.1479 25.0921 22.7195 25.0921H37.2805C38.8528 25.0921 40.1311 23.7972 40.1311 22.2064V13.795C40.1311 12.2021 38.8528 10.9079 37.2805 10.9079H22.7195ZM37.2805 28H22.7195C19.5656 28 17 25.4008 17 22.2064V13.795C17 10.5999 19.5656 8 22.7195 8H37.2805C40.4344 8 43 10.5999 43 13.795V22.2064C43 25.4008 40.4344 28 37.2805 28Z" fill="#3C4758"/>
<path fill-rule="evenodd" clip-rule="evenodd" d="M52.5009 52H7.49912C5.01387 52 3 49.9975 3 47.5277V22.4723C3 20.0025 5.01387 18 7.49912 18H52.5009C54.9854 18 57 20.0025 57 22.4723V47.5277C57 49.9975 54.9854 52 52.5009 52Z" fill="#8D9AAB"/>
<path fill-rule="evenodd" clip-rule="evenodd" d="M52.5009 52H7.49912C5.01387 52 3 49.9975 3 47.5277V22.4723C3 20.0025 5.01387 18 7.49912 18H52.5009C54.9854 18 57 20.0025 57 22.4723V47.5277C57 49.9975 54.9854 52 52.5009 52Z" fill="#738396"/>
<path fill-rule="evenodd" clip-rule="evenodd" d="M4 47.9541V22.0452C4 20.363 5.35772 19 7.03277 19H52.9665C54.6423 19 56 20.363 56 22.0452V47.9548C56 49.637 54.6423 51 52.9665 51H7.03349C5.35772 51 4 49.6363 4 47.9541Z" fill="#8D9AAB"/>
<path fill-rule="evenodd" clip-rule="evenodd" d="M25 24C25 24 23.4802 24.6595 23.0041 26.7091C22.8948 27.177 25 26.94 25 26.94V24Z" fill="#72344D"/>
<path fill-rule="evenodd" clip-rule="evenodd" d="M12.9886 43.2317C13.0938 44.1697 12.4566 45 11.6325 45H6C6 45 6.13338 43.5013 8.15935 43.7149C12.2291 44.1438 12.8508 42 12.8508 42L12.9886 43.2317Z" fill="#72344D"/>
<path fill-rule="evenodd" clip-rule="evenodd" d="M19.5655 31.976C18.3409 32.4972 11.9833 38.5707 12 41.4554C12.0073 42.6877 12.2403 43.6868 12.535 44.3084C12.7368 44.7329 13.1586 45 13.6232 45H19.4022C19.4022 45 19.7687 44.2167 19.0769 43.928C18.3859 43.6399 16.1885 43.8052 16.1885 43.8052C16.1885 43.8052 17.3471 44.1315 18.1921 43.0552C19.008 42.0163 18.383 41.0663 18.383 41.0663L20.8257 39.1886L21.063 43.3331L21.7207 45H23.3482C23.3482 45 23.5101 44.2167 23.0629 44.011C22.6158 43.8052 22.3305 42.8155 22.3305 42.8155L22.941 39.3121L23.2662 37.6639C24.175 36.6915 24.1438 37.2719 24.8356 35.5408L25.8294 32.0994C25.9506 31.4013 25.7415 29.9792 25.7415 29.9792C25.7415 29.9792 26.9378 29.912 27.5324 29.8651C28.1276 29.8189 28.2191 29.5684 28.2191 29.5684C28.2191 29.5684 29.1105 28.601 28.9885 28.3491C28.8985 28.1636 27.9367 27.9391 27.2601 27.6041C27.062 27.5052 26.8144 26.8612 26.3375 26.5559L24.914 26C24.914 26 24.207 26.1523 23.4295 26.693C22.6521 27.2345 22.6158 27.6864 22.5345 27.8409C22.4524 27.9954 21.0166 31.358 19.5655 31.976Z" fill="#72344D"/>
<path fill-rule="evenodd" clip-rule="evenodd" d="M53 35C53 40.5229 48.5229 45 43 45C37.4778 45 33 40.5229 33 35C33 29.4771 37.4778 25 43 25C48.5229 25 53 29.4771 53 35Z" fill="#A84266"/>
<path fill-rule="evenodd" clip-rule="evenodd" d="M41 41H45V28H41V41Z" fill="#FFFFFE"/>
<path fill-rule="evenodd" clip-rule="evenodd" d="M36 37H49V33H36V37Z" fill="#FFFFFE"/>
</svg>
