<svg width="50" height="44" viewBox="0 0 50 44" fill="none" xmlns="http://www.w3.org/2000/svg">
<path fill-rule="evenodd" clip-rule="evenodd" d="M38.8949 33.7158C38.8949 33.7158 38.8809 33.7941 38.8548 33.927C38.7492 34.4659 38.4444 35.9083 38.0646 36.7761C37.5899 37.8609 35.3167 41.8386 35.3167 41.8386L35.9014 43.9999H38.2211C38.2211 43.9999 38.5125 43.1639 37.1064 42.8903C36.0814 42.6905 38.9941 39.0099 38.9941 39.0099L41.6886 36.5591L38.8949 33.7158Z" fill="#CA7055"/>
<path fill-rule="evenodd" clip-rule="evenodd" d="M18.4107 22.7714L18.8351 22.0537C28.7399 27.9242 41.3766 26.5108 41.5 26.4999C41.5 26.4999 41.5 26.4999 41 26.9999C40.5 27.4999 41.5 27.4999 39 27.4999C36.5 27.4999 26.0169 27.2785 18.4107 22.7714Z" fill="#362129"/>
<path fill-rule="evenodd" clip-rule="evenodd" d="M4.59679 43.9999L5.50278 43.991C5.88325 43.9878 6.11929 43.587 5.9526 43.2447C5.72928 42.7872 5.30364 42.4398 4.77811 42.3298L4.59679 42.2916L3.94019 40.2957L1.56386 38.7605L0 41.3799L2.19755 43.2606C2.75553 43.7378 3.46493 43.9999 4.19914 43.9999H4.59679Z" fill="#362129"/>
<path fill-rule="evenodd" clip-rule="evenodd" d="M13.1999 40.7812L12.6636 42.9654C12.5338 43.4916 12.9321 44 13.4742 44H18.8102C19.2989 44 19.659 43.5438 19.547 43.0685L19.5438 43.0551C19.4789 42.7822 19.2696 42.5672 18.9979 42.4965L17.2057 42.0295L16.2208 40.7812H13.1999Z" fill="#362129"/>
<path fill-rule="evenodd" clip-rule="evenodd" d="M6.12311 12.0584H9.44425V7.37256H6.12311V12.0584Z" fill="#DFA278"/>
<path fill-rule="evenodd" clip-rule="evenodd" d="M11.5585 22.2759H5.71338L5.18785 12.6083C5.18785 11.2303 6.30571 10.113 7.68379 10.113H7.75251C10.1447 10.113 12.084 13.1027 12.084 15.4949L11.5585 22.2759Z" fill="#F3B62C"/>
<path fill-rule="evenodd" clip-rule="evenodd" d="M17.1401 40.7814H12.8716L10.3108 33.6575L6.82106 28.266C5.76873 26.6404 5.34818 24.6859 5.6383 22.7715L5.71338 22.2759H11.5585L14.5793 32.2119L17.1401 40.7814Z" fill="#27313F"/>
<path fill-rule="evenodd" clip-rule="evenodd" d="M4.59679 41.3801L1.56386 38.7607L5.18785 32.2654L5.71338 22.2759H11.5585L9.10577 34.1601L4.59679 41.3801Z" fill="#3C4758"/>
<path fill-rule="evenodd" clip-rule="evenodd" d="M18.0582 20.948L16.1546 22.8516L16.7189 23.4159C17.24 23.937 18.0837 23.937 18.6041 23.4159L18.6232 23.3969C19.1436 22.8771 19.1436 22.0328 18.6232 21.5123L18.0582 20.948Z" fill="#E2B188"/>
<path fill-rule="evenodd" clip-rule="evenodd" d="M9.15031 12.0395C8.62923 11.5184 7.78559 11.5184 7.26515 12.0395L7.24606 12.0586C6.72562 12.5784 6.72562 13.4227 7.24606 13.9431L16.1546 22.8516L18.0582 20.948L9.15031 12.0395Z" fill="#F8D82B"/>
<path fill-rule="evenodd" clip-rule="evenodd" d="M6.63273 5.80372C6.36997 5.15222 6.69827 3.6717 7.42103 4.14506C8.14315 4.61905 8.34039 5.80372 8.34039 5.80372L8.93145 4.46L9.44425 2.13138L10.1435 2.0843C10.9489 2.03022 11.6227 1.35963 11.4261 0.654048C11.3192 0.269763 10.7046 0 8.34039 0C4.85955 0 4.07126 1.51105 4.07126 3.37522C4.07126 4.69604 4.95626 6.38969 5.84508 7.22761C6.22555 6.88341 6.8147 6.25481 6.63273 5.80372Z" fill="#64301F"/>
<path fill-rule="evenodd" clip-rule="evenodd" d="M9.44425 2.13144L8.93145 4.46005L8.34039 5.80378C8.34039 5.80378 8.14315 4.61911 7.42103 4.14512C6.69827 3.67176 6.36997 5.15227 6.63273 5.80378C6.8147 6.25487 6.22555 6.88346 5.84508 7.22767C6.21218 7.57314 6.65946 7.86072 7.2238 8.0535C12.084 9.71216 12.084 5.71343 12.084 3.8499C12.084 3.16404 11.7334 1.88458 11.3447 1.35205L9.44425 2.13144Z" fill="#E2B188"/>
<path fill-rule="evenodd" clip-rule="evenodd" d="M24.6401 34.8243C24.6401 34.8243 27.0132 37.8458 26.3693 39.1367C25.7261 40.4283 24.9938 40.9767 24.9938 40.9767L27.4376 44.0001H29.9711C29.9711 44.0001 30.1734 43.1246 29.4767 42.837C28.7813 42.5495 28.4924 42.6614 28.4924 42.6614L27.2193 40.9073C27.2193 40.9073 31.61 35.2913 30.4221 31.9683C29.2343 28.6446 24.6401 34.8243 24.6401 34.8243Z" fill="#BD5E44"/>
<path fill-rule="evenodd" clip-rule="evenodd" d="M30.1746 33.1191C30.1746 34.9947 28.6547 36.514 26.7791 36.514C24.9041 36.514 23.3841 34.9947 23.3841 33.1191C23.3841 31.2441 24.9041 29.7241 26.7791 29.7241C28.6547 29.7241 30.1746 31.2441 30.1746 33.1191Z" fill="#E1903F"/>
<path fill-rule="evenodd" clip-rule="evenodd" d="M46.7632 29.1566L46.2593 29.0307L46.6531 29.2769L47.8524 29.8342C47.8524 29.8342 47.5025 30.382 45.9125 29.9812C45.8387 29.929 45.7706 29.882 45.7077 29.8393C45.4551 29.929 45.1872 29.9812 44.9041 29.9812C44.8195 29.9812 44.7355 29.9704 44.6515 29.9608C44.4415 29.9341 44.2367 29.8921 44.042 29.8241C44.0471 30.5646 44.0471 31.337 44.0528 32.0935C44.0789 35.4662 42.3712 36.2125 42.3712 36.2125L38.6887 29.5085L42.739 26.1562C43.0336 25.6631 43.4904 25.2845 44.042 25.0797L44.0528 25.0688V25.0797C44.3207 24.9791 44.6044 24.9219 44.9041 24.9219C46.0595 24.9219 47.0208 25.6994 47.3256 26.7555C48.2189 27.045 49.6319 27.5591 49.6319 27.8905C49.6319 28.3734 48.1241 29.5085 48.1241 29.5085L46.7632 29.1566Z" fill="#E1903F"/>
<path fill-rule="evenodd" clip-rule="evenodd" d="M26.5163 32.7253V29.7242L38.6875 29.5098V37.915C38.6875 37.915 33.3463 37.9984 26.5163 32.7253Z" fill="#E1903F"/>
<path fill-rule="evenodd" clip-rule="evenodd" d="M23.708 33.6802C23.708 33.6802 24.0185 37.5103 22.7695 38.2312C21.5193 38.952 21.6408 39.2307 21.6408 39.2307L20.6935 42.7312L21.9246 43.9999H23.1971C23.1971 43.9999 23.7391 43.6563 23.3173 43.0315C22.8955 42.4074 22.0945 42.5563 22.0945 42.5563L22.8376 40.6571C22.8376 40.6571 29.261 37.9181 30.1059 34.4914C30.9502 31.0646 23.708 33.6802 23.708 33.6802Z" fill="#E1903F"/>
<path fill-rule="evenodd" clip-rule="evenodd" d="M38.9808 35.0464C38.9808 35.0464 39.0234 35.1126 39.0953 35.2283C39.3848 35.6941 39.818 38.58 40.1323 39.4746C40.5243 40.5912 44.0013 44.0001 44.0013 44.0001H45.4665C45.4665 44.0001 46.2332 43.3957 45.8374 43.0852C45.5161 42.8345 45.0511 42.6188 44.3792 42.5565C43.3396 42.4598 42.6633 38.8504 42.6633 38.8504L42.9623 35.2201L38.9808 35.0464Z" fill="#E1903F"/>
<path fill-rule="evenodd" clip-rule="evenodd" d="M25.2521 30.0894C25.2521 30.0894 23.9771 30.2102 22.9267 31.4363C21.8756 32.6623 20.5185 36.4269 18.9858 36.514C17.4538 36.6018 16.885 36.514 16.885 36.514C16.885 36.514 16.0528 38.1091 17.9793 38.3629C19.9058 38.6162 19.9949 38.7911 20.9792 37.9157C21.9634 37.0402 24.2329 32.2653 24.2329 32.2653L25.2521 30.0894Z" fill="#E1903F"/>
<path fill-rule="evenodd" clip-rule="evenodd" d="M45.0129 30.0651L44.1323 30.9457L40.5599 27.3739L41.4411 26.4927L45.0129 30.0651Z" fill="#362129"/>
<path fill-rule="evenodd" clip-rule="evenodd" d="M45.6797 24.5859H43.5896L43.1971 27.3446C43.1971 27.3446 44.1234 27.9192 44.1603 28.0509C44.1972 28.1819 45.4118 27.3688 45.4118 27.3688L45.3794 25.0625C45.3794 25.0625 45.5206 24.8392 45.6797 24.5859Z" fill="#F3B62C"/>
<path fill-rule="evenodd" clip-rule="evenodd" d="M45.6797 24.5859C45.5206 24.8392 45.3794 25.0625 45.3794 25.0625L45.4118 27.3688L45.9507 25.6866L45.6911 24.5859H45.6797Z" fill="#CA7055"/>
<path fill-rule="evenodd" clip-rule="evenodd" d="M43.1971 33.7127C43.1971 36.0337 41.3151 37.915 38.9941 37.915C36.6731 37.915 34.7912 36.0337 34.7912 33.7127C34.7912 31.3917 36.6731 29.5098 38.9941 29.5098C41.3151 29.5098 43.1971 31.3917 43.1971 33.7127Z" fill="#E1903F"/>
</svg>
